<svg xmlns="http://www.w3.org/2000/svg" xmlns:xlink="http://www.w3.org/1999/xlink" width="500" zoomAndPan="magnify" viewBox="0 0 375 374.999991" height="500" preserveAspectRatio="xMidYMid meet" version="1.0"><defs><clipPath id="a548140e64"><path d="M 81 52.570312 L 306 52.570312 L 306 322.570312 L 81 322.570312 Z M 81 52.570312 " clip-rule="nonzero"/></clipPath></defs><g clipPath="url(#a548140e64)"><path fill="#ff914d" d="M 249.953125 54.472656 C 248.789062 53.300781 247.378906 52.667969 245.730469 52.570312 L 109.203125 52.570312 C 108.777344 52.570312 108.351562 52.613281 107.933594 52.695312 C 107.515625 52.777344 107.109375 52.902344 106.714844 53.066406 C 106.320312 53.230469 105.945312 53.429688 105.589844 53.667969 C 105.234375 53.902344 104.90625 54.171875 104.605469 54.476562 C 104.300781 54.777344 104.03125 55.105469 103.796875 55.460938 C 103.558594 55.816406 103.359375 56.191406 103.195312 56.585938 C 103.03125 56.980469 102.90625 57.386719 102.824219 57.804688 C 102.742188 58.222656 102.699219 58.648438 102.699219 59.074219 L 102.699219 75.964844 L 88.003906 75.964844 C 87.589844 75.964844 87.179688 76.003906 86.773438 76.082031 C 86.367188 76.160156 85.972656 76.273438 85.589844 76.425781 C 85.207031 76.578125 84.839844 76.765625 84.492188 76.988281 C 84.144531 77.210938 83.820312 77.464844 83.519531 77.75 C 83.21875 78.035156 82.949219 78.34375 82.710938 78.679688 C 82.46875 79.015625 82.261719 79.371094 82.089844 79.746094 C 81.914062 80.121094 81.78125 80.511719 81.679688 80.910156 C 81.582031 81.3125 81.523438 81.71875 81.5 82.132812 L 81.5 315.871094 C 81.5 316.300781 81.542969 316.722656 81.625 317.140625 C 81.707031 317.558594 81.832031 317.96875 81.996094 318.363281 C 82.160156 318.757812 82.359375 319.132812 82.597656 319.484375 C 82.832031 319.839844 83.101562 320.167969 83.40625 320.472656 C 83.707031 320.773438 84.035156 321.042969 84.390625 321.28125 C 84.746094 321.515625 85.121094 321.71875 85.515625 321.882812 C 85.910156 322.042969 86.316406 322.167969 86.734375 322.25 C 87.152344 322.335938 87.578125 322.375 88.003906 322.375 L 277.53125 322.375 C 277.957031 322.375 278.378906 322.335938 278.800781 322.25 C 279.21875 322.167969 279.625 322.042969 280.019531 321.882812 C 280.414062 321.71875 280.789062 321.519531 281.144531 321.28125 C 281.5 321.042969 281.828125 320.773438 282.128906 320.472656 C 282.429688 320.167969 282.699219 319.839844 282.9375 319.484375 C 283.175781 319.132812 283.375 318.757812 283.539062 318.363281 C 283.703125 317.96875 283.824219 317.5625 283.910156 317.140625 C 283.992188 316.722656 284.035156 316.300781 284.035156 315.871094 L 284.035156 298.980469 L 298.730469 298.980469 C 299.15625 298.984375 299.578125 298.945312 299.996094 298.863281 C 300.414062 298.785156 300.820312 298.664062 301.214844 298.5 C 301.609375 298.339844 301.984375 298.140625 302.339844 297.90625 C 302.695312 297.671875 303.023438 297.402344 303.324219 297.105469 C 303.628906 296.804688 303.898438 296.476562 304.136719 296.121094 C 304.371094 295.769531 304.574219 295.394531 304.738281 295.003906 C 304.902344 294.609375 305.023438 294.203125 305.109375 293.785156 C 305.191406 293.367188 305.234375 292.945312 305.234375 292.519531 L 305.234375 112.285156 C 305.234375 111.425781 305.070312 110.601562 304.742188 109.8125 C 304.414062 109.019531 303.941406 108.324219 303.332031 107.722656 Z M 228.839844 77.65625 C 228.285156 77.117188 227.652344 76.691406 226.9375 76.386719 C 226.734375 76.285156 226.523438 76.203125 226.304688 76.136719 C 225.753906 75.972656 225.191406 75.875 224.617188 75.839844 L 115.707031 75.839844 L 115.707031 65.578125 L 242.816406 65.578125 L 292.183594 114.988281 L 292.183594 286.226562 L 284.035156 286.226562 L 284.035156 135.46875 C 284.050781 135.328125 284.050781 135.1875 284.035156 135.046875 C 284.003906 134.480469 283.890625 133.929688 283.695312 133.398438 C 283.714844 133.1875 283.714844 132.976562 283.695312 132.765625 C 283.390625 132.054688 282.96875 131.417969 282.429688 130.863281 Z M 224.320312 141.972656 L 271.070312 141.972656 L 271.070312 309.371094 L 94.507812 309.371094 L 94.507812 88.71875 L 217.816406 88.71875 L 217.816406 135.46875 C 217.816406 135.894531 217.859375 136.316406 217.941406 136.738281 C 218.027344 137.15625 218.148438 137.5625 218.3125 137.957031 C 218.476562 138.351562 218.675781 138.726562 218.914062 139.082031 C 219.152344 139.4375 219.421875 139.765625 219.722656 140.066406 C 220.023438 140.367188 220.351562 140.636719 220.707031 140.875 C 221.0625 141.113281 221.4375 141.3125 221.832031 141.476562 C 222.226562 141.640625 222.632812 141.761719 223.050781 141.847656 C 223.472656 141.929688 223.894531 141.972656 224.320312 141.972656 Z M 230.824219 97.925781 L 261.863281 128.964844 L 230.824219 128.964844 Z M 230.824219 97.925781 " fill-opacity="1" fill-rule="nonzero"/></g><path fill="#ff914d" d="M 60.300781 225.710938 C 59.128906 224.769531 57.792969 224.304688 56.289062 224.320312 C 55.289062 224.3125 54.339844 224.527344 53.441406 224.964844 C 52.542969 225.402344 51.789062 226.019531 51.179688 226.8125 L 36.566406 245.519531 C 36.300781 245.851562 36.074219 246.207031 35.878906 246.585938 C 35.683594 246.964844 35.527344 247.359375 35.414062 247.765625 C 35.296875 248.175781 35.222656 248.59375 35.1875 249.019531 C 35.15625 249.441406 35.164062 249.867188 35.214844 250.289062 C 35.265625 250.710938 35.359375 251.125 35.492188 251.527344 C 35.625 251.933594 35.796875 252.320312 36.007812 252.6875 C 36.21875 253.058594 36.464844 253.40625 36.742188 253.726562 C 37.019531 254.046875 37.328125 254.335938 37.664062 254.597656 C 38.835938 255.542969 40.171875 256.007812 41.675781 255.992188 C 42.675781 255.992188 43.625 255.773438 44.519531 255.335938 C 45.417969 254.898438 46.175781 254.289062 46.789062 253.5 L 61.398438 234.835938 C 61.664062 234.5 61.894531 234.140625 62.089844 233.761719 C 62.285156 233.382812 62.441406 232.984375 62.554688 232.574219 C 62.671875 232.164062 62.746094 231.746094 62.78125 231.320312 C 62.8125 230.894531 62.804688 230.46875 62.753906 230.042969 C 62.703125 229.621094 62.609375 229.203125 62.476562 228.800781 C 62.34375 228.394531 62.171875 228.003906 61.960938 227.632812 C 61.75 227.261719 61.503906 226.914062 61.226562 226.589844 C 60.945312 226.265625 60.636719 225.972656 60.300781 225.710938 Z M 60.300781 225.710938 " fill-opacity="1" fill-rule="nonzero"/><path fill="#ff914d" d="M 327.320312 172.375 C 328.558594 173.347656 329.964844 173.8125 331.542969 173.769531 C 332.542969 173.777344 333.492188 173.5625 334.390625 173.125 C 335.289062 172.6875 336.042969 172.070312 336.652344 171.277344 L 351.261719 152.613281 C 351.640625 152.136719 351.945312 151.613281 352.175781 151.050781 C 352.40625 150.488281 352.554688 149.902344 352.621094 149.296875 C 352.6875 148.691406 352.667969 148.089844 352.5625 147.488281 C 352.457031 146.890625 352.273438 146.316406 352.003906 145.769531 C 351.738281 145.21875 351.402344 144.722656 350.992188 144.269531 C 350.582031 143.816406 350.121094 143.429688 349.601562 143.109375 C 349.085938 142.789062 348.53125 142.546875 347.945312 142.382812 C 347.359375 142.214844 346.761719 142.136719 346.152344 142.140625 C 345.160156 142.140625 344.214844 142.355469 343.320312 142.78125 C 342.425781 143.210938 341.664062 143.816406 341.042969 144.589844 L 326.433594 163.253906 C 326.164062 163.585938 325.929688 163.9375 325.730469 164.3125 C 325.527344 164.6875 325.367188 165.078125 325.246094 165.484375 C 325.121094 165.890625 325.039062 166.304688 324.996094 166.730469 C 324.957031 167.152344 324.953125 167.574219 324.996094 168 C 325.035156 168.421875 325.117188 168.835938 325.242188 169.242188 C 325.363281 169.652344 325.523438 170.042969 325.722656 170.417969 C 325.921875 170.792969 326.15625 171.144531 326.425781 171.476562 C 326.695312 171.804688 326.992188 172.105469 327.320312 172.375 Z M 327.320312 172.375 " fill-opacity="1" fill-rule="nonzero"/><path fill="#ff914d" d="M 165.875 158.988281 L 201.726562 158.988281 C 202.15625 158.988281 202.578125 158.949219 202.996094 158.863281 C 203.414062 158.78125 203.820312 158.65625 204.214844 158.492188 C 204.609375 158.328125 204.984375 158.128906 205.339844 157.890625 C 205.691406 157.652344 206.019531 157.382812 206.324219 157.082031 C 206.625 156.78125 206.894531 156.453125 207.128906 156.097656 C 207.367188 155.742188 207.566406 155.367188 207.730469 154.972656 C 207.894531 154.578125 208.015625 154.171875 208.101562 153.753906 C 208.183594 153.335938 208.226562 152.914062 208.226562 152.488281 C 208.226562 152.058594 208.183594 151.636719 208.101562 151.21875 C 208.015625 150.800781 207.894531 150.394531 207.730469 150 C 207.566406 149.605469 207.367188 149.230469 207.128906 148.875 C 206.894531 148.519531 206.625 148.191406 206.324219 147.890625 C 206.019531 147.589844 205.691406 147.320312 205.339844 147.082031 C 204.984375 146.84375 204.609375 146.644531 204.214844 146.480469 C 203.820312 146.316406 203.414062 146.191406 202.996094 146.109375 C 202.578125 146.027344 202.15625 145.984375 201.726562 145.984375 L 165.875 145.984375 C 165.449219 145.984375 165.027344 146.027344 164.605469 146.109375 C 164.1875 146.191406 163.78125 146.316406 163.386719 146.480469 C 162.992188 146.644531 162.621094 146.84375 162.265625 147.082031 C 161.910156 147.320312 161.582031 147.589844 161.28125 147.890625 C 160.980469 148.191406 160.710938 148.519531 160.472656 148.875 C 160.234375 149.230469 160.035156 149.605469 159.871094 150 C 159.710938 150.394531 159.585938 150.800781 159.503906 151.21875 C 159.417969 151.636719 159.378906 152.058594 159.378906 152.488281 C 159.378906 152.914062 159.417969 153.335938 159.503906 153.753906 C 159.585938 154.171875 159.710938 154.578125 159.871094 154.972656 C 160.035156 155.367188 160.234375 155.742188 160.472656 156.097656 C 160.710938 156.453125 160.980469 156.78125 161.28125 157.082031 C 161.582031 157.382812 161.910156 157.652344 162.265625 157.890625 C 162.621094 158.128906 162.992188 158.328125 163.386719 158.492188 C 163.78125 158.65625 164.1875 158.78125 164.605469 158.863281 C 165.027344 158.949219 165.449219 158.988281 165.875 158.988281 Z M 165.875 158.988281 " fill-opacity="1" fill-rule="nonzero"/><path fill="#ff914d" d="M 51.476562 199.066406 C 51.476562 198.636719 51.433594 198.214844 51.351562 197.796875 C 51.265625 197.378906 51.144531 196.972656 50.980469 196.578125 C 50.816406 196.183594 50.617188 195.808594 50.378906 195.453125 C 50.140625 195.097656 49.871094 194.769531 49.570312 194.46875 C 49.269531 194.164062 48.941406 193.894531 48.585938 193.660156 C 48.230469 193.421875 47.855469 193.222656 47.460938 193.058594 C 47.066406 192.894531 46.660156 192.769531 46.238281 192.6875 C 45.820312 192.605469 45.398438 192.5625 44.972656 192.5625 L 19.972656 192.5625 C 19.542969 192.5625 19.121094 192.601562 18.703125 192.6875 C 18.28125 192.769531 17.875 192.890625 17.480469 193.054688 C 17.085938 193.21875 16.710938 193.417969 16.355469 193.65625 C 16 193.890625 15.667969 194.160156 15.367188 194.464844 C 15.066406 194.765625 14.792969 195.09375 14.558594 195.449219 C 14.320312 195.804688 14.117188 196.179688 13.953125 196.574219 C 13.792969 196.96875 13.667969 197.375 13.585938 197.796875 C 13.5 198.214844 13.460938 198.636719 13.460938 199.066406 C 13.460938 199.492188 13.5 199.917969 13.585938 200.335938 C 13.667969 200.753906 13.792969 201.160156 13.953125 201.554688 C 14.117188 201.953125 14.320312 202.328125 14.558594 202.679688 C 14.792969 203.035156 15.066406 203.367188 15.367188 203.667969 C 15.667969 203.96875 16 204.238281 16.355469 204.476562 C 16.710938 204.714844 17.085938 204.914062 17.480469 205.078125 C 17.875 205.238281 18.28125 205.363281 18.703125 205.445312 C 19.121094 205.527344 19.542969 205.570312 19.972656 205.570312 L 45.011719 205.570312 C 45.4375 205.566406 45.859375 205.523438 46.277344 205.4375 C 46.691406 205.351562 47.097656 205.226562 47.488281 205.0625 C 47.882812 204.898438 48.253906 204.695312 48.605469 204.457031 C 48.960938 204.222656 49.285156 203.949219 49.585938 203.648438 C 49.882812 203.347656 50.152344 203.019531 50.386719 202.664062 C 50.621094 202.3125 50.820312 201.9375 50.984375 201.542969 C 51.144531 201.152344 51.269531 200.746094 51.351562 200.328125 C 51.433594 199.914062 51.476562 199.492188 51.476562 199.066406 Z M 51.476562 199.066406 " fill-opacity="1" fill-rule="nonzero"/><path fill="#ff914d" d="M 165.875 137.03125 L 201.726562 137.03125 C 202.15625 137.03125 202.578125 136.988281 202.996094 136.90625 C 203.414062 136.820312 203.820312 136.699219 204.214844 136.535156 C 204.609375 136.371094 204.984375 136.171875 205.339844 135.933594 C 205.695312 135.695312 206.023438 135.425781 206.328125 135.125 C 206.628906 134.824219 206.898438 134.496094 207.136719 134.140625 C 207.371094 133.785156 207.574219 133.410156 207.734375 133.015625 C 207.898438 132.621094 208.023438 132.214844 208.105469 131.796875 C 208.191406 131.375 208.230469 130.953125 208.230469 130.527344 C 208.230469 130.101562 208.191406 129.675781 208.105469 129.257812 C 208.023438 128.839844 207.898438 128.433594 207.734375 128.039062 C 207.574219 127.644531 207.371094 127.269531 207.136719 126.914062 C 206.898438 126.558594 206.628906 126.230469 206.328125 125.929688 C 206.023438 125.625 205.695312 125.355469 205.339844 125.121094 C 204.984375 124.882812 204.609375 124.683594 204.214844 124.519531 C 203.820312 124.355469 203.414062 124.230469 202.996094 124.148438 C 202.578125 124.066406 202.15625 124.023438 201.726562 124.023438 L 165.875 124.023438 C 165.449219 124.023438 165.023438 124.066406 164.605469 124.148438 C 164.1875 124.230469 163.78125 124.355469 163.386719 124.519531 C 162.992188 124.683594 162.617188 124.882812 162.261719 125.121094 C 161.90625 125.355469 161.578125 125.625 161.277344 125.929688 C 160.972656 126.230469 160.703125 126.558594 160.46875 126.914062 C 160.230469 127.269531 160.03125 127.644531 159.867188 128.039062 C 159.703125 128.433594 159.578125 128.839844 159.496094 129.257812 C 159.414062 129.675781 159.371094 130.101562 159.371094 130.527344 C 159.371094 130.953125 159.414062 131.375 159.496094 131.796875 C 159.578125 132.214844 159.703125 132.621094 159.867188 133.015625 C 160.03125 133.410156 160.230469 133.785156 160.46875 134.140625 C 160.703125 134.496094 160.972656 134.824219 161.277344 135.125 C 161.578125 135.425781 161.90625 135.695312 162.261719 135.933594 C 162.617188 136.171875 162.992188 136.371094 163.386719 136.535156 C 163.78125 136.699219 164.1875 136.820312 164.605469 136.90625 C 165.023438 136.988281 165.449219 137.03125 165.875 137.03125 Z M 165.875 137.03125 " fill-opacity="1" fill-rule="nonzero"/><path fill="#ff914d" d="M 159.414062 192.6875 C 159.414062 193.113281 159.457031 193.535156 159.539062 193.953125 C 159.621094 194.371094 159.742188 194.773438 159.90625 195.167969 C 160.066406 195.5625 160.265625 195.933594 160.5 196.289062 C 160.738281 196.644531 161.003906 196.972656 161.304688 197.273438 C 161.601562 197.574219 161.929688 197.84375 162.28125 198.082031 C 162.636719 198.320312 163.007812 198.519531 163.398438 198.683594 C 163.792969 198.851562 164.195312 198.976562 164.613281 199.058594 C 165.027344 199.144531 165.449219 199.191406 165.875 199.191406 L 241.886719 199.191406 C 242.316406 199.191406 242.738281 199.152344 243.15625 199.066406 C 243.574219 198.984375 243.984375 198.859375 244.378906 198.699219 C 244.773438 198.535156 245.144531 198.332031 245.5 198.097656 C 245.855469 197.859375 246.183594 197.589844 246.488281 197.289062 C 246.789062 196.984375 247.058594 196.65625 247.296875 196.300781 C 247.53125 195.945312 247.734375 195.570312 247.898438 195.175781 C 248.058594 194.785156 248.183594 194.375 248.265625 193.957031 C 248.351562 193.539062 248.390625 193.117188 248.390625 192.6875 C 248.390625 192.261719 248.351562 191.839844 248.265625 191.421875 C 248.183594 191 248.058594 190.59375 247.898438 190.199219 C 247.734375 189.804688 247.53125 189.429688 247.296875 189.074219 C 247.058594 188.722656 246.789062 188.390625 246.488281 188.089844 C 246.183594 187.789062 245.855469 187.519531 245.5 187.28125 C 245.144531 187.042969 244.773438 186.84375 244.378906 186.679688 C 243.984375 186.515625 243.574219 186.394531 243.15625 186.3125 C 242.738281 186.226562 242.316406 186.1875 241.886719 186.1875 L 165.875 186.1875 C 165.449219 186.1875 165.027344 186.234375 164.613281 186.316406 C 164.195312 186.402344 163.792969 186.527344 163.398438 186.691406 C 163.007812 186.855469 162.636719 187.058594 162.28125 187.296875 C 161.929688 187.535156 161.601562 187.804688 161.304688 188.105469 C 161.003906 188.40625 160.738281 188.734375 160.5 189.089844 C 160.265625 189.441406 160.066406 189.816406 159.90625 190.210938 C 159.742188 190.601562 159.621094 191.007812 159.539062 191.425781 C 159.457031 191.84375 159.414062 192.265625 159.414062 192.6875 Z M 159.414062 192.6875 " fill-opacity="1" fill-rule="nonzero"/><path fill="#ff914d" d="M 242.058594 208.355469 L 166.042969 208.355469 C 165.617188 208.355469 165.195312 208.398438 164.773438 208.480469 C 164.355469 208.5625 163.949219 208.6875 163.554688 208.851562 C 163.160156 209.015625 162.785156 209.214844 162.429688 209.453125 C 162.074219 209.6875 161.746094 209.960938 161.445312 210.261719 C 161.144531 210.5625 160.875 210.890625 160.636719 211.246094 C 160.398438 211.601562 160.199219 211.976562 160.035156 212.371094 C 159.871094 212.765625 159.75 213.171875 159.664062 213.589844 C 159.582031 214.007812 159.539062 214.433594 159.539062 214.859375 C 159.539062 215.285156 159.582031 215.710938 159.664062 216.128906 C 159.75 216.546875 159.871094 216.953125 160.035156 217.347656 C 160.199219 217.742188 160.398438 218.117188 160.636719 218.472656 C 160.875 218.828125 161.144531 219.15625 161.445312 219.457031 C 161.746094 219.761719 162.074219 220.03125 162.429688 220.265625 C 162.785156 220.503906 163.160156 220.703125 163.554688 220.867188 C 163.949219 221.03125 164.355469 221.15625 164.773438 221.238281 C 165.195312 221.320312 165.617188 221.363281 166.042969 221.363281 L 242.058594 221.363281 C 242.484375 221.363281 242.90625 221.320312 243.324219 221.238281 C 243.746094 221.15625 244.152344 221.03125 244.546875 220.867188 C 244.941406 220.703125 245.316406 220.503906 245.671875 220.265625 C 246.027344 220.03125 246.355469 219.761719 246.65625 219.457031 C 246.957031 219.15625 247.226562 218.828125 247.464844 218.472656 C 247.703125 218.117188 247.902344 217.742188 248.066406 217.347656 C 248.230469 216.953125 248.351562 216.546875 248.4375 216.128906 C 248.519531 215.710938 248.5625 215.285156 248.5625 214.859375 C 248.5625 214.433594 248.519531 214.007812 248.4375 213.589844 C 248.351562 213.171875 248.230469 212.765625 248.066406 212.371094 C 247.902344 211.976562 247.703125 211.601562 247.464844 211.246094 C 247.226562 210.890625 246.957031 210.5625 246.65625 210.261719 C 246.355469 209.960938 246.027344 209.6875 245.671875 209.453125 C 245.316406 209.214844 244.941406 209.015625 244.546875 208.851562 C 244.152344 208.6875 243.746094 208.5625 243.324219 208.480469 C 242.90625 208.398438 242.484375 208.355469 242.058594 208.355469 Z M 242.058594 208.355469 " fill-opacity="1" fill-rule="nonzero"/><path fill="#ff914d" d="M 46.789062 144.632812 C 46.179688 143.839844 45.425781 143.222656 44.527344 142.785156 C 43.625 142.347656 42.675781 142.132812 41.675781 142.140625 C 41.070312 142.136719 40.46875 142.214844 39.882812 142.382812 C 39.296875 142.546875 38.746094 142.789062 38.226562 143.109375 C 37.710938 143.429688 37.246094 143.816406 36.839844 144.269531 C 36.429688 144.722656 36.09375 145.21875 35.824219 145.769531 C 35.558594 146.316406 35.371094 146.890625 35.269531 147.488281 C 35.164062 148.089844 35.144531 148.691406 35.207031 149.296875 C 35.273438 149.902344 35.421875 150.488281 35.652344 151.050781 C 35.886719 151.613281 36.191406 152.136719 36.566406 152.613281 L 51.179688 171.277344 C 51.789062 172.070312 52.542969 172.6875 53.441406 173.125 C 54.339844 173.5625 55.289062 173.777344 56.289062 173.769531 C 56.898438 173.769531 57.496094 173.683594 58.082031 173.515625 C 58.667969 173.347656 59.21875 173.101562 59.734375 172.777344 C 60.25 172.453125 60.710938 172.066406 61.121094 171.613281 C 61.527344 171.15625 61.863281 170.65625 62.128906 170.109375 C 62.394531 169.5625 62.582031 168.988281 62.6875 168.386719 C 62.792969 167.785156 62.8125 167.183594 62.746094 166.578125 C 62.683594 165.972656 62.535156 165.386719 62.304688 164.820312 C 62.078125 164.257812 61.773438 163.734375 61.398438 163.253906 Z M 46.789062 144.632812 " fill-opacity="1" fill-rule="nonzero"/><path fill="#ff914d" d="M 336.441406 226.851562 C 335.832031 226.058594 335.078125 225.445312 334.179688 225.007812 C 333.28125 224.566406 332.332031 224.351562 331.332031 224.359375 C 329.746094 224.292969 328.339844 224.757812 327.109375 225.753906 C 326.773438 226.015625 326.46875 226.308594 326.191406 226.628906 C 325.914062 226.953125 325.671875 227.296875 325.460938 227.667969 C 325.253906 228.039062 325.082031 228.425781 324.953125 228.828125 C 324.820312 229.234375 324.726562 229.644531 324.675781 230.066406 C 324.625 230.488281 324.617188 230.910156 324.648438 231.335938 C 324.679688 231.757812 324.753906 232.175781 324.867188 232.582031 C 324.984375 232.992188 325.136719 233.386719 325.328125 233.765625 C 325.519531 234.144531 325.746094 234.5 326.011719 234.835938 L 340.621094 253.5 C 341.234375 254.289062 341.988281 254.898438 342.886719 255.335938 C 343.785156 255.773438 344.734375 255.992188 345.730469 255.992188 C 347.316406 256.066406 348.726562 255.601562 349.953125 254.597656 C 350.292969 254.335938 350.601562 254.042969 350.878906 253.71875 C 351.160156 253.398438 351.402344 253.050781 351.613281 252.675781 C 351.824219 252.304688 351.996094 251.917969 352.128906 251.511719 C 352.265625 251.105469 352.355469 250.691406 352.40625 250.265625 C 352.457031 249.84375 352.46875 249.417969 352.433594 248.992188 C 352.402344 248.566406 352.324219 248.148438 352.210938 247.734375 C 352.09375 247.324219 351.9375 246.929688 351.742188 246.546875 C 351.546875 246.167969 351.316406 245.8125 351.050781 245.476562 Z M 336.441406 226.851562 " fill-opacity="1" fill-rule="nonzero"/><path fill="#ff914d" d="M 242.058594 248.558594 L 166.042969 248.558594 C 165.617188 248.558594 165.195312 248.601562 164.777344 248.6875 C 164.359375 248.769531 163.953125 248.894531 163.558594 249.058594 C 163.164062 249.222656 162.792969 249.421875 162.4375 249.660156 C 162.082031 249.898438 161.753906 250.167969 161.453125 250.46875 C 161.152344 250.769531 160.882812 251.097656 160.648438 251.453125 C 160.410156 251.808594 160.210938 252.183594 160.046875 252.578125 C 159.882812 252.96875 159.761719 253.375 159.679688 253.796875 C 159.59375 254.214844 159.554688 254.636719 159.554688 255.0625 C 159.554688 255.488281 159.59375 255.910156 159.679688 256.328125 C 159.761719 256.746094 159.882812 257.152344 160.046875 257.546875 C 160.210938 257.941406 160.410156 258.316406 160.648438 258.671875 C 160.882812 259.027344 161.152344 259.355469 161.453125 259.65625 C 161.753906 259.957031 162.082031 260.226562 162.4375 260.464844 C 162.792969 260.703125 163.164062 260.902344 163.558594 261.066406 C 163.953125 261.230469 164.359375 261.355469 164.777344 261.4375 C 165.195312 261.523438 165.617188 261.566406 166.042969 261.566406 L 242.058594 261.566406 C 242.484375 261.566406 242.90625 261.523438 243.324219 261.441406 C 243.746094 261.355469 244.152344 261.234375 244.546875 261.070312 C 244.941406 260.90625 245.316406 260.707031 245.671875 260.46875 C 246.027344 260.230469 246.355469 259.960938 246.65625 259.660156 C 246.957031 259.359375 247.226562 259.03125 247.464844 258.675781 C 247.703125 258.320312 247.902344 257.945312 248.066406 257.550781 C 248.230469 257.15625 248.351562 256.75 248.4375 256.332031 C 248.519531 255.914062 248.5625 255.488281 248.5625 255.0625 C 248.5625 254.636719 248.519531 254.210938 248.4375 253.792969 C 248.351562 253.375 248.230469 252.96875 248.066406 252.574219 C 247.902344 252.179688 247.703125 251.804688 247.464844 251.449219 C 247.226562 251.09375 246.957031 250.765625 246.65625 250.464844 C 246.355469 250.160156 246.027344 249.890625 245.671875 249.65625 C 245.316406 249.417969 244.941406 249.21875 244.546875 249.054688 C 244.152344 248.890625 243.746094 248.765625 243.324219 248.683594 C 242.90625 248.601562 242.484375 248.558594 242.058594 248.558594 Z M 242.058594 248.558594 " fill-opacity="1" fill-rule="nonzero"/><path fill="#ff914d" d="M 367.648438 192.5625 L 342.605469 192.5625 C 342.179688 192.5625 341.757812 192.605469 341.335938 192.6875 C 340.917969 192.769531 340.511719 192.894531 340.117188 193.058594 C 339.722656 193.222656 339.347656 193.421875 338.992188 193.660156 C 338.636719 193.894531 338.308594 194.164062 338.007812 194.46875 C 337.707031 194.769531 337.4375 195.097656 337.199219 195.453125 C 336.960938 195.808594 336.761719 196.183594 336.597656 196.578125 C 336.433594 196.972656 336.3125 197.378906 336.226562 197.796875 C 336.144531 198.214844 336.101562 198.636719 336.101562 199.066406 C 336.101562 199.492188 336.144531 199.914062 336.226562 200.335938 C 336.3125 200.753906 336.433594 201.160156 336.597656 201.554688 C 336.761719 201.949219 336.960938 202.324219 337.199219 202.679688 C 337.4375 203.035156 337.707031 203.363281 338.007812 203.664062 C 338.308594 203.964844 338.636719 204.234375 338.992188 204.472656 C 339.347656 204.710938 339.722656 204.910156 340.117188 205.074219 C 340.511719 205.238281 340.917969 205.359375 341.335938 205.445312 C 341.757812 205.527344 342.179688 205.570312 342.605469 205.570312 L 367.648438 205.570312 C 368.074219 205.570312 368.5 205.527344 368.917969 205.445312 C 369.335938 205.359375 369.742188 205.238281 370.136719 205.074219 C 370.53125 204.910156 370.90625 204.710938 371.261719 204.472656 C 371.617188 204.234375 371.945312 203.964844 372.246094 203.664062 C 372.550781 203.363281 372.820312 203.035156 373.054688 202.679688 C 373.292969 202.324219 373.492188 201.949219 373.65625 201.554688 C 373.820312 201.160156 373.945312 200.753906 374.027344 200.335938 C 374.109375 199.914062 374.152344 199.492188 374.152344 199.066406 C 374.152344 198.636719 374.109375 198.214844 374.027344 197.796875 C 373.945312 197.378906 373.820312 196.972656 373.65625 196.578125 C 373.492188 196.183594 373.292969 195.808594 373.054688 195.453125 C 372.820312 195.097656 372.550781 194.769531 372.246094 194.46875 C 371.945312 194.164062 371.617188 193.894531 371.261719 193.660156 C 370.90625 193.421875 370.53125 193.222656 370.136719 193.058594 C 369.742188 192.894531 369.335938 192.769531 368.917969 192.6875 C 368.5 192.605469 368.074219 192.5625 367.648438 192.5625 Z M 367.648438 192.5625 " fill-opacity="1" fill-rule="nonzero"/><path fill="#ff914d" d="M 142.988281 179.007812 C 142.042969 178.539062 141.042969 178.300781 139.988281 178.289062 C 139.394531 178.289062 138.8125 178.371094 138.242188 178.53125 C 137.667969 178.691406 137.132812 178.925781 136.625 179.234375 C 136.117188 179.542969 135.664062 179.914062 135.257812 180.351562 C 134.855469 180.785156 134.515625 181.265625 134.246094 181.792969 L 122.714844 203.921875 L 117.183594 197.125 C 116.558594 196.371094 115.800781 195.789062 114.914062 195.375 C 114.027344 194.960938 113.09375 194.757812 112.117188 194.757812 C 110.523438 194.722656 109.117188 195.214844 107.894531 196.234375 C 107.566406 196.507812 107.265625 196.804688 106.996094 197.132812 C 106.726562 197.460938 106.488281 197.8125 106.289062 198.1875 C 106.085938 198.5625 105.925781 198.953125 105.800781 199.359375 C 105.675781 199.765625 105.589844 200.183594 105.546875 200.605469 C 105.503906 201.027344 105.503906 201.453125 105.542969 201.875 C 105.582031 202.300781 105.664062 202.714844 105.785156 203.121094 C 105.90625 203.53125 106.066406 203.921875 106.265625 204.296875 C 106.464844 204.675781 106.695312 205.027344 106.964844 205.359375 L 119.042969 219.757812 C 119.660156 220.511719 120.410156 221.097656 121.289062 221.519531 C 122.167969 221.941406 123.09375 222.15625 124.066406 222.164062 L 124.742188 222.164062 C 125.832031 222.050781 126.828125 221.6875 127.730469 221.074219 C 128.636719 220.460938 129.34375 219.671875 129.851562 218.703125 L 145.773438 187.707031 C 145.960938 187.328125 146.113281 186.933594 146.226562 186.527344 C 146.335938 186.121094 146.410156 185.707031 146.441406 185.285156 C 146.472656 184.863281 146.464844 184.441406 146.414062 184.023438 C 146.367188 183.601562 146.277344 183.191406 146.148438 182.789062 C 146.019531 182.386719 145.851562 182 145.648438 181.628906 C 145.445312 181.261719 145.207031 180.914062 144.9375 180.589844 C 144.667969 180.265625 144.367188 179.96875 144.039062 179.703125 C 143.710938 179.4375 143.359375 179.203125 142.988281 179.007812 Z M 142.988281 179.007812 " fill-opacity="1" fill-rule="nonzero"/><path fill="#ff914d" d="M 142.988281 246.066406 C 142.050781 245.566406 141.050781 245.3125 139.988281 245.308594 C 139.394531 245.3125 138.816406 245.394531 138.246094 245.558594 C 137.675781 245.722656 137.136719 245.957031 136.632812 246.265625 C 136.125 246.574219 135.671875 246.945312 135.265625 247.375 C 134.859375 247.808594 134.519531 248.289062 134.246094 248.8125 L 122.714844 270.941406 L 117.183594 264.183594 C 116.90625 263.851562 116.601562 263.550781 116.261719 263.28125 C 115.925781 263.007812 115.566406 262.773438 115.183594 262.574219 C 114.800781 262.375 114.402344 262.214844 113.988281 262.09375 C 113.574219 261.96875 113.148438 261.890625 112.71875 261.851562 C 112.289062 261.8125 111.859375 261.816406 111.429688 261.863281 C 111 261.910156 110.578125 262 110.167969 262.128906 C 109.753906 262.257812 109.359375 262.425781 108.980469 262.632812 C 108.601562 262.839844 108.246094 263.082031 107.914062 263.359375 C 107.582031 263.636719 107.28125 263.945312 107.011719 264.28125 C 106.742188 264.617188 106.503906 264.976562 106.304688 265.359375 C 106.105469 265.742188 105.945312 266.140625 105.824219 266.558594 C 105.703125 266.972656 105.621094 267.394531 105.582031 267.824219 C 105.546875 268.253906 105.550781 268.683594 105.59375 269.113281 C 105.640625 269.542969 105.730469 269.964844 105.859375 270.378906 C 105.988281 270.789062 106.15625 271.183594 106.363281 271.5625 C 106.570312 271.941406 106.8125 272.296875 107.089844 272.628906 L 119.042969 286.820312 C 119.664062 287.566406 120.414062 288.148438 121.292969 288.5625 C 122.171875 288.972656 123.097656 289.183594 124.066406 289.183594 L 124.742188 289.183594 C 125.832031 289.078125 126.832031 288.714844 127.738281 288.101562 C 128.644531 287.488281 129.351562 286.695312 129.851562 285.722656 L 145.941406 254.851562 C 146.136719 254.464844 146.292969 254.066406 146.40625 253.652344 C 146.523438 253.234375 146.59375 252.8125 146.625 252.382812 C 146.65625 251.953125 146.644531 251.523438 146.589844 251.09375 C 146.535156 250.667969 146.441406 250.25 146.304688 249.839844 C 146.167969 249.429688 145.988281 249.039062 145.773438 248.667969 C 145.558594 248.292969 145.308594 247.945312 145.023438 247.621094 C 144.738281 247.296875 144.425781 247.003906 144.082031 246.742188 C 143.738281 246.480469 143.375 246.257812 142.988281 246.066406 Z M 142.988281 246.066406 " fill-opacity="1" fill-rule="nonzero"/><path fill="#ff914d" d="M 242.058594 270.730469 L 166.042969 270.730469 C 165.617188 270.730469 165.195312 270.773438 164.777344 270.855469 C 164.359375 270.941406 163.953125 271.0625 163.558594 271.226562 C 163.164062 271.390625 162.792969 271.59375 162.4375 271.828125 C 162.082031 272.066406 161.753906 272.335938 161.453125 272.640625 C 161.152344 272.941406 160.882812 273.269531 160.648438 273.625 C 160.410156 273.976562 160.210938 274.351562 160.046875 274.746094 C 159.882812 275.140625 159.761719 275.546875 159.679688 275.964844 C 159.59375 276.382812 159.554688 276.804688 159.554688 277.234375 C 159.554688 277.660156 159.59375 278.082031 159.679688 278.5 C 159.761719 278.917969 159.882812 279.324219 160.046875 279.71875 C 160.210938 280.113281 160.410156 280.488281 160.648438 280.84375 C 160.882812 281.195312 161.152344 281.523438 161.453125 281.828125 C 161.753906 282.128906 162.082031 282.398438 162.4375 282.636719 C 162.792969 282.875 163.164062 283.074219 163.558594 283.238281 C 163.953125 283.402344 164.359375 283.523438 164.777344 283.609375 C 165.195312 283.691406 165.617188 283.734375 166.042969 283.734375 L 242.058594 283.734375 C 242.484375 283.734375 242.90625 283.695312 243.324219 283.609375 C 243.746094 283.527344 244.152344 283.40625 244.546875 283.242188 C 244.941406 283.078125 245.316406 282.878906 245.671875 282.640625 C 246.027344 282.402344 246.355469 282.132812 246.65625 281.832031 C 246.957031 281.53125 247.226562 281.199219 247.464844 280.847656 C 247.703125 280.492188 247.902344 280.117188 248.066406 279.722656 C 248.230469 279.328125 248.351562 278.921875 248.4375 278.5 C 248.519531 278.082031 248.5625 277.660156 248.5625 277.234375 C 248.5625 276.804688 248.519531 276.382812 248.4375 275.964844 C 248.351562 275.546875 248.230469 275.136719 248.066406 274.742188 C 247.902344 274.347656 247.703125 273.976562 247.464844 273.621094 C 247.226562 273.265625 246.957031 272.9375 246.65625 272.632812 C 246.355469 272.332031 246.027344 272.0625 245.671875 271.824219 C 245.316406 271.589844 244.941406 271.386719 244.546875 271.222656 C 244.152344 271.0625 243.746094 270.9375 243.324219 270.855469 C 242.90625 270.769531 242.484375 270.730469 242.058594 270.730469 Z M 242.058594 270.730469 " fill-opacity="1" fill-rule="nonzero"/><path fill="#ff914d" d="M 142.988281 111.988281 C 142.101562 111.527344 141.15625 111.289062 140.15625 111.269531 C 139.578125 111.1875 139.003906 111.1875 138.425781 111.269531 C 137.277344 111.589844 136.292969 112.179688 135.46875 113.042969 C 135.03125 113.472656 134.679688 113.96875 134.414062 114.523438 L 122.714844 137.03125 L 117.183594 130.273438 C 116.914062 129.941406 116.613281 129.640625 116.285156 129.367188 C 115.953125 129.097656 115.601562 128.859375 115.222656 128.65625 C 114.847656 128.453125 114.453125 128.289062 114.046875 128.164062 C 113.636719 128.039062 113.21875 127.953125 112.792969 127.910156 C 112.371094 127.867188 111.945312 127.867188 111.519531 127.90625 C 111.09375 127.949219 110.675781 128.03125 110.265625 128.152344 C 109.855469 128.277344 109.460938 128.4375 109.082031 128.636719 C 108.707031 128.839844 108.351562 129.074219 108.019531 129.34375 C 107.6875 129.613281 107.386719 129.914062 107.113281 130.246094 C 106.84375 130.574219 106.605469 130.925781 106.402344 131.304688 C 106.199219 131.679688 106.035156 132.074219 105.910156 132.484375 C 105.785156 132.890625 105.699219 133.308594 105.65625 133.734375 C 105.613281 134.160156 105.613281 134.585938 105.652344 135.011719 C 105.695312 135.4375 105.777344 135.855469 105.898438 136.265625 C 106.023438 136.671875 106.183594 137.066406 106.386719 137.445312 C 106.585938 137.824219 106.820312 138.175781 107.089844 138.507812 L 119.042969 152.738281 C 119.664062 153.488281 120.414062 154.066406 121.292969 154.480469 C 122.171875 154.894531 123.097656 155.101562 124.066406 155.105469 L 124.742188 155.105469 C 125.832031 154.996094 126.832031 154.636719 127.738281 154.023438 C 128.644531 153.410156 129.351562 152.613281 129.851562 151.640625 L 145.941406 120.773438 C 146.136719 120.386719 146.292969 119.988281 146.40625 119.570312 C 146.523438 119.15625 146.59375 118.734375 146.625 118.300781 C 146.65625 117.871094 146.644531 117.445312 146.589844 117.015625 C 146.535156 116.589844 146.441406 116.167969 146.304688 115.761719 C 146.167969 115.351562 145.988281 114.960938 145.773438 114.585938 C 145.558594 114.214844 145.308594 113.863281 145.023438 113.542969 C 144.738281 113.21875 144.425781 112.925781 144.082031 112.664062 C 143.738281 112.402344 143.375 112.175781 142.988281 111.988281 Z M 142.988281 111.988281 " fill-opacity="1" fill-rule="nonzero"/></svg>