<svg xmlns="http://www.w3.org/2000/svg" xmlns:xlink="http://www.w3.org/1999/xlink" width="500" zoomAndPan="magnify" viewBox="0 0 375 374.999991" height="500" preserveAspectRatio="xMidYMid meet" version="1.0"><defs><clipPath id="0cb8044e22"><path d="M 46.253906 11.765625 L 268 11.765625 L 268 234 L 46.253906 234 Z M 46.253906 11.765625 " clip-rule="nonzero"/></clipPath><clipPath id="ef32068bf4"><path d="M 240 239 L 329 239 L 329 363.515625 L 240 363.515625 Z M 240 239 " clip-rule="nonzero"/></clipPath><clipPath id="e18c248b50"><path d="M 133 239 L 221 239 L 221 363.515625 L 133 363.515625 Z M 133 239 " clip-rule="nonzero"/></clipPath></defs><path fill="#00bf63" d="M 230.804688 305.09375 C 230.335938 305.09375 229.859375 305.019531 229.410156 304.871094 C 184.964844 290.574219 156.90625 257.753906 148.25 209.949219 C 141.792969 174.273438 148.332031 143.292969 148.609375 141.992188 C 149.082031 139.8125 151.0625 138.300781 153.289062 138.394531 C 156.113281 138.527344 158.855469 138.59375 161.507812 138.59375 C 207.316406 138.59375 227.390625 119.433594 227.601562 119.226562 C 229.386719 117.472656 232.253906 117.464844 234.027344 119.226562 C 234.320312 119.511719 256.792969 140.875 308.332031 138.394531 C 310.542969 138.28125 312.539062 139.804688 313.015625 141.992188 C 313.300781 143.292969 319.832031 174.273438 313.371094 209.949219 C 304.71875 257.753906 276.660156 290.582031 232.214844 304.871094 C 231.746094 305.019531 231.269531 305.09375 230.804688 305.09375 Z M 156.847656 147.664062 C 155.367188 156.832031 152.339844 181.613281 157.269531 208.59375 C 165.359375 252.855469 190.097656 282.167969 230.796875 295.734375 C 271.582031 282.136719 296.335938 252.738281 304.371094 208.332031 C 309.242188 181.390625 306.226562 156.792969 304.75 147.671875 C 262.097656 148.820312 238.832031 134.605469 230.796875 128.449219 C 222.769531 134.597656 199.488281 148.796875 156.847656 147.664062 Z M 156.847656 147.664062 " fill-opacity="1" fill-rule="nonzero"/><path fill="#00bf63" d="M 230.804688 284.949219 C 230.257812 284.949219 229.703125 284.847656 229.179688 284.648438 C 195.234375 271.746094 174.359375 245.828125 167.148438 207.625 C 164.550781 193.863281 163.742188 176.667969 164.988281 161.628906 C 165.175781 159.335938 167.039062 157.546875 169.335938 157.445312 C 187.453125 156.660156 203.871094 153.132812 218.148438 146.960938 C 221.660156 145.4375 225.25 143.648438 228.53125 141.761719 C 229.941406 140.953125 231.667969 140.953125 233.070312 141.761719 C 236.351562 143.640625 239.941406 145.4375 243.449219 146.960938 C 257.730469 153.132812 274.148438 156.660156 292.261719 157.445312 C 294.5625 157.546875 296.421875 159.335938 296.613281 161.628906 C 297.855469 176.667969 297.050781 193.863281 294.449219 207.625 C 287.238281 245.835938 266.367188 271.746094 232.421875 284.648438 C 231.898438 284.847656 231.351562 284.949219 230.804688 284.949219 Z M 173.804688 166.34375 C 173.054688 179.597656 173.886719 194.125 176.121094 205.929688 C 182.679688 240.675781 200.574219 263.445312 230.796875 275.480469 C 261.019531 263.445312 278.917969 240.667969 285.472656 205.921875 C 287.699219 194.109375 288.539062 179.589844 287.785156 166.335938 C 270.15625 165.167969 254.039062 161.476562 239.820312 155.335938 C 236.792969 154.027344 233.710938 152.53125 230.789062 150.945312 C 227.863281 152.53125 224.78125 154.027344 221.753906 155.335938 C 207.554688 161.484375 191.4375 165.183594 173.804688 166.34375 Z M 173.804688 166.34375 " fill-opacity="1" fill-rule="nonzero"/><g clipPath="url(#0cb8044e22)"><path fill="#00bf63" d="M 157.703125 233.386719 L 151.015625 233.386719 C 138.15625 233.386719 127.695312 222.925781 127.695312 210.066406 L 127.695312 204.0625 C 125.160156 203.140625 122.65625 202.109375 120.214844 200.953125 L 115.960938 205.210938 C 106.863281 214.296875 92.070312 214.296875 82.980469 205.210938 L 74.4375 196.667969 C 65.34375 187.570312 65.34375 172.777344 74.4375 163.6875 L 78.6875 159.441406 C 77.535156 156.992188 76.5 154.496094 75.578125 151.953125 L 69.574219 151.953125 C 56.710938 151.953125 46.253906 141.492188 46.253906 128.632812 L 46.253906 116.539062 C 46.253906 103.679688 56.710938 93.21875 69.574219 93.21875 L 75.578125 93.21875 C 76.492188 90.683594 77.527344 88.179688 78.6875 85.730469 L 74.4375 81.484375 C 65.34375 72.386719 65.34375 57.59375 74.4375 48.503906 L 82.980469 39.960938 C 92.078125 30.863281 106.871094 30.863281 115.960938 39.960938 L 120.214844 44.214844 C 122.664062 43.066406 125.160156 42.03125 127.703125 41.109375 L 127.703125 35.105469 C 127.703125 22.242188 138.164062 11.785156 151.023438 11.785156 L 163.109375 11.785156 C 175.96875 11.785156 186.429688 22.242188 186.429688 35.105469 L 186.429688 41.101562 C 188.964844 42.023438 191.46875 43.050781 193.917969 44.207031 L 198.171875 39.953125 C 207.269531 30.863281 222.0625 30.855469 231.152344 39.953125 L 239.695312 48.496094 C 248.792969 57.59375 248.792969 72.386719 239.695312 81.476562 L 235.449219 85.722656 C 236.597656 88.171875 237.632812 90.667969 238.554688 93.210938 L 244.558594 93.210938 C 257.421875 93.210938 267.878906 103.671875 267.878906 116.53125 L 267.878906 128.617188 C 267.878906 132.65625 266.820312 136.652344 264.804688 140.160156 C 263.753906 142 261.582031 142.871094 259.550781 142.269531 C 244.695312 137.878906 235.34375 131.878906 230.820312 128.425781 C 223.101562 134.34375 201.277344 147.71875 161.667969 147.71875 C 160.097656 147.71875 158.496094 147.695312 156.863281 147.65625 C 155.058594 158.917969 150.921875 193.726562 162.046875 227.390625 C 162.507812 228.785156 162.269531 230.304688 161.414062 231.492188 C 160.550781 232.683594 159.171875 233.386719 157.703125 233.386719 Z M 119.304688 190.84375 C 120.019531 190.84375 120.738281 191.007812 121.40625 191.359375 C 125.328125 193.394531 129.441406 195.105469 133.640625 196.4375 C 135.53125 197.039062 136.824219 198.800781 136.824219 200.789062 L 136.824219 210.066406 C 136.824219 217.894531 143.195312 224.257812 151.015625 224.257812 L 151.53125 224.257812 C 139.9375 183.210938 148.21875 143.726562 148.601562 141.992188 C 149.074219 139.8125 151.054688 138.300781 153.28125 138.394531 C 205.289062 140.898438 227.355469 119.457031 227.570312 119.242188 C 229.355469 117.457031 232.246094 117.457031 234.019531 119.242188 C 234.085938 119.304688 241.753906 126.699219 258.253906 132.292969 C 258.578125 131.105469 258.746094 129.867188 258.746094 128.625 L 258.746094 116.539062 C 258.746094 108.710938 252.375 102.347656 244.550781 102.347656 L 235.273438 102.347656 C 233.285156 102.347656 231.523438 101.054688 230.921875 99.160156 C 229.589844 94.960938 227.886719 90.84375 225.851562 86.925781 C 224.933594 85.160156 225.265625 83.003906 226.675781 81.59375 L 233.246094 75.027344 C 238.777344 69.496094 238.777344 60.484375 233.246094 54.953125 L 224.703125 46.410156 C 219.171875 40.878906 210.160156 40.878906 204.632812 46.410156 L 198.0625 52.980469 C 196.652344 54.390625 194.496094 54.722656 192.730469 53.804688 C 188.804688 51.769531 184.6875 50.058594 180.496094 48.726562 C 178.601562 48.125 177.308594 46.363281 177.308594 44.375 L 177.308594 35.089844 C 177.308594 27.257812 170.9375 20.894531 163.117188 20.894531 L 151.03125 20.894531 C 143.203125 20.894531 136.839844 27.265625 136.839844 35.089844 L 136.839844 44.367188 C 136.839844 46.355469 135.550781 48.117188 133.65625 48.71875 C 129.464844 50.050781 125.34375 51.753906 121.421875 53.789062 C 119.652344 54.707031 117.5 54.375 116.085938 52.964844 L 109.519531 46.394531 C 103.988281 40.863281 94.976562 40.863281 89.445312 46.394531 L 80.90625 54.9375 C 75.375 60.46875 75.375 69.480469 80.90625 75.007812 L 87.472656 81.578125 C 88.882812 82.988281 89.21875 85.144531 88.296875 86.910156 C 86.253906 90.84375 84.550781 94.953125 83.21875 99.144531 C 82.617188 101.039062 80.855469 102.332031 78.867188 102.332031 L 69.574219 102.332031 C 61.746094 102.332031 55.382812 108.703125 55.382812 116.523438 L 55.382812 128.609375 C 55.382812 136.4375 61.753906 142.800781 69.574219 142.800781 L 78.851562 142.800781 C 80.839844 142.800781 82.601562 144.089844 83.203125 145.984375 C 84.535156 150.183594 86.238281 154.304688 88.273438 158.21875 C 89.195312 159.988281 88.859375 162.140625 87.449219 163.554688 L 80.882812 170.121094 C 75.351562 175.652344 75.351562 184.664062 80.882812 190.195312 L 89.421875 198.734375 C 94.953125 204.265625 103.964844 204.265625 109.496094 198.734375 L 116.0625 192.167969 C 116.953125 191.304688 118.125 190.84375 119.304688 190.84375 Z M 119.304688 190.84375 " fill-opacity="1" fill-rule="nonzero"/></g><path fill="#00bf63" d="M 150.035156 177.847656 C 149.828125 177.847656 149.621094 177.832031 149.417969 177.808594 C 122 174.042969 101.316406 150.304688 101.316406 122.585938 C 101.316406 91.847656 126.324219 66.832031 157.0625 66.832031 C 187.800781 66.832031 212.808594 91.839844 212.808594 122.585938 C 212.808594 127.546875 212.152344 132.484375 210.859375 137.246094 C 210.472656 138.6875 209.394531 139.84375 207.992188 140.34375 C 192.957031 145.714844 175.78125 148.171875 156.847656 147.664062 C 156.054688 152.53125 154.828125 161.785156 154.589844 173.378906 C 154.566406 174.679688 153.980469 175.90625 152.988281 176.753906 C 152.164062 177.460938 151.113281 177.847656 150.035156 177.847656 Z M 157.0625 75.953125 C 131.355469 75.953125 110.4375 96.863281 110.4375 122.578125 C 110.4375 144.035156 125.253906 162.640625 145.644531 167.785156 C 146.347656 152.5625 148.496094 142.460938 148.601562 141.984375 C 149.066406 139.804688 151.046875 138.273438 153.28125 138.386719 C 171.613281 139.265625 188.1875 137.292969 202.609375 132.53125 C 203.324219 129.273438 203.679688 125.929688 203.679688 122.578125 C 203.679688 96.871094 182.769531 75.953125 157.0625 75.953125 Z M 206.453125 136.039062 Z M 206.453125 136.039062 " fill-opacity="1" fill-rule="nonzero"/><g clipPath="url(#ef32068bf4)"><path fill="#00bf63" d="M 262.453125 363.214844 C 262.285156 363.214844 262.113281 363.207031 261.9375 363.183594 C 260.074219 362.96875 258.53125 361.636719 258.039062 359.832031 L 240.953125 296.066406 C 240.375 293.910156 241.4375 291.660156 243.464844 290.734375 C 266.035156 280.410156 282.871094 264.09375 293.53125 242.238281 C 294.363281 240.527344 296.175781 239.519531 298.070312 239.695312 C 299.964844 239.878906 301.550781 241.214844 302.042969 243.054688 L 328.285156 341.003906 C 328.769531 342.820312 328.09375 344.742188 326.589844 345.863281 C 325.078125 346.980469 323.039062 347.050781 321.453125 346.058594 L 286.042969 323.832031 L 266.484375 360.789062 C 265.695312 362.289062 264.132812 363.214844 262.453125 363.214844 Z M 250.765625 297.375 L 263.855469 346.242188 L 280.273438 315.210938 C 280.867188 314.085938 281.898438 313.261719 283.125 312.9375 C 284.355469 312.605469 285.664062 312.800781 286.730469 313.476562 L 316.460938 332.136719 L 296.160156 256.375 C 285.242188 274.09375 270.019531 287.839844 250.765625 297.375 Z M 250.765625 297.375 " fill-opacity="1" fill-rule="nonzero"/></g><g clipPath="url(#e18c248b50)"><path fill="#00bf63" d="M 199.148438 363.214844 C 197.46875 363.214844 195.914062 362.289062 195.113281 360.78125 L 175.558594 323.824219 L 140.144531 346.050781 C 138.550781 347.050781 136.515625 346.96875 135.011719 345.851562 C 133.496094 344.734375 132.824219 342.8125 133.3125 340.996094 L 159.558594 243.046875 C 160.050781 241.207031 161.636719 239.871094 163.527344 239.6875 C 165.429688 239.503906 167.238281 240.519531 168.070312 242.230469 C 178.726562 264.085938 195.566406 280.402344 218.132812 290.726562 C 220.160156 291.652344 221.214844 293.902344 220.644531 296.058594 L 203.5625 359.824219 C 203.078125 361.636719 201.53125 362.96875 199.664062 363.175781 C 199.488281 363.207031 199.3125 363.214844 199.148438 363.214844 Z M 177.292969 312.785156 C 177.6875 312.785156 178.085938 312.832031 178.472656 312.945312 C 179.703125 313.269531 180.730469 314.09375 181.328125 315.21875 L 197.746094 346.25 L 210.835938 297.382812 C 191.578125 287.847656 176.359375 274.101562 165.429688 256.390625 L 145.128906 332.152344 L 174.859375 313.492188 C 175.605469 313.023438 176.445312 312.785156 177.292969 312.785156 Z M 177.292969 312.785156 " fill-opacity="1" fill-rule="nonzero"/></g><path fill="#00bf63" d="M 219.035156 241.574219 C 217.871094 241.574219 216.699219 241.128906 215.8125 240.234375 L 191.4375 215.859375 C 189.65625 214.078125 189.65625 211.183594 191.4375 209.402344 C 193.21875 207.617188 196.113281 207.617188 197.894531 209.402344 L 219.042969 230.550781 L 263.71875 185.875 C 265.503906 184.09375 268.394531 184.09375 270.179688 185.875 C 271.960938 187.65625 271.960938 190.550781 270.179688 192.332031 L 222.269531 240.242188 C 221.375 241.128906 220.203125 241.574219 219.035156 241.574219 Z M 219.035156 241.574219 " fill-opacity="1" fill-rule="nonzero"/></svg>