<svg xmlns="http://www.w3.org/2000/svg" xmlns:xlink="http://www.w3.org/1999/xlink" width="500" zoomAndPan="magnify" viewBox="0 0 375 374.999991" height="500" preserveAspectRatio="xMidYMid meet" version="1.0"><defs><clipPath id="d20d0c10b7"><path d="M 13.457031 7.21875 L 361.457031 7.21875 L 361.457031 367.96875 L 13.457031 367.96875 Z M 13.457031 7.21875 " clip-rule="nonzero"/></clipPath><clipPath id="f102c47f7f"><path d="M 13.457031 81 L 89 81 L 89 367.96875 L 13.457031 367.96875 Z M 13.457031 81 " clip-rule="nonzero"/></clipPath><clipPath id="5991dba088"><path d="M 32 106 L 89 106 L 89 367.96875 L 32 367.96875 Z M 32 106 " clip-rule="nonzero"/></clipPath><clipPath id="8509368dbb"><path d="M 88 7.21875 L 337 7.21875 L 337 219 L 88 219 Z M 88 7.21875 " clip-rule="nonzero"/></clipPath><clipPath id="3c2298594c"><path d="M 38 187 L 361.457031 187 L 361.457031 367.96875 L 38 367.96875 Z M 38 187 " clip-rule="nonzero"/></clipPath><clipPath id="956d081899"><path d="M 305 7.21875 L 337 7.21875 L 337 39 L 305 39 Z M 305 7.21875 " clip-rule="nonzero"/></clipPath></defs><g clip-path="url(#d20d0c10b7)"><path fill="#3d348b" d="M 349.027344 187.59375 L 336.597656 187.59375 L 336.597656 38.335938 L 305.527344 7.238281 L 104.246094 7.238281 C 95.296875 7.238281 88.027344 14.515625 88.027344 23.472656 L 88.027344 81.871094 L 25.882812 81.871094 C 19.046875 81.871094 13.457031 87.464844 13.457031 94.308594 L 13.457031 343.074219 C 13.457031 356.820312 24.578125 367.953125 38.3125 367.953125 L 336.597656 367.953125 C 350.324219 367.953125 361.457031 356.8125 361.457031 343.074219 L 361.457031 200.035156 C 361.457031 193.160156 355.894531 187.59375 349.027344 187.59375 Z M 349.027344 187.59375 " fill-opacity="1" fill-rule="nonzero"/></g><g clip-path="url(#f102c47f7f)"><path fill="#3d348b" d="M 88.460938 218.691406 L 75.597656 218.691406 C 68.761719 218.691406 63.167969 224.289062 63.167969 231.128906 L 63.167969 352.402344 C 63.167969 360.988281 56.210938 367.953125 47.632812 367.953125 L 38.3125 367.953125 C 24.578125 367.953125 13.457031 356.820312 13.457031 343.074219 L 13.457031 94.308594 C 13.457031 87.464844 19.046875 81.871094 25.882812 81.871094 L 88.027344 81.871094 L 88.027344 214.898438 C 88.027344 216.203125 88.152344 217.449219 88.460938 218.691406 Z M 88.460938 218.691406 " fill-opacity="1" fill-rule="nonzero"/></g><g clip-path="url(#5991dba088)"><path fill="#ffffff" d="M 88.460938 218.691406 L 75.597656 218.691406 C 68.761719 218.691406 63.167969 224.289062 63.167969 231.128906 L 63.167969 352.402344 C 63.167969 360.738281 56.582031 367.578125 48.316406 367.953125 C 39.304688 367.578125 32.097656 360.117188 32.097656 351.035156 L 32.097656 119.183594 C 32.097656 112.34375 37.691406 106.746094 44.527344 106.746094 L 88.027344 106.746094 L 88.027344 214.898438 C 88.027344 216.203125 88.152344 217.449219 88.460938 218.691406 Z M 88.460938 218.691406 " fill-opacity="1" fill-rule="nonzero"/></g><g clip-path="url(#8509368dbb)"><path fill="#7678ed" d="M 336.597656 38.335938 L 336.597656 187.59375 L 230.957031 187.59375 L 206.097656 218.691406 L 88.460938 218.691406 C 88.152344 217.449219 88.027344 216.203125 88.027344 214.898438 L 88.027344 23.472656 C 88.027344 14.515625 95.296875 7.238281 104.246094 7.238281 L 305.527344 7.238281 Z M 336.597656 38.335938 " fill-opacity="1" fill-rule="nonzero"/></g><path fill="#ffffff" d="M 119.097656 88.492188 C 119.097656 64.226562 138.753906 44.554688 163.003906 44.554688 C 187.25 44.554688 206.90625 64.226562 206.90625 88.492188 C 206.90625 112.761719 187.25 132.429688 163.003906 132.429688 C 138.753906 132.425781 119.097656 112.753906 119.097656 88.492188 Z M 119.097656 88.492188 " fill-opacity="1" fill-rule="nonzero"/><path fill="#3d348b" d="M 143.507812 110.570312 L 143.507812 105.296875 C 143.507812 94.691406 152.101562 86.09375 162.699219 86.09375 C 173.292969 86.09375 181.886719 94.691406 181.886719 105.296875 L 181.886719 110.570312 Z M 143.507812 110.570312 " fill-opacity="1" fill-rule="nonzero"/><path fill="#3d348b" d="M 150.492188 73.851562 C 150.492188 67.09375 155.96875 61.613281 162.722656 61.613281 C 169.476562 61.613281 174.953125 67.09375 174.953125 73.851562 C 174.953125 80.613281 169.476562 86.09375 162.722656 86.09375 C 155.96875 86.09375 150.492188 80.613281 150.492188 73.851562 Z M 150.492188 73.851562 " fill-opacity="1" fill-rule="nonzero"/><g clip-path="url(#3c2298594c)"><path fill="#3d348b" d="M 63.167969 231.128906 L 63.167969 352.402344 C 63.167969 360.992188 56.214844 367.953125 47.632812 367.953125 L 38.3125 367.953125 L 336.597656 367.953125 C 350.324219 367.953125 361.457031 356.8125 361.457031 343.074219 L 361.457031 200.035156 C 361.457031 193.160156 355.894531 187.59375 349.027344 187.59375 L 230.957031 187.59375 L 206.097656 218.691406 L 75.597656 218.691406 C 68.730469 218.691406 63.167969 224.257812 63.167969 231.128906 Z M 63.167969 231.128906 " fill-opacity="1" fill-rule="nonzero"/></g><path fill="#ffffff" d="M 230.957031 56.992188 L 299.3125 56.992188 L 299.3125 75.648438 L 230.957031 75.648438 Z M 230.957031 56.992188 " fill-opacity="1" fill-rule="nonzero"/><path fill="#ffffff" d="M 299.3125 80.316406 L 230.957031 80.316406 C 228.382812 80.316406 226.292969 78.226562 226.292969 75.648438 L 226.292969 56.992188 C 226.292969 54.417969 228.382812 52.328125 230.957031 52.328125 L 299.3125 52.328125 C 301.886719 52.328125 303.972656 54.417969 303.972656 56.992188 L 303.972656 75.648438 C 303.972656 78.226562 301.886719 80.316406 299.3125 80.316406 Z M 235.617188 70.984375 L 294.652344 70.984375 L 294.652344 61.65625 L 235.617188 61.65625 Z M 235.617188 70.984375 " fill-opacity="1" fill-rule="nonzero"/><path fill="#ffffff" d="M 299.3125 105.191406 L 230.957031 105.191406 C 228.382812 105.191406 226.292969 103.101562 226.292969 100.527344 C 226.292969 97.953125 228.382812 95.863281 230.957031 95.863281 L 299.3125 95.863281 C 301.886719 95.863281 303.972656 97.953125 303.972656 100.527344 C 303.972656 103.101562 301.886719 105.191406 299.3125 105.191406 Z M 299.3125 105.191406 " fill-opacity="1" fill-rule="nonzero"/><path fill="#ffffff" d="M 262.027344 130.066406 L 230.957031 130.066406 C 228.382812 130.066406 226.292969 127.976562 226.292969 125.402344 C 226.292969 122.828125 228.382812 120.738281 230.957031 120.738281 L 262.027344 120.738281 C 264.597656 120.738281 266.6875 122.828125 266.6875 125.402344 C 266.6875 127.976562 264.597656 130.066406 262.027344 130.066406 Z M 262.027344 130.066406 " fill-opacity="1" fill-rule="nonzero"/><path fill="#ffffff" d="M 305.527344 161.164062 L 125.3125 161.164062 C 122.738281 161.164062 120.652344 159.074219 120.652344 156.5 C 120.652344 153.925781 122.738281 151.835938 125.3125 151.835938 L 305.527344 151.835938 C 308.097656 151.835938 310.1875 153.925781 310.1875 156.5 C 310.1875 159.074219 308.097656 161.164062 305.527344 161.164062 Z M 305.527344 161.164062 " fill-opacity="1" fill-rule="nonzero"/><path fill="#ffffff" d="M 199.882812 192.261719 L 125.3125 192.261719 C 122.738281 192.261719 120.652344 190.171875 120.652344 187.59375 C 120.652344 185.019531 122.738281 182.929688 125.3125 182.929688 L 199.882812 182.929688 C 202.457031 182.929688 204.542969 185.019531 204.542969 187.59375 C 204.542969 190.171875 202.457031 192.261719 199.882812 192.261719 Z M 199.882812 192.261719 " fill-opacity="1" fill-rule="nonzero"/><g clip-path="url(#956d081899)"><path fill="#3d348b" d="M 305.527344 38.335938 L 336.597656 38.335938 C 324.460938 26.1875 317.664062 19.386719 305.527344 7.238281 Z M 305.527344 38.335938 " fill-opacity="1" fill-rule="nonzero"/></g></svg>