<svg xmlns="http://www.w3.org/2000/svg" xmlns:xlink="http://www.w3.org/1999/xlink" width="500" zoomAndPan="magnify" viewBox="0 0 375 374.999991" height="500" preserveAspectRatio="xMidYMid meet" version="1.0"><defs><clipPath id="0982bd92d8"><path d="M 96 112 L 367.550781 112 L 367.550781 365.859375 L 96 365.859375 Z M 96 112 " clip-rule="nonzero"/></clipPath><clipPath id="a2f3874089"><path d="M 7.550781 43 L 212 43 L 212 202 L 7.550781 202 Z M 7.550781 43 " clip-rule="nonzero"/></clipPath><clipPath id="06b43a9ecc"><path d="M 7.550781 8.859375 L 212 8.859375 L 212 35 L 7.550781 35 Z M 7.550781 8.859375 " clip-rule="nonzero"/></clipPath></defs><g clipPath="url(#0982bd92d8)"><path fill="#5e17eb" d="M 349.417969 112.820312 L 225.53125 112.820312 L 225.53125 132.921875 L 347.351562 132.921875 L 347.351562 285.660156 L 116.164062 285.660156 L 116.164062 215.46875 L 96.058594 215.46875 L 96.058594 287.722656 C 96.058594 291.449219 97.191406 294.925781 99.144531 297.804688 C 100.761719 300.203125 102.949219 302.195312 105.496094 303.589844 C 108.054688 304.976562 110.980469 305.765625 114.085938 305.765625 L 222.691406 305.765625 L 222.691406 330.207031 C 209.113281 331.054688 197.375 333.765625 189.703125 337.5625 C 183.730469 340.519531 180.226562 344.132812 180.226562 348.035156 C 180.226562 358.03125 203.289062 366.140625 231.757812 366.140625 C 260.214844 366.140625 283.289062 358.03125 283.289062 348.035156 C 283.289062 343.019531 277.480469 338.480469 268.113281 335.203125 C 260.832031 332.65625 251.375 330.867188 240.8125 330.207031 L 240.8125 305.765625 L 349.417969 305.765625 C 355.625 305.765625 361.121094 302.605469 364.363281 297.804688 C 366.3125 294.925781 367.445312 291.449219 367.445312 287.722656 L 367.445312 130.84375 C 367.445312 120.917969 359.355469 112.820312 349.417969 112.820312 " fill-opacity="1" fill-rule="nonzero"/></g><path fill="#5e17eb" d="M 85.917969 96.277344 L 41.160156 122.121094 C 40.800781 122.335938 40.800781 122.863281 41.160156 123.074219 L 85.917969 148.917969 C 86.289062 149.132812 86.75 148.859375 86.75 148.441406 L 86.75 136.222656 C 86.75 136.015625 86.652344 135.839844 86.476562 135.734375 L 64.546875 123.074219 C 64.175781 122.863281 64.175781 122.335938 64.546875 122.121094 L 86.476562 109.460938 C 86.652344 109.355469 86.75 109.167969 86.75 108.972656 L 86.75 96.753906 C 86.75 96.335938 86.289062 96.0625 85.917969 96.277344 " fill-opacity="1" fill-rule="nonzero"/><path fill="#5e17eb" d="M 133.371094 148.917969 L 178.128906 123.074219 C 178.5 122.863281 178.5 122.335938 178.128906 122.121094 L 133.371094 96.277344 C 133 96.0625 132.539062 96.335938 132.539062 96.753906 L 132.539062 108.972656 C 132.539062 109.167969 132.648438 109.355469 132.8125 109.460938 L 154.753906 122.121094 C 155.125 122.335938 155.125 122.863281 154.753906 123.074219 L 132.8125 135.734375 C 132.648438 135.839844 132.539062 136.015625 132.539062 136.222656 L 132.539062 148.441406 C 132.539062 148.859375 133 149.132812 133.371094 148.917969 " fill-opacity="1" fill-rule="nonzero"/><path fill="#5e17eb" d="M 128.765625 86.546875 L 117.324219 86.253906 L 90.527344 158.648438 L 101.894531 159.148438 L 128.765625 86.546875 " fill-opacity="1" fill-rule="nonzero"/><g clipPath="url(#a2f3874089)"><path fill="#5e17eb" d="M 23.105469 59.277344 L 196.183594 59.277344 L 196.183594 186.125 L 23.105469 186.125 Z M 116.164062 201.691406 L 211.75 201.691406 L 211.75 43.71875 L 7.550781 43.71875 L 7.550781 201.691406 L 116.164062 201.691406 " fill-opacity="1" fill-rule="nonzero"/></g><g clipPath="url(#06b43a9ecc)"><path fill="#5e17eb" d="M 181.085938 26.808594 C 178.226562 26.808594 175.914062 24.484375 175.914062 21.625 C 175.914062 18.773438 178.226562 16.453125 181.085938 16.453125 C 183.945312 16.453125 186.257812 18.773438 186.257812 21.625 C 186.257812 24.484375 183.945312 26.808594 181.085938 26.808594 Z M 160.472656 26.808594 C 157.625 26.808594 155.300781 24.484375 155.300781 21.625 C 155.300781 18.773438 157.625 16.453125 160.472656 16.453125 C 163.332031 16.453125 165.644531 18.773438 165.644531 21.625 C 165.644531 24.484375 163.332031 26.808594 160.472656 26.808594 Z M 139.871094 26.808594 C 137.011719 26.808594 134.699219 24.484375 134.699219 21.625 C 134.699219 18.773438 137.011719 16.453125 139.871094 16.453125 C 142.730469 16.453125 145.042969 18.773438 145.042969 21.625 C 145.042969 24.484375 142.730469 26.808594 139.871094 26.808594 Z M 120.527344 26.476562 L 37.882812 26.476562 C 35.207031 26.476562 33.042969 24.308594 33.042969 21.625 C 33.042969 18.949219 35.207031 16.785156 37.882812 16.785156 L 120.527344 16.785156 C 123.199219 16.785156 125.367188 18.949219 125.367188 21.625 C 125.367188 24.308594 123.199219 26.476562 120.527344 26.476562 Z M 186.210938 8.859375 L 33.089844 8.859375 C 18.976562 8.859375 7.550781 20.296875 7.550781 34.398438 L 211.75 34.398438 C 211.75 20.296875 200.3125 8.859375 186.210938 8.859375 " fill-opacity="1" fill-rule="nonzero"/></g></svg>