<svg xmlns="http://www.w3.org/2000/svg" xmlns:xlink="http://www.w3.org/1999/xlink" width="500" zoomAndPan="magnify" viewBox="0 0 375 374.999991" height="500" preserveAspectRatio="xMidYMid meet" version="1.0"><defs><clipPath id="11c5b7df6d"><path d="M 15.613281 0 L 359.113281 0 L 359.113281 337.230469 L 15.613281 337.230469 Z M 15.613281 0 " clip-rule="nonzero"/></clipPath></defs><path fill="#004aad" d="M 307.820312 211.449219 L 103.929688 211.449219 L 70.246094 177.765625 C 68.277344 175.796875 67.179688 173.15625 67.179688 170.359375 C 67.179688 164.585938 71.878906 159.882812 77.652344 159.882812 C 80.40625 159.882812 83.113281 161.003906 85.0625 162.949219 L 110.644531 188.53125 L 150.460938 188.53125 C 154.441406 195.378906 161.851562 199.992188 170.3125 199.992188 L 221.875 199.992188 L 221.875 188.53125 L 170.3125 188.53125 C 164 188.53125 158.851562 183.382812 158.851562 177.074219 C 158.851562 170.761719 164 165.613281 170.3125 165.613281 L 220.957031 165.613281 L 255.335938 177.074219 L 307.820312 177.074219 Z M 222.792969 154.15625 L 170.3125 154.15625 C 157.664062 154.15625 147.394531 164.425781 147.394531 177.074219 L 115.386719 177.074219 L 93.164062 154.847656 C 89.023438 150.707031 83.519531 148.425781 77.652344 148.425781 C 65.570312 148.425781 55.722656 158.273438 55.722656 170.359375 C 55.722656 176.222656 58.003906 181.726562 62.144531 185.867188 L 99.183594 222.910156 L 319.277344 222.910156 L 319.277344 165.613281 L 257.171875 165.613281 L 222.792969 154.15625 " fill-opacity="1" fill-rule="nonzero"/><path fill="#004aad" d="M 202.496094 51.023438 L 172.503906 51.023438 C 176.53125 47.511719 181.726562 45.292969 187.5 45.292969 C 193.273438 45.292969 198.464844 47.511719 202.496094 51.023438 Z M 187.5 91.128906 C 174.855469 91.128906 164.582031 80.859375 164.582031 68.210938 C 164.582031 66.21875 164.917969 64.316406 165.386719 62.484375 L 209.613281 62.484375 C 210.082031 64.316406 210.417969 66.21875 210.417969 68.210938 C 210.417969 80.859375 200.144531 91.128906 187.5 91.128906 Z M 187.5 102.589844 C 206.457031 102.589844 221.875 87.167969 221.875 68.210938 C 221.875 49.257812 206.457031 33.835938 187.5 33.835938 C 168.542969 33.835938 153.121094 49.257812 153.121094 68.210938 C 153.121094 87.167969 168.542969 102.589844 187.5 102.589844 " fill-opacity="1" fill-rule="nonzero"/><g clipPath="url(#11c5b7df6d)"><path fill="#004aad" d="M 347.925781 62.484375 L 347.925781 234.367188 L 27.074219 234.367188 L 27.074219 62.484375 L 113.015625 62.484375 L 113.015625 85.402344 L 132.867188 85.402344 C 133.875 88.601562 135.171875 91.691406 136.738281 94.667969 L 122.683594 108.722656 L 146.988281 133.027344 L 161.046875 118.996094 C 164.023438 120.539062 167.109375 121.835938 170.3125 122.84375 L 170.3125 142.695312 L 204.6875 142.695312 L 204.6875 122.84375 C 207.886719 121.835938 210.976562 120.539062 213.953125 118.996094 L 228.007812 133.027344 L 252.3125 108.722656 L 238.257812 94.667969 C 239.824219 91.691406 241.125 88.601562 242.132812 85.402344 L 261.984375 85.402344 L 261.984375 62.484375 Z M 347.925781 268.746094 L 27.074219 268.746094 L 27.074219 245.828125 L 347.925781 245.828125 Z M 210.417969 297.390625 L 164.582031 297.390625 L 164.582031 280.203125 L 210.417969 280.203125 Z M 155.851562 326.039062 L 162.722656 308.851562 L 212.273438 308.851562 L 219.144531 326.039062 Z M 124.476562 62.484375 L 141.820312 62.484375 L 142.847656 58.027344 C 143.992188 52.992188 145.960938 48.226562 148.714844 43.863281 L 151.152344 39.992188 L 138.886719 27.703125 L 146.988281 19.601562 L 159.277344 31.867188 L 163.125 29.449219 C 167.535156 26.671875 172.300781 24.703125 177.316406 23.5625 L 181.769531 22.535156 L 181.769531 5.1875 L 193.230469 5.1875 L 193.230469 22.535156 L 197.683594 23.5625 C 202.695312 24.703125 207.464844 26.671875 211.871094 29.449219 L 215.722656 31.867188 L 228.007812 19.601562 L 236.109375 27.703125 L 223.847656 39.992188 L 226.285156 43.863281 C 229.039062 48.226562 231.007812 52.992188 232.148438 58.027344 L 233.179688 62.484375 L 250.523438 62.484375 L 250.523438 73.941406 L 233.179688 73.941406 L 232.148438 78.394531 C 231.007812 83.429688 229.039062 88.199219 226.285156 92.5625 L 223.847656 96.433594 L 236.109375 108.722656 L 228.007812 116.824219 L 215.722656 104.558594 L 211.871094 106.976562 C 207.464844 109.75 202.71875 111.722656 197.683594 112.863281 L 193.230469 113.890625 L 193.230469 131.238281 L 181.769531 131.238281 L 181.769531 113.890625 L 177.316406 112.863281 C 172.28125 111.722656 167.535156 109.75 163.125 106.976562 L 159.277344 104.558594 L 146.988281 116.824219 L 138.886719 108.722656 L 151.152344 96.433594 L 148.714844 92.5625 C 145.960938 88.199219 143.992188 83.429688 142.847656 78.394531 L 141.820312 73.941406 L 124.476562 73.941406 Z M 242.132812 51.023438 C 241.125 47.824219 239.824219 44.734375 238.257812 41.757812 L 252.3125 27.703125 L 228.007812 3.398438 L 213.953125 17.453125 C 210.976562 15.886719 207.886719 14.589844 204.6875 13.582031 L 204.6875 -6.269531 L 170.3125 -6.269531 L 170.3125 13.582031 C 167.109375 14.589844 164.023438 15.886719 161.046875 17.453125 L 146.988281 3.398438 L 122.683594 27.703125 L 136.738281 41.757812 C 135.171875 44.734375 133.875 47.824219 132.867188 51.023438 L 15.613281 51.023438 L 15.613281 280.203125 L 153.121094 280.203125 L 153.121094 302.023438 L 138.933594 337.5 L 236.066406 337.5 L 221.875 302.023438 L 221.875 280.203125 L 359.382812 280.203125 L 359.382812 51.023438 L 242.132812 51.023438 " fill-opacity="1" fill-rule="nonzero"/></g></svg>