<svg xmlns="http://www.w3.org/2000/svg" xmlns:xlink="http://www.w3.org/1999/xlink" width="500" zoomAndPan="magnify" viewBox="0 0 375 374.999991" height="500" preserveAspectRatio="xMidYMid meet" version="1.0"><defs><clipPath id="1971eefb6e"><path d="M 7.460938 58.546875 L 367.460938 58.546875 L 367.460938 316.546875 L 7.460938 316.546875 Z M 7.460938 58.546875 " clip-rule="nonzero"/></clipPath></defs><g clipPath="url(#1971eefb6e)"><path fill="#000000" d="M 361.363281 280.546875 L 355.367188 280.546875 L 355.367188 64.546875 C 355.367188 64.152344 355.328125 63.761719 355.25 63.375 C 355.171875 62.988281 355.058594 62.613281 354.910156 62.25 C 354.757812 61.886719 354.574219 61.539062 354.355469 61.210938 C 354.136719 60.886719 353.886719 60.582031 353.609375 60.304688 C 353.332031 60.023438 353.027344 59.777344 352.699219 59.558594 C 352.371094 59.339844 352.027344 59.152344 351.664062 59.003906 C 351.300781 58.851562 350.925781 58.738281 350.539062 58.660156 C 350.152344 58.585938 349.761719 58.546875 349.367188 58.546875 L 25.550781 58.546875 C 25.15625 58.546875 24.765625 58.585938 24.378906 58.660156 C 23.992188 58.738281 23.617188 58.851562 23.253906 59.003906 C 22.890625 59.152344 22.546875 59.339844 22.21875 59.558594 C 21.890625 59.777344 21.585938 60.023438 21.308594 60.304688 C 21.03125 60.582031 20.78125 60.886719 20.5625 61.210938 C 20.34375 61.539062 20.160156 61.886719 20.007812 62.25 C 19.859375 62.613281 19.746094 62.988281 19.667969 63.375 C 19.589844 63.761719 19.554688 64.152344 19.554688 64.546875 L 19.554688 280.546875 L 13.554688 280.546875 C 13.164062 280.546875 12.773438 280.585938 12.386719 280.660156 C 12 280.738281 11.625 280.851562 11.261719 281.003906 C 10.898438 281.152344 10.550781 281.339844 10.226562 281.558594 C 9.898438 281.777344 9.59375 282.023438 9.316406 282.304688 C 9.039062 282.582031 8.789062 282.882812 8.570312 283.210938 C 8.351562 283.539062 8.167969 283.886719 8.015625 284.25 C 7.867188 284.613281 7.75 284.988281 7.675781 285.375 C 7.597656 285.761719 7.558594 286.152344 7.558594 286.546875 L 7.558594 298.546875 C 7.558594 299.136719 7.589844 299.722656 7.644531 300.308594 C 7.703125 300.898438 7.789062 301.480469 7.90625 302.058594 C 8.019531 302.636719 8.164062 303.207031 8.335938 303.769531 C 8.503906 304.335938 8.703125 304.890625 8.929688 305.433594 C 9.15625 305.980469 9.40625 306.511719 9.683594 307.03125 C 9.960938 307.550781 10.265625 308.054688 10.589844 308.546875 C 10.917969 309.035156 11.269531 309.507812 11.644531 309.964844 C 12.015625 310.421875 12.414062 310.855469 12.828125 311.273438 C 13.246094 311.691406 13.679688 312.085938 14.136719 312.460938 C 14.59375 312.832031 15.066406 313.183594 15.554688 313.511719 C 16.042969 313.839844 16.550781 314.140625 17.070312 314.421875 C 17.589844 314.699219 18.121094 314.949219 18.664062 315.175781 C 19.210938 315.402344 19.761719 315.597656 20.328125 315.769531 C 20.890625 315.941406 21.460938 316.085938 22.039062 316.199219 C 22.617188 316.316406 23.199219 316.402344 23.785156 316.460938 C 24.371094 316.515625 24.960938 316.546875 25.550781 316.546875 L 349.367188 316.546875 C 349.957031 316.546875 350.546875 316.515625 351.132812 316.460938 C 351.71875 316.402344 352.300781 316.316406 352.878906 316.199219 C 353.457031 316.085938 354.027344 315.941406 354.589844 315.769531 C 355.15625 315.597656 355.707031 315.402344 356.253906 315.175781 C 356.796875 314.949219 357.328125 314.699219 357.847656 314.421875 C 358.367188 314.140625 358.875 313.839844 359.363281 313.511719 C 359.851562 313.183594 360.324219 312.832031 360.78125 312.460938 C 361.238281 312.085938 361.671875 311.691406 362.089844 311.273438 C 362.507812 310.855469 362.902344 310.421875 363.273438 309.964844 C 363.648438 309.507812 364 309.035156 364.328125 308.546875 C 364.652344 308.054688 364.957031 307.550781 365.234375 307.03125 C 365.511719 306.511719 365.765625 305.980469 365.988281 305.433594 C 366.214844 304.890625 366.414062 304.335938 366.585938 303.769531 C 366.753906 303.207031 366.898438 302.636719 367.011719 302.058594 C 367.128906 301.480469 367.214844 300.898438 367.273438 300.308594 C 367.328125 299.722656 367.359375 299.136719 367.359375 298.546875 L 367.359375 286.546875 C 367.359375 286.152344 367.320312 285.761719 367.242188 285.375 C 367.167969 284.988281 367.054688 284.613281 366.902344 284.25 C 366.75 283.886719 366.566406 283.539062 366.347656 283.210938 C 366.128906 282.882812 365.878906 282.582031 365.601562 282.304688 C 365.324219 282.023438 365.019531 281.777344 364.695312 281.558594 C 364.367188 281.339844 364.019531 281.152344 363.65625 281.003906 C 363.292969 280.851562 362.917969 280.738281 362.53125 280.660156 C 362.144531 280.585938 361.753906 280.546875 361.363281 280.546875 Z M 31.546875 70.546875 L 343.371094 70.546875 L 343.371094 280.546875 L 337.375 280.546875 L 337.375 100.546875 C 337.375 100.152344 337.335938 99.761719 337.261719 99.375 C 337.183594 98.988281 337.070312 98.613281 336.917969 98.25 C 336.769531 97.886719 336.582031 97.539062 336.363281 97.210938 C 336.144531 96.886719 335.898438 96.582031 335.617188 96.304688 C 335.339844 96.023438 335.039062 95.777344 334.710938 95.558594 C 334.382812 95.339844 334.039062 95.152344 333.671875 95.003906 C 333.308594 94.851562 332.933594 94.738281 332.546875 94.660156 C 332.164062 94.585938 331.773438 94.546875 331.378906 94.546875 L 43.539062 94.546875 C 43.144531 94.546875 42.757812 94.585938 42.371094 94.660156 C 41.984375 94.738281 41.609375 94.851562 41.246094 95.003906 C 40.882812 95.152344 40.535156 95.339844 40.207031 95.558594 C 39.878906 95.777344 39.578125 96.023438 39.300781 96.304688 C 39.019531 96.582031 38.773438 96.886719 38.554688 97.210938 C 38.335938 97.539062 38.148438 97.886719 38 98.25 C 37.847656 98.613281 37.734375 98.988281 37.660156 99.375 C 37.582031 99.761719 37.542969 100.152344 37.542969 100.546875 L 37.542969 280.546875 L 31.546875 280.546875 Z M 49.535156 118.546875 L 49.535156 106.546875 L 325.382812 106.546875 L 325.382812 118.546875 Z M 325.382812 130.546875 L 325.382812 280.546875 L 49.535156 280.546875 L 49.535156 130.546875 Z M 355.367188 298.546875 C 355.367188 298.941406 355.328125 299.328125 355.25 299.714844 C 355.171875 300.101562 355.058594 300.476562 354.910156 300.839844 C 354.757812 301.207031 354.574219 301.550781 354.355469 301.878906 C 354.136719 302.207031 353.886719 302.507812 353.609375 302.789062 C 353.332031 303.066406 353.027344 303.316406 352.699219 303.535156 C 352.371094 303.753906 352.027344 303.9375 351.664062 304.089844 C 351.300781 304.238281 350.925781 304.355469 350.539062 304.429688 C 350.152344 304.507812 349.761719 304.546875 349.367188 304.546875 L 25.550781 304.546875 C 25.15625 304.546875 24.765625 304.507812 24.378906 304.429688 C 23.992188 304.355469 23.617188 304.238281 23.253906 304.089844 C 22.890625 303.9375 22.546875 303.753906 22.21875 303.535156 C 21.890625 303.316406 21.585938 303.066406 21.308594 302.789062 C 21.03125 302.507812 20.78125 302.207031 20.5625 301.878906 C 20.34375 301.550781 20.160156 301.207031 20.007812 300.839844 C 19.859375 300.476562 19.746094 300.101562 19.667969 299.714844 C 19.589844 299.328125 19.554688 298.941406 19.554688 298.546875 L 19.554688 292.546875 L 355.367188 292.546875 Z M 355.367188 298.546875 " fill-opacity="1" fill-rule="nonzero"/></g><path fill="#000000" d="M 181.460938 76.546875 L 193.457031 76.546875 L 193.457031 88.546875 L 181.460938 88.546875 Z M 181.460938 76.546875 " fill-opacity="1" fill-rule="nonzero"/><path fill="#000000" d="M 183.21875 218.789062 C 183.496094 219.066406 183.800781 219.316406 184.128906 219.535156 C 184.457031 219.753906 184.800781 219.9375 185.164062 220.089844 C 185.527344 220.238281 185.902344 220.351562 186.289062 220.429688 C 186.675781 220.507812 187.066406 220.542969 187.460938 220.542969 C 187.851562 220.542969 188.242188 220.507812 188.628906 220.429688 C 189.015625 220.351562 189.390625 220.238281 189.753906 220.089844 C 190.117188 219.9375 190.460938 219.753906 190.789062 219.535156 C 191.117188 219.316406 191.421875 219.066406 191.699219 218.789062 L 223.78125 186.6875 C 225.632812 184.84375 227.285156 182.835938 228.742188 180.664062 C 230.195312 178.492188 231.421875 176.199219 232.421875 173.785156 C 233.421875 171.371094 234.175781 168.878906 234.683594 166.316406 C 235.191406 163.75 235.4375 161.160156 235.433594 158.546875 C 235.433594 157.402344 235.34375 156.261719 235.164062 155.128906 C 234.984375 153.996094 234.71875 152.882812 234.367188 151.789062 C 234.015625 150.699219 233.578125 149.640625 233.0625 148.617188 C 232.542969 147.59375 231.949219 146.617188 231.28125 145.6875 C 230.609375 144.757812 229.871094 143.882812 229.0625 143.070312 C 228.257812 142.253906 227.390625 141.507812 226.46875 140.828125 C 225.542969 140.148438 224.574219 139.542969 223.554688 139.015625 C 222.535156 138.488281 221.484375 138.042969 220.394531 137.679688 C 219.308594 137.316406 218.199219 137.042969 217.070312 136.851562 C 215.9375 136.664062 214.800781 136.5625 213.652344 136.554688 C 212.507812 136.542969 211.367188 136.621094 210.230469 136.789062 C 209.097656 136.953125 207.984375 137.210938 206.890625 137.550781 C 205.792969 137.894531 204.734375 138.320312 203.707031 138.828125 C 202.675781 139.335938 201.695312 139.917969 200.757812 140.582031 C 199.820312 141.242188 198.941406 141.972656 198.121094 142.773438 C 197.296875 143.570312 196.542969 144.429688 195.855469 145.347656 L 187.460938 156.542969 L 179.0625 145.355469 C 178.375 144.4375 177.621094 143.578125 176.796875 142.777344 C 175.976562 141.980469 175.097656 141.25 174.160156 140.585938 C 173.222656 139.925781 172.242188 139.339844 171.214844 138.832031 C 170.183594 138.324219 169.125 137.898438 168.03125 137.558594 C 166.933594 137.214844 165.820312 136.960938 164.6875 136.792969 C 163.550781 136.625 162.410156 136.546875 161.265625 136.558594 C 160.117188 136.570312 158.980469 136.667969 157.851562 136.859375 C 156.71875 137.046875 155.609375 137.324219 154.523438 137.6875 C 153.433594 138.050781 152.382812 138.496094 151.363281 139.023438 C 150.34375 139.550781 149.375 140.152344 148.449219 140.832031 C 147.527344 141.511719 146.660156 142.257812 145.855469 143.074219 C 145.046875 143.890625 144.308594 144.761719 143.636719 145.691406 C 142.96875 146.625 142.375 147.601562 141.855469 148.625 C 141.339844 149.648438 140.902344 150.703125 140.550781 151.796875 C 140.199219 152.886719 139.933594 154 139.753906 155.132812 C 139.574219 156.265625 139.484375 157.40625 139.484375 158.554688 C 139.480469 161.167969 139.730469 163.757812 140.234375 166.320312 C 140.742188 168.886719 141.496094 171.375 142.496094 173.792969 C 143.496094 176.207031 144.722656 178.5 146.175781 180.671875 C 147.632812 182.84375 149.285156 184.851562 151.136719 186.695312 Z M 161.476562 148.546875 C 162.25 148.546875 163.015625 148.636719 163.769531 148.816406 C 164.523438 148.996094 165.25 149.257812 165.941406 149.605469 C 166.636719 149.953125 167.28125 150.375 167.875 150.871094 C 168.472656 151.371094 169.003906 151.925781 169.46875 152.546875 L 182.660156 170.144531 C 182.953125 170.5 183.28125 170.816406 183.640625 171.101562 C 184.003906 171.382812 184.390625 171.621094 184.804688 171.816406 C 185.222656 172.011719 185.652344 172.160156 186.101562 172.261719 C 186.546875 172.363281 187 172.414062 187.460938 172.414062 C 187.917969 172.414062 188.371094 172.363281 188.820312 172.261719 C 189.265625 172.160156 189.695312 172.011719 190.113281 171.816406 C 190.527344 171.621094 190.914062 171.382812 191.277344 171.101562 C 191.636719 170.816406 191.964844 170.5 192.257812 170.144531 L 205.449219 152.546875 C 206.078125 151.707031 206.820312 150.984375 207.675781 150.375 C 208.535156 149.769531 209.460938 149.308594 210.464844 148.996094 C 211.464844 148.683594 212.492188 148.53125 213.539062 148.539062 C 214.589844 148.550781 215.613281 148.71875 216.609375 149.054688 C 217.601562 149.382812 218.523438 149.863281 219.371094 150.484375 C 220.214844 151.105469 220.945312 151.84375 221.558594 152.695312 C 222.171875 153.546875 222.636719 154.472656 222.957031 155.472656 C 223.28125 156.472656 223.441406 157.496094 223.4375 158.546875 C 223.445312 160.375 223.269531 162.183594 222.914062 163.972656 C 222.5625 165.765625 222.035156 167.503906 221.335938 169.191406 C 220.640625 170.878906 219.78125 172.480469 218.765625 173.996094 C 217.75 175.511719 216.59375 176.914062 215.300781 178.203125 L 187.460938 206.0625 L 159.617188 178.203125 C 158.324219 176.914062 157.167969 175.511719 156.152344 173.996094 C 155.136719 172.480469 154.28125 170.878906 153.582031 169.191406 C 152.882812 167.503906 152.355469 165.765625 152.003906 163.972656 C 151.648438 162.183594 151.476562 160.375 151.480469 158.546875 C 151.480469 157.890625 151.542969 157.242188 151.671875 156.597656 C 151.800781 155.953125 151.992188 155.328125 152.242188 154.722656 C 152.496094 154.117188 152.804688 153.539062 153.167969 152.992188 C 153.53125 152.449219 153.945312 151.941406 154.410156 151.480469 C 154.875 151.015625 155.378906 150.601562 155.925781 150.234375 C 156.46875 149.871094 157.046875 149.5625 157.652344 149.308594 C 158.257812 149.058594 158.882812 148.867188 159.527344 148.738281 C 160.167969 148.609375 160.820312 148.546875 161.476562 148.546875 Z M 161.476562 148.546875 " fill-opacity="1" fill-rule="nonzero"/><path fill="#000000" d="M 69.542969 253.546875 L 82.164062 261.945312 C 84.347656 263.410156 86.628906 264.707031 89.007812 265.832031 C 91.382812 266.960938 93.828125 267.90625 96.34375 268.671875 C 98.863281 269.4375 101.421875 270.015625 104.023438 270.402344 C 106.621094 270.789062 109.238281 270.980469 111.867188 270.980469 C 114.5 270.980469 117.113281 270.789062 119.714844 270.402344 C 122.316406 270.015625 124.875 269.4375 127.390625 268.671875 C 129.90625 267.90625 132.355469 266.960938 134.730469 265.832031 C 137.105469 264.707031 139.386719 263.410156 141.574219 261.945312 L 154.195312 253.546875 C 154.808594 253.136719 155.394531 252.691406 155.953125 252.210938 C 156.511719 251.726562 157.039062 251.214844 157.535156 250.667969 C 158.03125 250.121094 158.492188 249.546875 158.917969 248.941406 C 159.34375 248.339844 159.730469 247.714844 160.078125 247.0625 C 160.425781 246.410156 160.730469 245.742188 160.996094 245.054688 C 161.261719 244.367188 161.484375 243.664062 161.664062 242.949219 C 161.84375 242.230469 161.980469 241.507812 162.070312 240.773438 C 162.160156 240.042969 162.207031 239.308594 162.207031 238.570312 C 162.207031 237.832031 162.160156 237.097656 162.070312 236.363281 C 161.980469 235.632812 161.84375 234.90625 161.664062 234.191406 C 161.484375 233.476562 161.261719 232.773438 160.996094 232.085938 C 160.730469 231.398438 160.425781 230.726562 160.078125 230.078125 C 159.730469 229.425781 159.34375 228.800781 158.917969 228.195312 C 158.492188 227.59375 158.03125 227.019531 157.535156 226.472656 C 157.039062 225.925781 156.511719 225.410156 155.953125 224.929688 C 155.394531 224.449219 154.808594 224.003906 154.195312 223.59375 L 141.574219 215.195312 C 139.386719 213.730469 137.105469 212.433594 134.730469 211.304688 C 132.355469 210.179688 129.90625 209.234375 127.390625 208.46875 C 124.875 207.703125 122.316406 207.125 119.714844 206.738281 C 117.113281 206.351562 114.5 206.160156 111.867188 206.160156 C 109.238281 206.160156 106.621094 206.351562 104.019531 206.738281 C 101.421875 207.125 98.863281 207.703125 96.34375 208.46875 C 93.828125 209.234375 91.382812 210.179688 89.007812 211.304688 C 86.628906 212.433594 84.347656 213.730469 82.164062 215.195312 L 69.542969 223.59375 C 68.925781 224.003906 68.339844 224.449219 67.78125 224.929688 C 67.222656 225.410156 66.695312 225.925781 66.199219 226.472656 C 65.703125 227.019531 65.246094 227.59375 64.820312 228.195312 C 64.394531 228.800781 64.007812 229.425781 63.660156 230.078125 C 63.3125 230.726562 63.003906 231.398438 62.738281 232.085938 C 62.472656 232.773438 62.25 233.476562 62.070312 234.191406 C 61.890625 234.90625 61.757812 235.632812 61.667969 236.363281 C 61.578125 237.097656 61.53125 237.832031 61.53125 238.570312 C 61.53125 239.308594 61.578125 240.042969 61.667969 240.773438 C 61.757812 241.507812 61.890625 242.230469 62.070312 242.949219 C 62.25 243.664062 62.472656 244.367188 62.738281 245.054688 C 63.003906 245.742188 63.3125 246.410156 63.660156 247.0625 C 64.007812 247.714844 64.394531 248.339844 64.820312 248.941406 C 65.246094 249.546875 65.703125 250.121094 66.199219 250.667969 C 66.695312 251.214844 67.222656 251.726562 67.78125 252.210938 C 68.339844 252.691406 68.925781 253.136719 69.542969 253.546875 Z M 76.191406 233.578125 L 88.820312 225.179688 C 90.515625 224.042969 92.285156 223.035156 94.128906 222.160156 C 95.972656 221.289062 97.871094 220.554688 99.824219 219.960938 C 101.777344 219.367188 103.761719 218.917969 105.78125 218.617188 C 107.796875 218.320312 109.828125 218.167969 111.867188 218.167969 C 113.910156 218.167969 115.9375 218.320312 117.957031 218.617188 C 119.976562 218.917969 121.960938 219.367188 123.914062 219.960938 C 125.867188 220.554688 127.761719 221.289062 129.609375 222.160156 C 131.453125 223.035156 133.222656 224.042969 134.917969 225.179688 L 147.546875 233.578125 C 147.75 233.714844 147.945312 233.863281 148.132812 234.023438 C 148.316406 234.183594 148.492188 234.355469 148.660156 234.539062 C 148.824219 234.71875 148.976562 234.910156 149.121094 235.113281 C 149.261719 235.3125 149.390625 235.523438 149.507812 235.738281 C 149.621094 235.957031 149.722656 236.179688 149.8125 236.410156 C 149.902344 236.636719 149.976562 236.871094 150.035156 237.109375 C 150.09375 237.347656 150.140625 237.589844 150.171875 237.835938 C 150.199219 238.078125 150.214844 238.324219 150.214844 238.570312 C 150.214844 238.816406 150.199219 239.0625 150.171875 239.304688 C 150.140625 239.550781 150.09375 239.789062 150.035156 240.027344 C 149.976562 240.269531 149.902344 240.5 149.8125 240.730469 C 149.722656 240.960938 149.621094 241.183594 149.507812 241.402344 C 149.390625 241.617188 149.261719 241.828125 149.121094 242.027344 C 148.976562 242.230469 148.824219 242.421875 148.660156 242.601562 C 148.492188 242.785156 148.316406 242.957031 148.132812 243.117188 C 147.945312 243.277344 147.75 243.425781 147.546875 243.5625 L 134.917969 251.960938 C 133.222656 253.097656 131.453125 254.101562 129.609375 254.976562 C 127.761719 255.851562 125.867188 256.585938 123.914062 257.179688 C 121.960938 257.773438 119.976562 258.21875 117.957031 258.519531 C 115.9375 258.820312 113.910156 258.972656 111.867188 258.972656 C 109.828125 258.972656 107.796875 258.820312 105.78125 258.519531 C 103.761719 258.21875 101.777344 257.773438 99.824219 257.179688 C 97.871094 256.585938 95.972656 255.851562 94.128906 254.976562 C 92.285156 254.101562 90.515625 253.097656 88.820312 251.960938 L 76.191406 243.5625 C 75.988281 243.425781 75.792969 243.277344 75.605469 243.117188 C 75.417969 242.957031 75.242188 242.785156 75.078125 242.601562 C 74.914062 242.421875 74.757812 242.230469 74.617188 242.027344 C 74.476562 241.828125 74.347656 241.617188 74.230469 241.402344 C 74.113281 241.183594 74.011719 240.960938 73.925781 240.730469 C 73.835938 240.5 73.761719 240.269531 73.703125 240.027344 C 73.640625 239.789062 73.597656 239.550781 73.566406 239.304688 C 73.535156 239.0625 73.523438 238.816406 73.523438 238.570312 C 73.523438 238.324219 73.535156 238.078125 73.566406 237.835938 C 73.597656 237.589844 73.640625 237.347656 73.703125 237.109375 C 73.761719 236.871094 73.835938 236.636719 73.925781 236.410156 C 74.011719 236.179688 74.113281 235.957031 74.230469 235.738281 C 74.347656 235.523438 74.476562 235.3125 74.617188 235.113281 C 74.757812 234.910156 74.914062 234.71875 75.078125 234.539062 C 75.242188 234.355469 75.417969 234.183594 75.605469 234.023438 C 75.792969 233.863281 75.988281 233.714844 76.191406 233.578125 Z M 76.191406 233.578125 " fill-opacity="1" fill-rule="nonzero"/><path fill="#000000" d="M 111.902344 256.546875 C 112.492188 256.546875 113.078125 256.515625 113.664062 256.460938 C 114.25 256.402344 114.832031 256.316406 115.410156 256.199219 C 115.988281 256.085938 116.558594 255.941406 117.125 255.769531 C 117.6875 255.597656 118.242188 255.402344 118.785156 255.175781 C 119.332031 254.949219 119.863281 254.699219 120.382812 254.421875 C 120.902344 254.140625 121.40625 253.839844 121.894531 253.511719 C 122.386719 253.183594 122.859375 252.832031 123.3125 252.460938 C 123.769531 252.085938 124.207031 251.691406 124.621094 251.273438 C 125.039062 250.855469 125.433594 250.421875 125.808594 249.964844 C 126.179688 249.507812 126.53125 249.035156 126.859375 248.546875 C 127.1875 248.054688 127.488281 247.550781 127.765625 247.03125 C 128.042969 246.511719 128.296875 245.980469 128.523438 245.433594 C 128.746094 244.890625 128.945312 244.335938 129.117188 243.769531 C 129.289062 243.207031 129.429688 242.636719 129.546875 242.058594 C 129.660156 241.480469 129.746094 240.898438 129.804688 240.308594 C 129.863281 239.722656 129.890625 239.136719 129.890625 238.546875 C 129.890625 237.957031 129.863281 237.367188 129.804688 236.78125 C 129.746094 236.195312 129.660156 235.613281 129.546875 235.035156 C 129.429688 234.457031 129.289062 233.882812 129.117188 233.320312 C 128.945312 232.757812 128.746094 232.203125 128.523438 231.65625 C 128.296875 231.113281 128.042969 230.582031 127.765625 230.0625 C 127.488281 229.539062 127.1875 229.035156 126.859375 228.546875 C 126.53125 228.054688 126.179688 227.582031 125.808594 227.125 C 125.433594 226.671875 125.039062 226.234375 124.621094 225.816406 C 124.207031 225.402344 123.769531 225.003906 123.3125 224.632812 C 122.859375 224.257812 122.386719 223.90625 121.894531 223.578125 C 121.40625 223.25 120.902344 222.949219 120.382812 222.671875 C 119.863281 222.394531 119.332031 222.140625 118.785156 221.914062 C 118.242188 221.691406 117.6875 221.492188 117.125 221.320312 C 116.558594 221.148438 115.988281 221.007812 115.410156 220.890625 C 114.832031 220.777344 114.25 220.691406 113.664062 220.632812 C 113.078125 220.574219 112.492188 220.546875 111.902344 220.546875 C 111.3125 220.546875 110.722656 220.574219 110.136719 220.632812 C 109.550781 220.691406 108.96875 220.777344 108.390625 220.890625 C 107.8125 221.007812 107.242188 221.148438 106.679688 221.320312 C 106.117188 221.492188 105.5625 221.691406 105.015625 221.914062 C 104.472656 222.140625 103.941406 222.394531 103.421875 222.671875 C 102.902344 222.949219 102.398438 223.25 101.90625 223.578125 C 101.417969 223.90625 100.945312 224.257812 100.488281 224.632812 C 100.035156 225.003906 99.597656 225.402344 99.179688 225.816406 C 98.765625 226.234375 98.367188 226.671875 97.996094 227.125 C 97.621094 227.582031 97.269531 228.054688 96.941406 228.546875 C 96.617188 229.035156 96.3125 229.539062 96.035156 230.0625 C 95.757812 230.582031 95.507812 231.113281 95.28125 231.65625 C 95.054688 232.203125 94.855469 232.757812 94.6875 233.320312 C 94.515625 233.882812 94.371094 234.457031 94.257812 235.035156 C 94.140625 235.613281 94.054688 236.195312 94 236.78125 C 93.941406 237.367188 93.910156 237.957031 93.910156 238.546875 C 93.910156 239.136719 93.941406 239.722656 94 240.308594 C 94.054688 240.898438 94.140625 241.480469 94.257812 242.058594 C 94.371094 242.636719 94.515625 243.207031 94.6875 243.769531 C 94.855469 244.335938 95.054688 244.890625 95.28125 245.433594 C 95.507812 245.980469 95.757812 246.511719 96.035156 247.03125 C 96.3125 247.550781 96.617188 248.054688 96.941406 248.546875 C 97.269531 249.035156 97.621094 249.507812 97.996094 249.964844 C 98.367188 250.421875 98.765625 250.855469 99.179688 251.273438 C 99.597656 251.691406 100.035156 252.085938 100.488281 252.460938 C 100.945312 252.832031 101.417969 253.183594 101.90625 253.511719 C 102.398438 253.839844 102.902344 254.140625 103.421875 254.421875 C 103.941406 254.699219 104.472656 254.949219 105.015625 255.175781 C 105.5625 255.402344 106.117188 255.597656 106.679688 255.769531 C 107.242188 255.941406 107.8125 256.085938 108.390625 256.199219 C 108.96875 256.316406 109.550781 256.402344 110.136719 256.460938 C 110.722656 256.515625 111.3125 256.546875 111.902344 256.546875 Z M 111.902344 232.546875 C 112.296875 232.546875 112.683594 232.585938 113.070312 232.660156 C 113.457031 232.738281 113.832031 232.851562 114.195312 233.003906 C 114.558594 233.152344 114.90625 233.339844 115.234375 233.558594 C 115.558594 233.777344 115.863281 234.023438 116.140625 234.304688 C 116.421875 234.582031 116.667969 234.882812 116.886719 235.210938 C 117.105469 235.539062 117.289062 235.886719 117.441406 236.25 C 117.59375 236.613281 117.707031 236.988281 117.78125 237.375 C 117.859375 237.761719 117.898438 238.152344 117.898438 238.546875 C 117.898438 238.941406 117.859375 239.328125 117.78125 239.714844 C 117.707031 240.101562 117.59375 240.476562 117.441406 240.84375 C 117.289062 241.207031 117.105469 241.550781 116.886719 241.878906 C 116.667969 242.207031 116.421875 242.511719 116.140625 242.789062 C 115.863281 243.066406 115.558594 243.316406 115.234375 243.535156 C 114.90625 243.753906 114.558594 243.9375 114.195312 244.089844 C 113.832031 244.238281 113.457031 244.355469 113.070312 244.429688 C 112.683594 244.507812 112.296875 244.546875 111.902344 244.546875 C 111.507812 244.546875 111.117188 244.507812 110.730469 244.429688 C 110.34375 244.355469 109.96875 244.238281 109.605469 244.089844 C 109.242188 243.9375 108.898438 243.753906 108.570312 243.535156 C 108.242188 243.316406 107.941406 243.066406 107.660156 242.789062 C 107.382812 242.511719 107.132812 242.207031 106.914062 241.878906 C 106.695312 241.550781 106.511719 241.207031 106.359375 240.84375 C 106.210938 240.476562 106.097656 240.101562 106.019531 239.714844 C 105.941406 239.328125 105.90625 238.941406 105.90625 238.546875 C 105.90625 238.152344 105.941406 237.761719 106.019531 237.375 C 106.097656 236.988281 106.210938 236.613281 106.359375 236.25 C 106.511719 235.886719 106.695312 235.539062 106.914062 235.210938 C 107.132812 234.882812 107.382812 234.582031 107.660156 234.304688 C 107.941406 234.023438 108.242188 233.777344 108.570312 233.558594 C 108.898438 233.339844 109.242188 233.152344 109.605469 233.003906 C 109.96875 232.851562 110.34375 232.738281 110.730469 232.660156 C 111.117188 232.585938 111.507812 232.546875 111.902344 232.546875 Z M 111.902344 232.546875 " fill-opacity="1" fill-rule="nonzero"/><path fill="#000000" d="M 231.078125 210.375 C 231.121094 211.035156 231.265625 211.671875 231.515625 212.28125 C 231.765625 212.890625 232.109375 213.445312 232.542969 213.945312 C 232.976562 214.441406 233.480469 214.859375 234.050781 215.191406 C 234.621094 215.523438 235.230469 215.753906 235.875 215.882812 L 274.355469 223.582031 L 282.054688 262.089844 C 282.1875 262.738281 282.417969 263.347656 282.75 263.917969 C 283.082031 264.488281 283.496094 264.992188 283.996094 265.425781 C 284.492188 265.859375 285.046875 266.199219 285.65625 266.453125 C 286.269531 266.703125 286.902344 266.847656 287.5625 266.890625 C 287.691406 266.890625 287.8125 266.890625 287.9375 266.890625 C 288.566406 266.890625 289.183594 266.792969 289.78125 266.597656 C 290.378906 266.40625 290.933594 266.125 291.441406 265.753906 C 291.953125 265.386719 292.394531 264.949219 292.765625 264.441406 C 293.140625 263.933594 293.425781 263.382812 293.625 262.785156 L 319.0625 186.417969 C 319.238281 185.890625 319.339844 185.347656 319.363281 184.789062 C 319.386719 184.234375 319.335938 183.6875 319.207031 183.144531 C 319.082031 182.601562 318.882812 182.085938 318.609375 181.601562 C 318.339844 181.113281 318.007812 180.675781 317.613281 180.28125 C 317.222656 179.886719 316.78125 179.554688 316.296875 179.28125 C 315.808594 179.011719 315.296875 178.8125 314.753906 178.683594 C 314.210938 178.554688 313.664062 178.503906 313.109375 178.527344 C 312.550781 178.550781 312.011719 178.652344 311.480469 178.828125 L 235.167969 204.308594 C 234.542969 204.519531 233.964844 204.824219 233.4375 205.222656 C 232.910156 205.625 232.460938 206.097656 232.09375 206.648438 C 231.722656 207.195312 231.449219 207.789062 231.277344 208.425781 C 231.105469 209.066406 231.039062 209.714844 231.078125 210.375 Z M 303.90625 194.03125 L 289.402344 237.585938 L 285.34375 217.304688 C 285.226562 216.726562 285.027344 216.175781 284.75 215.652344 C 284.46875 215.128906 284.121094 214.660156 283.703125 214.242188 C 283.285156 213.824219 282.816406 213.476562 282.292969 213.195312 C 281.773438 212.914062 281.222656 212.71875 280.640625 212.601562 L 260.382812 208.546875 Z M 303.90625 194.03125 " fill-opacity="1" fill-rule="nonzero"/><path fill="#000000" d="M 61.53125 166.546875 L 73.523438 166.546875 L 73.523438 178.546875 L 61.53125 178.546875 Z M 61.53125 166.546875 " fill-opacity="1" fill-rule="nonzero"/><path fill="#000000" d="M 73.523438 154.546875 L 85.515625 154.546875 L 85.515625 166.546875 L 73.523438 166.546875 Z M 73.523438 154.546875 " fill-opacity="1" fill-rule="nonzero"/><path fill="#000000" d="M 85.515625 166.546875 L 97.507812 166.546875 L 97.507812 178.546875 L 85.515625 178.546875 Z M 85.515625 166.546875 " fill-opacity="1" fill-rule="nonzero"/><path fill="#000000" d="M 73.523438 178.546875 L 85.515625 178.546875 L 85.515625 190.546875 L 73.523438 190.546875 Z M 73.523438 178.546875 " fill-opacity="1" fill-rule="nonzero"/><path fill="#000000" d="M 103.507812 142.546875 L 115.5 142.546875 L 115.5 154.546875 L 103.507812 154.546875 Z M 103.507812 142.546875 " fill-opacity="1" fill-rule="nonzero"/><path fill="#000000" d="M 229.4375 238.546875 L 241.429688 238.546875 L 241.429688 250.546875 L 229.4375 250.546875 Z M 229.4375 238.546875 " fill-opacity="1" fill-rule="nonzero"/><path fill="#000000" d="M 217.441406 250.546875 L 229.4375 250.546875 L 229.4375 262.546875 L 217.441406 262.546875 Z M 217.441406 250.546875 " fill-opacity="1" fill-rule="nonzero"/><path fill="#000000" d="M 205.449219 238.546875 L 217.441406 238.546875 L 217.441406 250.546875 L 205.449219 250.546875 Z M 205.449219 238.546875 " fill-opacity="1" fill-rule="nonzero"/><path fill="#000000" d="M 217.441406 226.546875 L 229.4375 226.546875 L 229.4375 238.546875 L 217.441406 238.546875 Z M 217.441406 226.546875 " fill-opacity="1" fill-rule="nonzero"/><path fill="#000000" d="M 187.460938 262.546875 L 199.453125 262.546875 L 199.453125 274.546875 L 187.460938 274.546875 Z M 187.460938 262.546875 " fill-opacity="1" fill-rule="nonzero"/></svg>