<svg xmlns="http://www.w3.org/2000/svg" xmlns:xlink="http://www.w3.org/1999/xlink" width="500" zoomAndPan="magnify" viewBox="0 0 375 374.999991" height="500" preserveAspectRatio="xMidYMid meet" version="1.0"><defs><clipPath id="d7a71d8095"><path d="M 11.5625 31.574219 L 363.3125 31.574219 L 363.3125 249 L 11.5625 249 Z M 11.5625 31.574219 " clip-rule="nonzero"/></clipPath><clipPath id="52ac53cfb9"><path d="M 161 290 L 214 290 L 214 343.574219 L 161 343.574219 Z M 161 290 " clip-rule="nonzero"/></clipPath></defs><path fill="#38b6ff" d="M 199.550781 225.113281 L 175.230469 225.113281 C 169.664062 225.113281 165.132812 220.578125 165.132812 215.011719 L 165.132812 199.96875 C 164.71875 199.761719 164.304688 199.554688 164.101562 199.347656 C 156.0625 204.089844 143.695312 214.1875 137.304688 203.058594 L 125.144531 182.035156 C 118.753906 170.90625 133.800781 165.339844 141.839844 160.804688 L 141.839844 159.570312 L 128.855469 152.148438 C 124.113281 149.265625 122.257812 143.082031 125.144531 138.132812 L 137.304688 117.109375 C 143.695312 105.980469 156.0625 116.285156 164.101562 120.820312 C 164.304688 120.613281 164.71875 120.40625 165.132812 120.203125 L 165.132812 105.363281 C 165.132812 99.796875 169.664062 95.261719 175.230469 95.261719 L 199.550781 95.261719 C 205.117188 95.261719 209.652344 99.796875 209.652344 105.363281 L 209.652344 120.203125 C 210.0625 120.40625 210.476562 120.613281 210.683594 120.820312 C 218.925781 116.285156 231.085938 105.980469 237.476562 117.109375 L 249.636719 138.132812 C 256.027344 149.46875 241.1875 154.828125 233.148438 159.570312 L 233.148438 160.804688 C 241.1875 165.339844 256.027344 170.90625 249.636719 182.035156 L 237.476562 203.058594 C 231.085938 214.394531 218.71875 204.089844 210.683594 199.347656 C 210.476562 199.554688 210.0625 199.761719 209.652344 199.96875 L 209.652344 215.011719 C 209.652344 220.578125 205.117188 225.113281 199.550781 225.113281 Z M 164.101562 190.484375 C 165.132812 190.484375 173.375 193.785156 173.375 197.492188 L 173.375 215.011719 C 173.375 216.042969 174.199219 216.867188 175.230469 216.867188 L 199.550781 216.867188 C 205.117188 216.867188 197.902344 196.875 203.878906 193.785156 C 213.15625 189.25 206.765625 187.601562 227.789062 199.761719 C 228.820312 200.171875 230.054688 199.96875 230.46875 198.9375 C 232.117188 196.257812 243.246094 178.121094 242.835938 176.46875 C 241.804688 172.964844 224.492188 168.84375 224.699219 162.867188 C 225.316406 152.5625 221.195312 156.890625 242.011719 144.933594 C 242.835938 144.316406 243.042969 143.082031 242.628906 142.257812 C 241.1875 139.371094 231.085938 120.820312 229.230469 120.40625 C 225.933594 119.378906 213.359375 132.363281 208.414062 129.066406 C 199.964844 123.292969 201.613281 129.269531 201.613281 105.363281 C 201.613281 104.332031 200.582031 103.300781 199.550781 103.300781 L 175.230469 103.300781 C 169.871094 103.300781 177.085938 123.5 171.109375 126.386719 C 161.832031 130.917969 168.222656 132.570312 146.992188 120.40625 C 146.167969 119.996094 144.933594 120.40625 144.519531 121.234375 L 132.359375 142.257812 C 131.742188 143.082031 132.152344 144.316406 132.976562 144.933594 C 153.792969 156.890625 149.464844 152.5625 150.085938 162.660156 C 150.496094 168.636719 133.183594 172.761719 132.152344 176.46875 C 131.535156 178.121094 142.871094 196.257812 144.3125 198.9375 C 144.933594 199.96875 146.167969 200.171875 146.992188 199.761719 C 150.703125 197.699219 161.832031 190.484375 164.101562 190.484375 Z M 164.101562 190.484375 " fill-opacity="1" fill-rule="evenodd"/><path fill="#38b6ff" d="M 187.390625 189.660156 C 171.109375 189.660156 157.917969 176.46875 157.917969 160.1875 C 157.917969 143.90625 171.109375 130.507812 187.390625 130.507812 C 203.675781 130.507812 217.070312 143.90625 217.070312 160.1875 C 217.070312 176.46875 203.675781 189.660156 187.390625 189.660156 Z M 187.390625 138.753906 C 175.644531 138.753906 166.160156 148.4375 166.160156 160.1875 C 166.160156 171.9375 175.644531 181.417969 187.390625 181.417969 C 199.140625 181.417969 208.828125 171.9375 208.828125 160.1875 C 208.828125 148.4375 199.140625 138.753906 187.390625 138.753906 Z M 187.390625 138.753906 " fill-opacity="1" fill-rule="evenodd"/><g clip-path="url(#d7a71d8095)"><path fill="#38b6ff" d="M 298.484375 248.402344 L 76.503906 248.402344 C 40.640625 248.402344 11.578125 219.34375 11.578125 183.476562 C 11.578125 149.265625 37.546875 121.4375 71.554688 118.757812 C 79.386719 83.925781 114.015625 62.285156 149.054688 70.117188 C 165.335938 45.796875 192.335938 31.574219 221.8125 31.574219 C 270.042969 31.574219 309.410156 70.734375 309.410156 119.582031 C 340.328125 124.738281 363.410156 151.53125 363.410156 183.476562 C 363.410156 219.34375 334.144531 248.402344 298.484375 248.402344 Z M 134.832031 76.710938 C 107.214844 76.710938 83.714844 96.292969 78.976562 123.5 C 78.5625 125.355469 76.914062 126.796875 75.058594 126.796875 C 44.144531 127.621094 19.820312 152.5625 19.820312 183.476562 C 19.820312 214.808594 45.171875 240.160156 76.503906 240.160156 L 298.484375 240.160156 C 329.609375 240.160156 355.167969 214.808594 355.167969 183.476562 C 355.167969 154.621094 333.320312 130.300781 304.667969 127.210938 C 300.132812 126.796875 300.957031 122.058594 300.957031 119.171875 C 300.957031 75.269531 265.507812 39.816406 221.605469 39.816406 C 194.191406 39.816406 169.046875 53.628906 154.414062 76.917969 C 151.734375 81.246094 147.40625 76.710938 134.832031 76.710938 Z M 134.832031 76.710938 " fill-opacity="1" fill-rule="evenodd"/></g><path fill="#38b6ff" d="M 295.804688 290.65625 L 240.15625 290.65625 C 237.886719 290.65625 236.035156 288.800781 236.035156 286.535156 L 236.035156 190.484375 C 236.035156 185.128906 244.277344 185.128906 244.277344 190.484375 L 244.277344 282.414062 L 295.804688 282.414062 C 301.371094 282.414062 301.371094 290.65625 295.804688 290.65625 Z M 295.804688 290.65625 " fill-opacity="1" fill-rule="evenodd"/><path fill="#38b6ff" d="M 134.832031 290.65625 L 78.976562 290.65625 C 73.617188 290.65625 73.617188 282.414062 78.976562 282.414062 L 130.710938 282.414062 L 130.710938 190.484375 C 130.710938 185.128906 138.953125 185.128906 138.953125 190.484375 L 138.953125 286.535156 C 138.953125 288.800781 137.101562 290.65625 134.832031 290.65625 Z M 134.832031 290.65625 " fill-opacity="1" fill-rule="evenodd"/><path fill="#38b6ff" d="M 187.390625 298.695312 C 185.125 298.695312 183.269531 296.839844 183.269531 294.574219 L 183.269531 220.992188 C 183.269531 215.632812 191.511719 215.425781 191.511719 220.992188 L 191.511719 294.574219 C 191.511719 296.839844 189.660156 298.695312 187.390625 298.695312 Z M 187.390625 298.695312 " fill-opacity="1" fill-rule="evenodd"/><path fill="#38b6ff" d="M 318.273438 313.121094 C 303.636719 313.121094 291.890625 301.167969 291.890625 286.535156 C 291.890625 271.902344 303.636719 260.152344 318.273438 260.152344 C 332.90625 260.152344 344.859375 271.902344 344.859375 286.535156 C 344.859375 301.167969 332.90625 313.121094 318.273438 313.121094 Z M 318.273438 268.398438 C 294.363281 268.398438 294.363281 304.671875 318.273438 304.671875 C 342.179688 304.671875 342.179688 268.398438 318.273438 268.398438 Z M 318.273438 268.398438 " fill-opacity="1" fill-rule="evenodd"/><g clip-path="url(#52ac53cfb9)"><path fill="#38b6ff" d="M 187.390625 343.421875 C 172.757812 343.421875 161.007812 331.46875 161.007812 317.039062 C 161.007812 302.40625 172.757812 290.449219 187.390625 290.449219 C 202.023438 290.449219 213.980469 302.40625 213.980469 317.039062 C 213.980469 331.46875 202.023438 343.421875 187.390625 343.421875 Z M 187.390625 298.695312 C 163.480469 298.695312 163.480469 335.175781 187.390625 335.175781 C 211.507812 335.175781 211.507812 298.695312 187.390625 298.695312 Z M 187.390625 298.695312 " fill-opacity="1" fill-rule="evenodd"/></g><path fill="#38b6ff" d="M 56.511719 313.121094 C 42.082031 313.121094 30.128906 301.167969 30.128906 286.535156 C 30.128906 271.902344 42.082031 260.152344 56.511719 260.152344 C 71.144531 260.152344 83.097656 271.902344 83.097656 286.535156 C 83.097656 301.167969 71.144531 313.121094 56.511719 313.121094 Z M 56.511719 268.398438 C 32.601562 268.398438 32.601562 304.671875 56.511719 304.671875 C 80.625 304.671875 80.625 268.398438 56.511719 268.398438 Z M 56.511719 268.398438 " fill-opacity="1" fill-rule="evenodd"/></svg>