<svg xmlns="http://www.w3.org/2000/svg" xmlns:xlink="http://www.w3.org/1999/xlink" width="500" zoomAndPan="magnify" viewBox="0 0 375 374.999991" height="500" preserveAspectRatio="xMidYMid meet" version="1.0"><defs><clipPath id="2dd6194656"><path d="M 172 286 L 251 286 L 251 294.625 L 172 294.625 Z M 172 286 " clip-rule="nonzero"/></clipPath><clipPath id="c54b51c716"><path d="M 9.652344 143 L 75 143 L 75 294.625 L 9.652344 294.625 Z M 9.652344 143 " clip-rule="nonzero"/></clipPath><clipPath id="d09e499037"><path d="M 9.652344 103 L 101 103 L 101 140 L 9.652344 140 Z M 9.652344 103 " clip-rule="nonzero"/></clipPath></defs><path fill="#004aad" d="M 240.640625 282.21875 L 182.382812 282.21875 L 187.613281 250.589844 L 235.410156 250.589844 L 240.640625 282.21875 " fill-opacity="1" fill-rule="nonzero"/><g clipPath="url(#2dd6194656)"><path fill="#004aad" d="M 175.324219 286.097656 L 247.699219 286.097656 C 249.335938 286.097656 250.671875 287.433594 250.671875 289.070312 L 250.671875 291.410156 C 250.671875 293.042969 249.335938 294.378906 247.699219 294.378906 L 175.324219 294.378906 C 173.691406 294.378906 172.351562 293.042969 172.351562 291.410156 L 172.351562 289.070312 C 172.351562 287.433594 173.691406 286.097656 175.324219 286.097656 " fill-opacity="1" fill-rule="nonzero"/></g><path fill="#004aad" d="M 115.027344 254.222656 L 89.058594 272.160156 L 89.058594 153.085938 L 96.589844 147.882812 L 96.589844 238.660156 C 96.589844 247.242188 103.570312 254.222656 112.152344 254.222656 L 115.027344 254.222656 " fill-opacity="1" fill-rule="nonzero"/><path fill="#004aad" d="M 96.589844 143.257812 L 85.253906 151.089844 L 85.253906 279.414062 L 121.722656 254.222656 L 135.296875 254.222656 L 135.296875 257.484375 L 79.441406 293.433594 L 79.441406 142.460938 L 96.589844 131.425781 L 96.589844 143.257812 " fill-opacity="1" fill-rule="nonzero"/><g clipPath="url(#c54b51c716)"><path fill="#004aad" d="M 68.277344 184.578125 L 16.394531 184.578125 L 16.394531 171.308594 L 68.277344 171.308594 Z M 68.277344 164.671875 L 16.394531 164.671875 L 16.394531 151.398438 L 68.277344 151.398438 Z M 42.339844 214.324219 C 43.675781 214.324219 44.757812 215.40625 44.757812 216.742188 C 44.757812 218.082031 43.675781 219.164062 42.339844 219.164062 C 41.003906 219.164062 39.917969 218.082031 39.917969 216.742188 C 39.917969 215.40625 41.003906 214.324219 42.339844 214.324219 Z M 37.5 204.8125 C 37.5 202.140625 39.664062 199.972656 42.339844 199.972656 C 45.011719 199.972656 47.175781 202.140625 47.175781 204.8125 C 47.175781 207.484375 45.011719 209.652344 42.339844 209.652344 C 39.664062 209.652344 37.5 207.484375 37.5 204.8125 Z M 20.527344 255.363281 C 20.527344 254.3125 21.378906 253.460938 22.429688 253.460938 L 62.246094 253.460938 C 63.296875 253.460938 64.148438 254.3125 64.148438 255.363281 C 64.148438 256.414062 63.296875 257.265625 62.246094 257.265625 L 22.429688 257.265625 C 21.378906 257.265625 20.527344 256.414062 20.527344 255.363281 Z M 20.527344 264.875 C 20.527344 263.824219 21.378906 262.972656 22.429688 262.972656 L 62.246094 262.972656 C 63.296875 262.972656 64.148438 263.824219 64.148438 264.875 C 64.148438 265.925781 63.296875 266.777344 62.246094 266.777344 L 22.429688 266.777344 C 21.378906 266.777344 20.527344 265.925781 20.527344 264.875 Z M 20.527344 274.386719 C 20.527344 273.335938 21.378906 272.484375 22.429688 272.484375 L 62.246094 272.484375 C 63.296875 272.484375 64.148438 273.335938 64.148438 274.386719 C 64.148438 275.4375 63.296875 276.289062 62.246094 276.289062 L 22.429688 276.289062 C 21.378906 276.289062 20.527344 275.4375 20.527344 274.386719 Z M 20.527344 283.898438 C 20.527344 282.847656 21.378906 281.996094 22.429688 281.996094 L 62.246094 281.996094 C 63.296875 281.996094 64.148438 282.847656 64.148438 283.898438 C 64.148438 284.949219 63.296875 285.800781 62.246094 285.800781 L 22.429688 285.800781 C 21.378906 285.800781 20.527344 284.949219 20.527344 283.898438 Z M 74.6875 143.890625 L 9.988281 143.890625 L 9.988281 294.859375 L 74.6875 294.859375 L 74.6875 143.890625 " fill-opacity="1" fill-rule="nonzero"/></g><g clipPath="url(#d09e499037)"><path fill="#004aad" d="M 96.589844 125.039062 L 74.6875 139.132812 L 9.988281 139.132812 L 65.839844 103.1875 L 100.726562 103.1875 C 98.160156 105.964844 96.589844 109.671875 96.589844 113.738281 L 96.589844 125.039062 " fill-opacity="1" fill-rule="nonzero"/></g><path fill="#004aad" d="M 310.878906 151.84375 L 311.914062 150.710938 C 312.75 149.855469 313.226562 148.722656 313.292969 147.554688 C 314.492188 145.832031 314.328125 143.4375 312.789062 141.902344 L 311.359375 140.46875 L 319.351562 132.476562 L 340.515625 153.644531 C 349.257812 151.742188 357.878906 155.015625 361.867188 162.609375 C 365.015625 168.605469 364.625 175.902344 361.496094 182.300781 C 360.867188 183.589844 359.125 183.808594 358.566406 182.683594 L 355.816406 177.136719 C 353.320312 172.09375 346.765625 170.714844 341.246094 174.066406 C 335.730469 177.421875 333.265625 184.289062 335.761719 189.328125 L 338.507812 194.875 C 339.070312 196.003906 337.964844 197.507812 336.644531 197.40625 C 330.230469 196.90625 324.570312 193.488281 321.636719 187.566406 C 318.183594 180.601562 319.394531 171.96875 324.066406 165.03125 L 310.878906 151.84375 " fill-opacity="1" fill-rule="nonzero"/><path fill="#004aad" d="M 311.339844 124.46875 L 303.351562 132.460938 L 302.246094 131.355469 C 301.410156 130.519531 300.304688 130.0625 299.117188 130.0625 C 298.207031 130.0625 297.332031 130.339844 296.597656 130.847656 C 295.40625 130.914062 294.292969 131.394531 293.4375 132.230469 L 292.304688 133.269531 L 282.308594 123.277344 C 274.191406 126.882812 265.089844 125.949219 259.261719 120.121094 C 254.65625 115.511719 253.105469 108.863281 254.4375 102.269531 C 254.710938 100.914062 256.402344 100.222656 257.28125 101.101562 L 261.59375 105.414062 C 265.515625 109.335938 272.5 108.769531 277.113281 104.15625 C 281.722656 99.542969 282.289062 92.5625 278.367188 88.640625 L 274.054688 84.328125 C 273.175781 83.449219 273.863281 81.757812 275.21875 81.484375 C 281.957031 80.121094 288.753906 81.769531 293.371094 86.609375 C 298.921875 92.433594 299.734375 101.378906 296.214844 109.34375 L 311.339844 124.46875 " fill-opacity="1" fill-rule="nonzero"/><path fill="#004aad" d="M 298.484375 155.027344 L 276.929688 176.582031 C 276.757812 176.753906 276.53125 176.839844 276.308594 176.839844 C 276.085938 176.839844 275.859375 176.753906 275.6875 176.582031 C 275.34375 176.238281 275.34375 175.679688 275.6875 175.335938 L 297.242188 153.78125 C 297.585938 153.4375 298.140625 153.4375 298.484375 153.78125 C 298.828125 154.125 298.828125 154.679688 298.484375 155.027344 Z M 294.261719 150.800781 L 272.703125 172.355469 C 272.535156 172.527344 272.308594 172.613281 272.082031 172.613281 C 271.859375 172.613281 271.632812 172.527344 271.460938 172.355469 C 271.117188 172.011719 271.117188 171.457031 271.460938 171.113281 L 293.015625 149.554688 C 293.359375 149.214844 293.917969 149.214844 294.261719 149.554688 C 294.605469 149.898438 294.605469 150.457031 294.261719 150.800781 Z M 290.035156 146.574219 L 268.480469 168.128906 C 268.308594 168.300781 268.082031 168.386719 267.859375 168.386719 C 267.632812 168.386719 267.410156 168.300781 267.238281 168.128906 C 266.894531 167.789062 266.894531 167.230469 267.238281 166.886719 L 288.792969 145.332031 C 289.136719 144.988281 289.691406 144.988281 290.035156 145.332031 C 290.378906 145.675781 290.378906 146.230469 290.035156 146.574219 Z M 344.949219 105.3125 L 352.296875 95.503906 L 348.316406 91.519531 L 338.5 98.867188 L 337.722656 102.066406 L 303.351562 136.4375 L 300.253906 133.34375 C 299.628906 132.71875 298.609375 132.71875 297.984375 133.34375 L 297.601562 133.726562 C 297.585938 133.742188 297.574219 133.757812 297.558594 133.773438 C 296.820312 133.515625 295.964844 133.683594 295.375 134.269531 L 258.792969 167.867188 C 253.984375 172.675781 253.984375 180.546875 258.792969 185.351562 C 263.601562 190.164062 271.472656 190.164062 276.28125 185.351562 L 309.875 148.773438 C 310.464844 148.183594 310.628906 147.328125 310.375 146.585938 C 310.390625 146.574219 310.40625 146.558594 310.421875 146.546875 L 310.800781 146.164062 C 311.425781 145.539062 311.425781 144.515625 310.800781 143.890625 L 307.378906 140.46875 L 341.753906 106.09375 L 344.949219 105.3125 " fill-opacity="1" fill-rule="nonzero"/><path fill="#004aad" d="M 207.820312 236.980469 C 207.820312 234.941406 209.472656 233.289062 211.511719 233.289062 C 213.550781 233.289062 215.207031 234.941406 215.207031 236.980469 C 215.207031 239.019531 213.550781 240.675781 211.511719 240.675781 C 209.472656 240.675781 207.820312 239.019531 207.820312 236.980469 Z M 112.152344 246.613281 L 310.875 246.613281 C 315.246094 246.613281 318.824219 243.035156 318.824219 238.660156 L 318.824219 196.664062 C 317.269531 194.960938 315.9375 193.039062 314.886719 190.914062 C 311.214844 183.507812 311.253906 174.539062 314.769531 166.390625 L 309.117188 160.738281 L 308.222656 161.710938 L 308.222656 227.085938 L 114.804688 227.085938 L 114.804688 116.390625 L 248.125 116.390625 C 246.894531 113.09375 246.320312 109.507812 246.457031 105.789062 L 112.152344 105.789062 C 107.777344 105.789062 104.199219 109.367188 104.199219 113.738281 L 104.199219 238.660156 C 104.199219 243.035156 107.777344 246.613281 112.152344 246.613281 " fill-opacity="1" fill-rule="nonzero"/><path fill="#004aad" d="M 304.863281 107.335938 C 305 106.820312 305.113281 106.304688 305.222656 105.789062 L 310.875 105.789062 C 314.230469 105.789062 317.113281 107.898438 318.277344 110.859375 L 313.332031 115.800781 L 304.863281 107.335938 " fill-opacity="1" fill-rule="nonzero"/></svg>