<svg xmlns="http://www.w3.org/2000/svg" xmlns:xlink="http://www.w3.org/1999/xlink" zoomAndPan="magnify" viewBox="0 0 375 374.999991"  preserveAspectRatio="xMidYMid meet" version="1.0"><defs><clipPath id="a5fc95fb7d"><path d="M 15.300781 15.300781 L 359.550781 15.300781 L 359.550781 359.550781 L 15.300781 359.550781 Z M 15.300781 15.300781 " clip-rule="nonzero"/></clipPath></defs><g clipPath="url(#a5fc95fb7d)"><path fill="#5e17eb" d="M 336.730469 267.855469 L 210.457031 267.855469 C 204.132812 267.855469 198.976562 262.695312 198.976562 256.375 L 198.976562 141.578125 L 348.210938 141.578125 L 348.210938 256.375 C 348.210938 262.695312 343.054688 267.855469 336.730469 267.855469 Z M 279.332031 302.292969 L 95.660156 302.292969 L 95.660156 267.855469 C 97.96875 267.855469 100.277344 267.765625 102.566406 267.5625 C 106.308594 267.203125 109.515625 264.804688 110.972656 261.21875 L 114.71875 251.867188 C 119.222656 250.523438 123.550781 248.730469 127.675781 246.488281 L 136.980469 250.457031 C 140.480469 251.957031 144.492188 251.398438 147.382812 248.976562 C 149.15625 247.519531 150.835938 245.949219 152.472656 244.3125 C 154.109375 242.675781 155.679688 240.992188 157.160156 239.222656 C 159.558594 236.328125 160.121094 232.339844 158.617188 228.820312 L 154.648438 219.515625 C 156.890625 215.386719 158.683594 211.0625 160.03125 206.554688 L 169.378906 202.808594 C 169.402344 202.789062 169.402344 202.789062 169.402344 202.789062 C 172.96875 201.351562 175.367188 198.144531 175.726562 194.402344 C 175.925781 192.113281 176.015625 189.804688 176.015625 187.496094 C 176.015625 185.1875 175.925781 182.878906 175.726562 180.589844 C 175.367188 176.847656 172.96875 173.640625 169.378906 172.183594 L 160.03125 168.4375 C 158.683594 163.929688 156.890625 159.605469 154.648438 155.480469 L 158.617188 146.175781 C 160.121094 142.652344 159.558594 138.664062 157.136719 135.769531 C 155.679688 134 154.109375 132.316406 152.472656 130.679688 C 150.835938 129.042969 149.15625 127.472656 147.382812 125.996094 C 144.492188 123.597656 140.480469 123.035156 136.980469 124.539062 L 127.675781 128.507812 C 123.550781 126.265625 119.222656 124.46875 114.71875 123.125 L 110.949219 113.753906 C 109.515625 110.1875 106.308594 107.789062 102.566406 107.429688 C 100.277344 107.226562 97.96875 107.117188 95.660156 107.117188 L 95.660156 72.699219 L 279.332031 72.699219 L 279.332031 84.179688 L 210.457031 84.179688 C 197.789062 84.179688 187.496094 94.46875 187.496094 107.136719 L 187.496094 256.375 C 187.496094 269.042969 197.789062 279.332031 210.457031 279.332031 L 279.332031 279.332031 Z M 267.855469 348.210938 L 107.136719 348.210938 C 100.816406 348.210938 95.660156 343.054688 95.660156 336.730469 L 95.660156 313.773438 L 279.332031 313.773438 L 279.332031 336.730469 C 279.332031 343.054688 274.175781 348.210938 267.855469 348.210938 Z M 66.980469 235.164062 C 65.390625 234.199219 63.441406 234.042969 61.734375 234.78125 L 50.59375 239.582031 C 49.335938 238.503906 48.125 237.382812 46.960938 236.195312 C 45.792969 235.03125 44.652344 233.820312 43.574219 232.5625 L 48.371094 221.398438 C 49.089844 219.691406 48.957031 217.765625 47.992188 216.171875 C 45.121094 211.417969 42.992188 206.285156 41.644531 200.902344 C 41.199219 199.109375 39.917969 197.652344 38.214844 196.957031 L 26.960938 192.453125 C 26.847656 190.816406 26.78125 189.15625 26.78125 187.496094 C 26.78125 185.835938 26.847656 184.179688 26.960938 182.542969 L 38.214844 178.035156 C 39.917969 177.339844 41.199219 175.882812 41.644531 174.089844 C 42.992188 168.707031 45.121094 163.574219 47.992188 158.820312 C 48.957031 157.226562 49.089844 155.277344 48.371094 153.574219 L 43.574219 142.429688 C 44.652344 141.175781 45.792969 139.964844 46.960938 138.796875 C 48.125 137.609375 49.335938 136.488281 50.59375 135.410156 L 61.757812 140.210938 C 63.441406 140.925781 65.390625 140.792969 66.980469 139.828125 C 71.734375 136.957031 76.871094 134.828125 82.25 133.484375 C 84.042969 133.035156 85.503906 131.757812 86.195312 130.054688 L 90.703125 118.796875 C 93.976562 118.550781 97.316406 118.550781 100.613281 118.796875 L 105.121094 130.054688 C 105.816406 131.757812 107.273438 133.035156 109.066406 133.484375 C 114.449219 134.828125 119.582031 136.957031 124.335938 139.828125 C 125.925781 140.792969 127.855469 140.925781 129.558594 140.210938 L 140.726562 135.410156 C 141.980469 136.488281 143.191406 137.609375 144.359375 138.796875 C 145.546875 139.964844 146.667969 141.175781 147.742188 142.429688 L 142.945312 153.574219 C 142.226562 155.277344 142.363281 157.226562 143.328125 158.820312 C 146.195312 163.574219 148.328125 168.707031 149.671875 174.089844 C 150.121094 175.882812 151.398438 177.339844 153.101562 178.035156 L 164.359375 182.542969 C 164.46875 184.179688 164.535156 185.835938 164.535156 187.496094 C 164.535156 189.15625 164.46875 190.816406 164.359375 192.453125 L 153.101562 196.957031 C 151.398438 197.652344 150.121094 199.109375 149.671875 200.902344 C 148.328125 206.285156 146.195312 211.417969 143.328125 216.171875 C 142.363281 217.765625 142.226562 219.691406 142.945312 221.398438 L 147.742188 232.5625 C 146.667969 233.820312 145.546875 235.03125 144.359375 236.195312 C 143.191406 237.382812 141.980469 238.503906 140.726562 239.582031 L 129.582031 234.78125 C 127.855469 234.042969 125.925781 234.199219 124.335938 235.164062 C 119.582031 238.035156 114.449219 240.164062 109.066406 241.507812 C 107.273438 241.957031 105.816406 243.234375 105.121094 244.941406 L 100.613281 256.195312 C 97.339844 256.441406 94 256.441406 90.703125 256.195312 L 86.195312 244.941406 C 85.503906 243.234375 84.042969 241.957031 82.25 241.507812 C 76.871094 240.164062 71.734375 238.035156 66.980469 235.164062 Z M 107.136719 26.78125 L 267.855469 26.78125 C 274.175781 26.78125 279.332031 31.9375 279.332031 38.261719 L 279.332031 61.21875 L 95.660156 61.21875 L 95.660156 38.261719 C 95.660156 31.9375 100.816406 26.78125 107.136719 26.78125 Z M 348.210938 107.136719 L 348.210938 130.097656 L 198.976562 130.097656 L 198.976562 107.136719 C 198.976562 100.816406 204.132812 95.660156 210.457031 95.660156 L 336.730469 95.660156 C 343.054688 95.660156 348.210938 100.816406 348.210938 107.136719 Z M 336.730469 84.179688 L 290.8125 84.179688 L 290.8125 38.261719 C 290.8125 25.59375 280.523438 15.300781 267.855469 15.300781 L 107.136719 15.300781 C 94.46875 15.300781 84.179688 25.59375 84.179688 38.261719 L 84.179688 109.113281 C 82.519531 110.234375 81.152344 111.800781 80.34375 113.773438 L 76.601562 123.125 C 72.09375 124.46875 67.746094 126.265625 63.640625 128.507812 L 54.335938 124.539062 C 50.816406 123.035156 46.824219 123.597656 43.933594 126.015625 C 42.160156 127.472656 40.480469 129.042969 38.84375 130.679688 C 37.207031 132.316406 35.636719 134 34.179688 135.769531 C 31.757812 138.664062 31.199219 142.652344 32.699219 146.175781 L 36.691406 155.480469 C 34.425781 159.605469 32.632812 163.929688 31.289062 168.4375 L 21.914062 172.203125 C 18.351562 173.640625 15.953125 176.847656 15.613281 180.589844 C 15.390625 182.878906 15.300781 185.1875 15.300781 187.496094 C 15.300781 189.804688 15.390625 192.113281 15.613281 194.402344 C 15.953125 198.144531 18.351562 201.351562 21.9375 202.808594 L 31.289062 206.554688 C 32.632812 211.0625 34.425781 215.386719 36.691406 219.515625 L 32.699219 228.820312 C 31.199219 232.339844 31.757812 236.328125 34.179688 239.222656 C 35.636719 240.992188 37.207031 242.675781 38.84375 244.3125 C 40.480469 245.949219 42.160156 247.519531 43.933594 248.996094 C 46.824219 251.398438 50.816406 251.957031 54.335938 250.457031 L 63.640625 246.488281 C 67.746094 248.730469 72.09375 250.523438 76.601562 251.867188 L 80.367188 261.238281 C 81.152344 263.214844 82.519531 264.761719 84.179688 265.882812 L 84.179688 336.730469 C 84.179688 349.398438 94.46875 359.691406 107.136719 359.691406 L 267.855469 359.691406 C 280.523438 359.691406 290.8125 349.398438 290.8125 336.730469 L 290.8125 279.332031 L 336.730469 279.332031 C 349.398438 279.332031 359.691406 269.042969 359.691406 256.375 L 359.691406 107.136719 C 359.691406 94.46875 349.398438 84.179688 336.730469 84.179688 " fill-opacity="1" fill-rule="nonzero"/></g><path fill="#5e17eb" d="M 61.21875 187.496094 C 61.21875 172.542969 70.839844 159.804688 84.179688 155.054688 L 84.179688 167.722656 C 77.339844 171.710938 72.699219 179.042969 72.699219 187.496094 C 72.699219 195.949219 77.339844 203.28125 84.179688 207.273438 L 84.179688 219.941406 C 70.839844 215.1875 61.21875 202.453125 61.21875 187.496094 Z M 95.660156 176.015625 C 101.980469 176.015625 107.136719 181.171875 107.136719 187.496094 C 107.136719 193.820312 101.980469 198.976562 95.660156 198.976562 C 89.335938 198.976562 84.179688 193.820312 84.179688 187.496094 C 84.179688 181.171875 89.335938 176.015625 95.660156 176.015625 Z M 130.097656 187.496094 C 130.097656 206.488281 114.648438 221.933594 95.660156 221.933594 L 95.660156 210.457031 C 108.328125 210.457031 118.617188 200.164062 118.617188 187.496094 C 118.617188 174.828125 108.328125 164.535156 95.660156 164.535156 L 95.660156 153.058594 C 114.648438 153.058594 130.097656 168.503906 130.097656 187.496094 Z M 141.578125 187.496094 C 141.578125 162.183594 120.972656 141.578125 95.660156 141.578125 C 70.34375 141.578125 49.738281 162.183594 49.738281 187.496094 C 49.738281 212.808594 70.34375 233.414062 95.660156 233.414062 C 120.972656 233.414062 141.578125 212.808594 141.578125 187.496094 " fill-opacity="1" fill-rule="nonzero"/><path fill="#5e17eb" d="M 221.933594 187.496094 L 221.933594 164.535156 L 325.253906 164.535156 L 325.273438 187.496094 Z M 325.253906 153.058594 L 221.933594 153.058594 C 215.613281 153.058594 210.457031 158.214844 210.457031 164.535156 L 210.457031 187.496094 C 210.457031 193.820312 215.613281 198.976562 221.933594 198.976562 L 325.253906 198.976562 C 331.574219 198.976562 336.730469 193.820312 336.730469 187.496094 L 336.730469 164.535156 C 336.730469 158.214844 331.574219 153.058594 325.253906 153.058594 " fill-opacity="1" fill-rule="nonzero"/><path fill="#5e17eb" d="M 164.535156 49.738281 L 170.277344 49.738281 C 173.4375 49.738281 176.015625 47.160156 176.015625 44 C 176.015625 40.839844 173.4375 38.261719 170.277344 38.261719 L 164.535156 38.261719 C 161.375 38.261719 158.796875 40.839844 158.796875 44 C 158.796875 47.160156 161.375 49.738281 164.535156 49.738281 " fill-opacity="1" fill-rule="nonzero"/><path fill="#5e17eb" d="M 193.234375 49.738281 L 210.457031 49.738281 C 213.617188 49.738281 216.195312 47.160156 216.195312 44 C 216.195312 40.839844 213.617188 38.261719 210.457031 38.261719 L 193.234375 38.261719 C 190.074219 38.261719 187.496094 40.839844 187.496094 44 C 187.496094 47.160156 190.074219 49.738281 193.234375 49.738281 " fill-opacity="1" fill-rule="nonzero"/><path fill="#5e17eb" d="M 198.976562 325.253906 L 176.015625 325.253906 C 172.855469 325.253906 170.277344 327.832031 170.277344 330.992188 C 170.277344 334.152344 172.855469 336.730469 176.015625 336.730469 L 198.976562 336.730469 C 202.136719 336.730469 204.714844 334.152344 204.714844 330.992188 C 204.714844 327.832031 202.136719 325.253906 198.976562 325.253906 " fill-opacity="1" fill-rule="nonzero"/><path fill="#5e17eb" d="M 221.933594 107.136719 L 216.195312 107.136719 C 213.035156 107.136719 210.457031 109.71875 210.457031 112.878906 C 210.457031 116.039062 213.035156 118.617188 216.195312 118.617188 L 221.933594 118.617188 C 225.097656 118.617188 227.675781 116.039062 227.675781 112.878906 C 227.675781 109.71875 225.097656 107.136719 221.933594 107.136719 " fill-opacity="1" fill-rule="nonzero"/><path fill="#5e17eb" d="M 250.632812 107.136719 L 244.894531 107.136719 C 241.734375 107.136719 239.15625 109.71875 239.15625 112.878906 C 239.15625 116.039062 241.734375 118.617188 244.894531 118.617188 L 250.632812 118.617188 C 253.796875 118.617188 256.375 116.039062 256.375 112.878906 C 256.375 109.71875 253.796875 107.136719 250.632812 107.136719 " fill-opacity="1" fill-rule="nonzero"/><path fill="#5e17eb" d="M 302.292969 118.617188 L 330.992188 118.617188 C 334.152344 118.617188 336.730469 116.039062 336.730469 112.878906 C 336.730469 109.71875 334.152344 107.136719 330.992188 107.136719 L 302.292969 107.136719 C 299.132812 107.136719 296.554688 109.71875 296.554688 112.878906 C 296.554688 116.039062 299.132812 118.617188 302.292969 118.617188 " fill-opacity="1" fill-rule="nonzero"/><path fill="#5e17eb" d="M 279.332031 210.457031 L 227.675781 210.457031 C 224.515625 210.457031 221.933594 213.035156 221.933594 216.195312 C 221.933594 219.355469 224.515625 221.933594 227.675781 221.933594 L 279.332031 221.933594 C 282.496094 221.933594 285.074219 219.355469 285.074219 216.195312 C 285.074219 213.035156 282.496094 210.457031 279.332031 210.457031 " fill-opacity="1" fill-rule="nonzero"/><path fill="#5e17eb" d="M 267.855469 233.414062 L 227.675781 233.414062 C 224.515625 233.414062 221.933594 235.992188 221.933594 239.15625 C 221.933594 242.316406 224.515625 244.894531 227.675781 244.894531 L 267.855469 244.894531 C 271.015625 244.894531 273.59375 242.316406 273.59375 239.15625 C 273.59375 235.992188 271.015625 233.414062 267.855469 233.414062 " fill-opacity="1" fill-rule="nonzero"/><path fill="#5e17eb" d="M 319.511719 210.457031 L 302.292969 210.457031 C 299.132812 210.457031 296.554688 213.035156 296.554688 216.195312 C 296.554688 219.355469 299.132812 221.933594 302.292969 221.933594 L 319.511719 221.933594 C 322.675781 221.933594 325.253906 219.355469 325.253906 216.195312 C 325.253906 213.035156 322.675781 210.457031 319.511719 210.457031 " fill-opacity="1" fill-rule="nonzero"/><path fill="#5e17eb" d="M 308.03125 233.414062 L 290.8125 233.414062 C 287.652344 233.414062 285.074219 235.992188 285.074219 239.15625 C 285.074219 242.316406 287.652344 244.894531 290.8125 244.894531 L 308.03125 244.894531 C 311.195312 244.894531 313.773438 242.316406 313.773438 239.15625 C 313.773438 235.992188 311.195312 233.414062 308.03125 233.414062 " fill-opacity="1" fill-rule="nonzero"/></svg>