<svg xmlns="http://www.w3.org/2000/svg" xmlns:xlink="http://www.w3.org/1999/xlink" width="500" zoomAndPan="magnify" viewBox="0 0 375 374.999991" height="500" preserveAspectRatio="xMidYMid meet" version="1.0"><defs><clipPath id="16dafd3c4a"><path d="M 58 99.238281 L 279 99.238281 L 279 245 L 58 245 Z M 58 99.238281 " clip-rule="nonzero"/></clipPath><clipPath id="adc28951a4"><path d="M 140 266 L 197 266 L 197 275.488281 L 140 275.488281 Z M 140 266 " clip-rule="nonzero"/></clipPath><clipPath id="134426806c"><path d="M 227 176 L 362 176 L 362 275.488281 L 227 275.488281 Z M 227 176 " clip-rule="nonzero"/></clipPath><clipPath id="f2fb8ddf7e"><path d="M 227 232 L 362 232 L 362 275.488281 L 227 275.488281 Z M 227 232 " clip-rule="nonzero"/></clipPath><clipPath id="bcef87da04"><path d="M 224 170 L 364.835938 170 L 364.835938 234 L 224 234 Z M 224 170 " clip-rule="nonzero"/></clipPath><clipPath id="2541073b63"><path d="M 10.085938 158 L 99 158 L 99 272 L 10.085938 272 Z M 10.085938 158 " clip-rule="nonzero"/></clipPath></defs><g clip-path="url(#16dafd3c4a)"><path fill="#3ebced" d="M 278.941406 237.617188 C 278.941406 241.25 275.988281 244.199219 272.34375 244.199219 L 64.875 244.199219 C 61.234375 244.199219 58.28125 241.25 58.28125 237.617188 L 58.28125 105.78125 C 58.28125 102.140625 61.234375 99.191406 64.875 99.191406 L 272.34375 99.191406 C 275.988281 99.191406 278.941406 102.140625 278.941406 105.78125 L 278.941406 237.617188 " fill-opacity="1" fill-rule="nonzero"/></g><path fill="#544eaa" d="M 66.242188 236.078125 L 270.980469 236.078125 L 270.980469 107.308594 L 66.242188 107.308594 Z M 66.242188 236.078125 " fill-opacity="1" fill-rule="nonzero"/><path fill="#443f8a" d="M 227.078125 236.078125 L 66.242188 236.078125 L 66.242188 107.308594 L 104.710938 131.503906 L 104.710938 212.726562 L 108.699219 212.726562 L 108.699219 217.679688 L 224.207031 217.679688 L 224.207031 227.085938 C 224.207031 229.292969 225.351562 231.234375 227.078125 232.351562 L 227.078125 236.078125 " fill-opacity="1" fill-rule="nonzero"/><path fill="#3d387a" d="M 236.550781 170.664062 L 240.539062 170.664062 L 240.539062 134.753906 L 236.550781 134.753906 Z M 236.550781 170.664062 " fill-opacity="1" fill-rule="nonzero"/><path fill="#322e64" d="M 108.699219 217.679688 L 224.207031 217.679688 L 224.207031 212.726562 L 108.699219 212.726562 Z M 108.699219 217.679688 " fill-opacity="1" fill-rule="nonzero"/><path fill="#d0eefb" d="M 104.710938 212.726562 L 236.550781 212.726562 L 236.550781 124.628906 L 104.710938 124.628906 Z M 104.710938 212.726562 " fill-opacity="1" fill-rule="nonzero"/><path fill="#3ebced" d="M 236.550781 133.035156 L 236.550781 124.628906 L 104.710938 124.628906 L 104.710938 133.035156 L 236.550781 133.035156 " fill-opacity="1" fill-rule="nonzero"/><path fill="#3ebced" d="M 189.417969 204.023438 L 151.835938 204.023438 L 151.835938 189.933594 L 189.417969 189.933594 L 189.417969 204.023438 " fill-opacity="1" fill-rule="nonzero"/><path fill="#4591cd" d="M 189.417969 204.023438 L 151.835938 204.023438 L 151.835938 196.976562 L 189.417969 196.976562 L 189.417969 204.023438 " fill-opacity="1" fill-rule="nonzero"/><path fill="#d0eefb" d="M 220.082031 128.832031 C 220.082031 130.179688 218.988281 131.269531 217.644531 131.269531 C 216.296875 131.269531 215.203125 130.179688 215.203125 128.832031 C 215.203125 127.484375 216.296875 126.390625 217.644531 126.390625 C 218.988281 126.390625 220.082031 127.484375 220.082031 128.832031 " fill-opacity="1" fill-rule="nonzero"/><path fill="#d0eefb" d="M 226.644531 128.832031 C 226.644531 130.175781 225.550781 131.269531 224.207031 131.269531 C 222.855469 131.269531 221.765625 130.175781 221.765625 128.832031 C 221.765625 127.480469 222.855469 126.390625 224.207031 126.390625 C 225.550781 126.390625 226.644531 127.480469 226.644531 128.832031 " fill-opacity="1" fill-rule="nonzero"/><path fill="#d0eefb" d="M 233.210938 128.832031 C 233.210938 130.175781 232.117188 131.269531 230.769531 131.269531 C 229.421875 131.269531 228.328125 130.175781 228.328125 128.832031 C 228.328125 127.480469 229.421875 126.390625 230.769531 126.390625 C 232.117188 126.390625 233.210938 127.480469 233.210938 128.832031 " fill-opacity="1" fill-rule="nonzero"/><path fill="#ffffff" d="M 151.097656 186.429688 L 115.042969 186.429688 L 115.042969 149.558594 L 151.097656 149.558594 L 151.097656 186.429688 " fill-opacity="1" fill-rule="nonzero"/><path fill="#b9ddf5" d="M 143.503906 174.734375 C 143.425781 173.503906 142.109375 173.113281 142.109375 173.113281 L 138.042969 171.738281 L 136.316406 171.097656 C 134.996094 171.984375 133.546875 172.3125 133.070312 172.402344 C 132.59375 172.3125 131.140625 171.984375 129.824219 171.097656 L 128.09375 171.738281 L 124.027344 173.113281 C 124.027344 173.113281 122.714844 173.503906 122.636719 174.734375 L 121.355469 181.722656 L 144.785156 181.722656 L 143.503906 174.734375 " fill-opacity="1" fill-rule="nonzero"/><path fill="#b9ddf5" d="M 139.261719 161.972656 C 139.183594 166.167969 136.347656 169.515625 132.929688 169.457031 C 129.511719 169.386719 126.804688 165.9375 126.878906 161.742188 C 126.957031 157.546875 129.792969 154.203125 133.210938 154.265625 C 136.628906 154.328125 139.339844 157.777344 139.261719 161.972656 " fill-opacity="1" fill-rule="nonzero"/><path fill="#a8dcf6" d="M 226.214844 154.808594 C 226.214844 155.582031 225.589844 156.207031 224.816406 156.207031 L 159.367188 156.207031 C 158.59375 156.207031 157.964844 155.582031 157.964844 154.808594 C 157.964844 154.035156 158.59375 153.410156 159.367188 153.410156 L 224.816406 153.410156 C 225.589844 153.410156 226.214844 154.035156 226.214844 154.808594 " fill-opacity="1" fill-rule="nonzero"/><path fill="#a8dcf6" d="M 226.214844 163.601562 C 226.214844 164.371094 225.589844 164.996094 224.816406 164.996094 L 159.367188 164.996094 C 158.59375 164.996094 157.964844 164.371094 157.964844 163.601562 C 157.964844 162.828125 158.59375 162.199219 159.367188 162.199219 L 224.816406 162.199219 C 225.589844 162.199219 226.214844 162.828125 226.214844 163.601562 " fill-opacity="1" fill-rule="nonzero"/><path fill="#a8dcf6" d="M 226.214844 172.386719 C 226.214844 173.164062 225.589844 173.789062 224.816406 173.789062 L 159.367188 173.789062 C 158.59375 173.789062 157.964844 173.164062 157.964844 172.386719 C 157.964844 171.613281 158.59375 170.988281 159.367188 170.988281 L 224.816406 170.988281 C 225.589844 170.988281 226.214844 171.613281 226.214844 172.386719 " fill-opacity="1" fill-rule="nonzero"/><path fill="#a8dcf6" d="M 226.214844 181.175781 C 226.214844 181.949219 225.589844 182.574219 224.816406 182.574219 L 159.367188 182.574219 C 158.59375 182.574219 157.964844 181.949219 157.964844 181.175781 C 157.964844 180.40625 158.59375 179.78125 159.367188 179.78125 L 224.816406 179.78125 C 225.589844 179.78125 226.214844 180.40625 226.214844 181.175781 " fill-opacity="1" fill-rule="nonzero"/><path fill="#3c74c3" d="M 186.898438 266.78125 L 150.320312 266.78125 L 150.320312 244.199219 L 186.898438 244.199219 L 186.898438 266.78125 " fill-opacity="1" fill-rule="nonzero"/><g clip-path="url(#adc28951a4)"><path fill="#3ebced" d="M 196.4375 275.433594 L 140.785156 275.433594 L 140.785156 266.78125 L 196.4375 266.78125 L 196.4375 275.433594 " fill-opacity="1" fill-rule="nonzero"/></g><path fill="#3ebced" d="M 278.53125 171.820312 L 309.726562 171.820312 L 309.726562 160.125 L 278.550781 160.105469 L 278.53125 171.820312 M 317.347656 179.425781 L 270.90625 179.425781 L 270.90625 160.125 C 270.90625 155.917969 274.335938 152.496094 278.550781 152.496094 L 309.699219 152.496094 C 313.917969 152.496094 317.347656 155.917969 317.347656 160.125 L 317.347656 179.425781 " fill-opacity="1" fill-rule="nonzero"/><g clip-path="url(#134426806c)"><path fill="#544eaa" d="M 361.171875 269.425781 C 361.171875 272.746094 358.480469 275.433594 355.160156 275.433594 L 233.09375 275.433594 C 229.769531 275.433594 227.078125 272.746094 227.078125 269.425781 L 227.078125 182.226562 C 227.078125 178.90625 229.769531 176.21875 233.09375 176.21875 L 355.160156 176.21875 C 358.480469 176.21875 361.171875 178.90625 361.171875 182.226562 L 361.171875 269.425781 " fill-opacity="1" fill-rule="nonzero"/></g><g clip-path="url(#f2fb8ddf7e)"><path fill="#443f8a" d="M 355.160156 275.433594 L 233.09375 275.433594 C 229.769531 275.433594 227.078125 272.746094 227.078125 269.425781 L 227.078125 232.351562 C 228.054688 232.984375 229.222656 233.355469 230.480469 233.355469 L 357.773438 233.355469 C 359.027344 233.355469 360.195312 232.984375 361.171875 232.351562 L 361.171875 237.90625 L 242.835938 237.90625 C 239.515625 237.90625 236.820312 240.59375 236.820312 243.914062 L 236.820312 262.03125 C 236.820312 265.347656 239.515625 268.039062 242.835938 268.039062 L 361.171875 268.039062 L 361.171875 269.425781 C 361.171875 272.746094 358.480469 275.433594 355.160156 275.433594 " fill-opacity="1" fill-rule="nonzero"/></g><g clip-path="url(#bcef87da04)"><path fill="#544eaa" d="M 364.046875 227.085938 C 364.046875 230.550781 361.238281 233.355469 357.773438 233.355469 L 230.480469 233.355469 C 227.015625 233.355469 224.207031 230.550781 224.207031 227.085938 L 224.207031 176.929688 C 224.207031 173.46875 227.015625 170.664062 230.480469 170.664062 L 357.773438 170.664062 C 361.238281 170.664062 364.046875 173.46875 364.046875 176.929688 L 364.046875 227.085938 " fill-opacity="1" fill-rule="nonzero"/><path fill="#443f8a" d="M 357.773438 233.355469 L 230.480469 233.355469 C 227.015625 233.355469 224.207031 230.550781 224.207031 227.085938 L 224.207031 176.929688 C 224.207031 173.46875 227.015625 170.664062 230.480469 170.664062 L 253.1875 170.664062 C 253.066406 170.90625 252.933594 171.144531 252.816406 171.390625 C 249.707031 177.859375 248.449219 184.902344 248.367188 192.035156 C 248.21875 204.890625 252.828125 216.671875 265.234375 221.925781 C 276.515625 226.695312 284.296875 227.109375 295.609375 227.109375 C 296.660156 227.109375 297.742188 227.105469 298.859375 227.101562 C 305.363281 227.078125 309.824219 227.066406 313.542969 227.066406 C 322.484375 227.066406 327.105469 227.125 345.347656 227.179688 C 345.824219 227.183594 346.300781 227.183594 346.769531 227.183594 C 352.84375 227.183594 357.960938 226.898438 362.082031 221.828125 C 362.792969 220.949219 363.433594 220.007812 364.046875 219.046875 L 364.046875 227.085938 C 364.046875 230.550781 361.238281 233.355469 357.773438 233.355469 " fill-opacity="1" fill-rule="nonzero"/></g><path fill="#3ebced" d="M 302.785156 245.707031 L 285.46875 245.707031 L 285.46875 231.128906 L 302.785156 231.128906 L 302.785156 245.707031 " fill-opacity="1" fill-rule="nonzero"/><g clip-path="url(#2541073b63)"><path fill="#a3e0f8" d="M 98.171875 271.765625 L 10.878906 271.765625 L 10.878906 158.625 L 98.171875 158.625 L 98.171875 271.765625 " fill-opacity="1" fill-rule="nonzero"/></g><path fill="#ffffff" d="M 42.140625 204.644531 L 19.273438 204.644531 L 19.273438 181.261719 L 42.140625 181.261719 L 42.140625 204.644531 " fill-opacity="1" fill-rule="nonzero"/><path fill="#a3d7f4" d="M 37.324219 197.226562 C 37.273438 196.449219 36.441406 196.203125 36.441406 196.203125 L 33.863281 195.328125 L 32.769531 194.921875 C 31.929688 195.484375 31.007812 195.695312 30.707031 195.75 C 30.40625 195.695312 29.484375 195.484375 28.644531 194.921875 L 27.550781 195.328125 L 24.972656 196.203125 C 24.972656 196.203125 24.144531 196.449219 24.09375 197.226562 L 23.277344 201.660156 L 38.136719 201.660156 L 37.324219 197.226562 " fill-opacity="1" fill-rule="nonzero"/><path fill="#a3d7f4" d="M 34.636719 189.136719 C 34.582031 191.796875 32.785156 193.921875 30.617188 193.882812 C 28.453125 193.839844 26.734375 191.652344 26.78125 188.992188 C 26.835938 186.332031 28.632812 184.210938 30.800781 184.25 C 32.964844 184.292969 34.683594 186.476562 34.636719 189.136719 " fill-opacity="1" fill-rule="nonzero"/><path fill="#49a9d4" d="M 89.773438 184.597656 C 89.773438 185.082031 89.378906 185.480469 88.886719 185.480469 L 47.382812 185.480469 C 46.890625 185.480469 46.492188 185.082031 46.492188 184.597656 C 46.492188 184.105469 46.890625 183.707031 47.382812 183.707031 L 88.886719 183.707031 C 89.378906 183.707031 89.773438 184.105469 89.773438 184.597656 " fill-opacity="1" fill-rule="nonzero"/><path fill="#49a9d4" d="M 89.773438 190.167969 C 89.773438 190.660156 89.378906 191.054688 88.886719 191.054688 L 47.382812 191.054688 C 46.890625 191.054688 46.492188 190.660156 46.492188 190.167969 C 46.492188 189.679688 46.890625 189.28125 47.382812 189.28125 L 88.886719 189.28125 C 89.378906 189.28125 89.773438 189.679688 89.773438 190.167969 " fill-opacity="1" fill-rule="nonzero"/><path fill="#49a9d4" d="M 89.773438 195.742188 C 89.773438 196.230469 89.378906 196.625 88.886719 196.625 L 47.382812 196.625 C 46.890625 196.625 46.492188 196.230469 46.492188 195.742188 C 46.492188 195.25 46.890625 194.855469 47.382812 194.855469 L 88.886719 194.855469 C 89.378906 194.855469 89.773438 195.25 89.773438 195.742188 " fill-opacity="1" fill-rule="nonzero"/><path fill="#49a9d4" d="M 89.773438 201.316406 C 89.773438 201.800781 89.378906 202.199219 88.886719 202.199219 L 47.382812 202.199219 C 46.890625 202.199219 46.492188 201.800781 46.492188 201.316406 C 46.492188 200.824219 46.890625 200.425781 47.382812 200.425781 L 88.886719 200.425781 C 89.378906 200.425781 89.773438 200.824219 89.773438 201.316406 " fill-opacity="1" fill-rule="nonzero"/><path fill="#49a9d4" d="M 89.773438 212.226562 C 89.773438 212.71875 89.378906 213.117188 88.886719 213.117188 L 19.71875 213.117188 C 19.230469 213.117188 18.832031 212.71875 18.832031 212.226562 C 18.832031 211.742188 19.230469 211.34375 19.71875 211.34375 L 88.886719 211.34375 C 89.378906 211.34375 89.773438 211.742188 89.773438 212.226562 " fill-opacity="1" fill-rule="nonzero"/><path fill="#49a9d4" d="M 89.773438 217.800781 C 89.773438 218.292969 89.378906 218.6875 88.886719 218.6875 L 19.71875 218.6875 C 19.230469 218.6875 18.832031 218.292969 18.832031 217.800781 C 18.832031 217.3125 19.230469 216.917969 19.71875 216.917969 L 88.886719 216.917969 C 89.378906 216.917969 89.773438 217.3125 89.773438 217.800781 " fill-opacity="1" fill-rule="nonzero"/><path fill="#49a9d4" d="M 89.773438 223.375 C 89.773438 223.863281 89.378906 224.261719 88.886719 224.261719 L 19.71875 224.261719 C 19.230469 224.261719 18.832031 223.863281 18.832031 223.375 C 18.832031 222.886719 19.230469 222.488281 19.71875 222.488281 L 88.886719 222.488281 C 89.378906 222.488281 89.773438 222.886719 89.773438 223.375 " fill-opacity="1" fill-rule="nonzero"/><path fill="#49a9d4" d="M 89.773438 228.949219 C 89.773438 229.4375 89.378906 229.835938 88.886719 229.835938 L 19.71875 229.835938 C 19.230469 229.835938 18.832031 229.4375 18.832031 228.949219 C 18.832031 228.457031 19.230469 228.0625 19.71875 228.0625 L 88.886719 228.0625 C 89.378906 228.0625 89.773438 228.457031 89.773438 228.949219 " fill-opacity="1" fill-rule="nonzero"/><path fill="#49a9d4" d="M 89.773438 236.652344 C 89.773438 237.144531 89.378906 237.539062 88.886719 237.539062 L 19.71875 237.539062 C 19.230469 237.539062 18.832031 237.144531 18.832031 236.652344 C 18.832031 236.164062 19.230469 235.765625 19.71875 235.765625 L 88.886719 235.765625 C 89.378906 235.765625 89.773438 236.164062 89.773438 236.652344 " fill-opacity="1" fill-rule="nonzero"/><path fill="#49a9d4" d="M 89.773438 242.226562 C 89.773438 242.714844 89.378906 243.109375 88.886719 243.109375 L 19.71875 243.109375 C 19.230469 243.109375 18.832031 242.714844 18.832031 242.226562 C 18.832031 241.734375 19.230469 241.339844 19.71875 241.339844 L 88.886719 241.339844 C 89.378906 241.339844 89.773438 241.734375 89.773438 242.226562 " fill-opacity="1" fill-rule="nonzero"/><path fill="#49a9d4" d="M 89.773438 247.800781 C 89.773438 248.285156 89.378906 248.683594 88.886719 248.683594 L 19.71875 248.683594 C 19.230469 248.683594 18.832031 248.285156 18.832031 247.800781 C 18.832031 247.308594 19.230469 246.910156 19.71875 246.910156 L 88.886719 246.910156 C 89.378906 246.910156 89.773438 247.308594 89.773438 247.800781 " fill-opacity="1" fill-rule="nonzero"/><path fill="#49a9d4" d="M 89.773438 253.371094 C 89.773438 253.859375 89.378906 254.257812 88.886719 254.257812 L 19.71875 254.257812 C 19.230469 254.257812 18.832031 253.859375 18.832031 253.371094 C 18.832031 252.882812 19.230469 252.484375 19.71875 252.484375 L 88.886719 252.484375 C 89.378906 252.484375 89.773438 252.882812 89.773438 253.371094 " fill-opacity="1" fill-rule="nonzero"/><path fill="#49a9d4" d="M 76.164062 171.941406 C 76.164062 172.429688 75.769531 172.828125 75.277344 172.828125 L 33.773438 172.828125 C 33.28125 172.828125 32.882812 172.429688 32.882812 171.941406 C 32.882812 171.449219 33.28125 171.058594 33.773438 171.058594 L 75.277344 171.058594 C 75.769531 171.058594 76.164062 171.449219 76.164062 171.941406 " fill-opacity="1" fill-rule="nonzero"/></svg>