<svg xmlns="http://www.w3.org/2000/svg" xmlns:xlink="http://www.w3.org/1999/xlink" width="500" zoomAndPan="magnify" viewBox="0 0 375 374.999991" height="500" preserveAspectRatio="xMidYMid meet" version="1.0"><defs><clipPath id="8536d74cc0"><path d="M 8.332031 13 L 364 13 L 364 368.25 L 8.332031 368.25 Z M 8.332031 13 " clip-rule="nonzero"/></clipPath></defs><g clip-path="url(#8536d74cc0)"><path fill="#5271ff" d="M 355.703125 312.074219 L 311.460938 262.300781 C 308.300781 258.746094 303.957031 256.769531 299.214844 256.375 C 294.472656 255.980469 289.734375 257.558594 286.179688 260.71875 L 278.671875 267.433594 L 262.082031 248.472656 C 299.214844 212.527344 312.644531 159.195312 296.84375 109.816406 L 330.421875 76.242188 L 339.507812 85.328125 C 341.089844 86.90625 343.457031 87.300781 345.433594 86.90625 C 347.410156 86.117188 348.988281 84.535156 349.382812 82.167969 L 359.257812 20.542969 C 359.65625 18.566406 358.863281 16.589844 357.679688 15.40625 C 356.492188 14.222656 354.519531 13.429688 352.542969 13.824219 L 291.3125 23.703125 C 288.945312 24.097656 287.363281 25.675781 286.574219 27.652344 C 285.785156 29.628906 286.574219 31.996094 288.152344 33.578125 L 297.238281 42.664062 L 273.539062 65.96875 C 272.351562 64.390625 270.773438 62.808594 269.585938 61.230469 C 220.207031 5.53125 134.488281 0 78.394531 49.378906 C 70.886719 56.09375 64.566406 63.203125 59.035156 70.710938 C 59.035156 70.710938 58.640625 71.105469 58.640625 71.105469 C 51.136719 81.375 45.210938 92.832031 40.863281 104.683594 C 40.46875 106.261719 40.074219 107.054688 40.074219 107.84375 C 27.433594 145.371094 31.382812 187.640625 53.109375 222.796875 L 14.398438 222.796875 C 11.238281 222.402344 8.472656 225.167969 8.472656 228.328125 L 8.472656 346.046875 C 8.472656 349.207031 11.238281 351.972656 14.398438 351.972656 L 215.074219 351.972656 C 218.234375 351.972656 221 349.207031 221 346.046875 L 221 275.335938 C 232.453125 270.59375 243.515625 263.878906 253.390625 255.980469 L 269.984375 274.941406 L 262.476562 281.65625 C 258.921875 284.816406 256.945312 289.160156 256.550781 293.902344 C 256.15625 298.644531 257.738281 303.382812 260.898438 306.9375 L 305.140625 356.710938 C 311.855469 364.21875 320.941406 368.167969 330.421875 368.167969 C 338.324219 368.167969 346.222656 365.402344 352.542969 359.871094 C 359.257812 353.945312 363.210938 345.652344 363.605469 336.960938 C 364.394531 327.480469 361.628906 318.789062 355.703125 312.074219 Z M 309.878906 38.714844 L 304.746094 33.578125 L 347.011719 26.863281 L 340.296875 69.128906 L 335.164062 63.996094 C 332.792969 61.625 329.238281 61.625 326.867188 63.996094 L 286.179688 103.894531 L 222.183594 167.886719 L 190.1875 135.890625 C 187.816406 133.519531 184.261719 133.519531 181.890625 135.890625 L 131.722656 185.664062 L 52.714844 107.054688 C 55.480469 99.152344 59.429688 91.648438 63.777344 84.929688 L 127.375 148.53125 C 129.746094 150.902344 133.300781 150.902344 135.671875 148.53125 L 185.839844 98.757812 L 217.839844 130.753906 C 220.207031 133.125 223.765625 133.125 226.132812 130.753906 L 309.484375 47.796875 C 310.671875 46.613281 311.066406 45.035156 311.066406 43.453125 C 311.066406 41.875 310.671875 39.898438 309.878906 38.714844 Z M 86.292969 58.859375 C 137.253906 13.824219 215.46875 18.566406 260.5 69.523438 C 262.082031 71.105469 263.660156 73.082031 264.847656 75.054688 L 222.183594 117.71875 L 190.1875 85.722656 C 187.816406 83.351562 184.261719 83.351562 181.890625 85.722656 L 131.722656 135.496094 L 70.886719 75.054688 C 75.628906 69.128906 80.761719 63.601562 86.292969 58.859375 Z M 209.148438 340.121094 L 20.324219 340.121094 L 20.324219 234.253906 L 209.148438 234.253906 Z M 215.074219 222.402344 L 67.332031 222.402344 C 45.605469 191.984375 39.679688 154.0625 48.765625 119.695312 L 127.375 198.304688 C 128.5625 199.488281 130.140625 199.886719 131.722656 199.886719 C 133.300781 199.886719 134.882812 199.488281 136.066406 198.304688 L 186.234375 148.53125 L 218.234375 180.527344 C 220.605469 182.898438 224.160156 182.898438 226.527344 180.527344 L 287.757812 119.695312 C 299.609375 164.726562 285.390625 212.527344 250.230469 243.734375 C 241.539062 251.632812 231.664062 257.953125 221.394531 262.695312 L 221.394531 228.722656 C 221 225.167969 218.234375 222.402344 215.074219 222.402344 Z M 345.039062 350.785156 C 335.953125 358.6875 322.125 357.898438 314.226562 348.8125 L 269.984375 298.644531 C 268.796875 297.457031 268.402344 295.878906 268.402344 294.296875 C 268.402344 292.71875 269.191406 291.136719 270.378906 290.347656 L 294.078125 269.410156 C 295.265625 268.621094 296.449219 267.832031 298.03125 267.832031 C 298.03125 267.832031 298.425781 267.832031 298.425781 267.832031 C 300.003906 267.832031 301.585938 268.621094 302.375 269.804688 L 346.617188 319.972656 C 350.570312 324.320312 352.148438 329.851562 352.148438 335.777344 C 351.753906 341.699219 348.988281 346.835938 345.039062 350.785156 Z M 345.039062 350.785156 " fill-opacity="1" fill-rule="nonzero"/></g><path fill="#5271ff" d="M 36.125 273.359375 C 36.125 284.421875 45.210938 293.113281 55.875 293.113281 L 59.035156 293.113281 C 63.382812 293.113281 66.9375 296.667969 66.9375 301.011719 C 66.9375 305.359375 63.382812 308.914062 59.035156 308.914062 L 42.050781 308.914062 C 38.890625 308.914062 36.125 311.679688 36.125 314.839844 C 36.125 318 38.890625 320.765625 42.050781 320.765625 L 59.035156 320.765625 C 70.097656 320.765625 78.789062 312.074219 78.789062 301.011719 C 78.789062 289.953125 69.703125 281.261719 59.035156 281.261719 L 55.875 281.261719 C 51.53125 281.261719 47.976562 277.707031 47.976562 273.359375 C 47.976562 269.015625 51.53125 265.460938 55.875 265.460938 L 72.863281 265.460938 C 76.023438 265.460938 78.789062 262.695312 78.789062 259.535156 C 78.789062 256.375 76.023438 253.609375 72.863281 253.609375 L 55.875 253.609375 C 45.210938 253.609375 36.125 262.300781 36.125 273.359375 Z M 36.125 273.359375 " fill-opacity="1" fill-rule="nonzero"/><path fill="#5271ff" d="M 99.328125 320.765625 L 130.140625 320.765625 C 133.300781 320.765625 136.066406 318 136.066406 314.839844 C 136.066406 311.679688 133.300781 308.914062 130.140625 308.914062 L 105.253906 308.914062 L 105.253906 293.113281 L 130.140625 293.113281 C 133.300781 293.113281 136.066406 290.347656 136.066406 287.1875 C 136.066406 284.027344 133.300781 281.261719 130.140625 281.261719 L 105.253906 281.261719 L 105.253906 265.460938 L 130.140625 265.460938 C 133.300781 265.460938 136.066406 262.695312 136.066406 259.535156 C 136.066406 256.375 133.300781 253.609375 130.140625 253.609375 L 99.328125 253.609375 C 96.167969 253.609375 93.402344 256.375 93.402344 259.535156 L 93.402344 314.839844 C 93.402344 318 96.167969 320.765625 99.328125 320.765625 Z M 99.328125 320.765625 " fill-opacity="1" fill-rule="nonzero"/><path fill="#5271ff" d="M 172.015625 320.765625 C 183.867188 320.765625 193.347656 311.285156 193.347656 299.433594 L 193.347656 274.546875 C 193.347656 262.695312 183.867188 253.214844 172.015625 253.214844 C 160.164062 253.214844 150.683594 262.695312 150.683594 274.546875 L 150.683594 299.433594 C 150.683594 311.285156 160.164062 320.765625 172.015625 320.765625 Z M 162.535156 274.941406 C 162.535156 269.804688 166.878906 265.460938 172.015625 265.460938 C 177.152344 265.460938 181.496094 269.804688 181.496094 274.941406 L 181.496094 299.828125 C 181.496094 304.964844 177.152344 309.308594 172.015625 309.308594 C 166.878906 309.308594 162.535156 304.964844 162.535156 299.828125 Z M 162.535156 274.941406 " fill-opacity="1" fill-rule="nonzero"/></svg>