<svg xmlns="http://www.w3.org/2000/svg" xmlns:xlink="http://www.w3.org/1999/xlink" width="500" zoomAndPan="magnify" viewBox="0 0 375 374.999991" height="500" preserveAspectRatio="xMidYMid meet" version="1.0"><defs><clipPath id="5c0bc17cc7"><path d="M 51.761719 90 L 288 90 L 288 363.722656 L 51.761719 363.722656 Z M 51.761719 90 " clip-rule="nonzero"/></clipPath></defs><path fill="#afa1fd" d="M 171.335938 169.988281 C 171.335938 175.253906 167.074219 182.359375 161.808594 182.359375 C 156.527344 182.359375 152.234375 175.253906 152.234375 169.988281 C 152.234375 164.707031 156.511719 160.429688 161.796875 160.429688 C 167.058594 160.429688 171.335938 164.707031 171.335938 169.988281 Z M 171.335938 169.988281 " fill-opacity="1" fill-rule="nonzero"/><path fill="#afa1fd" d="M 179.949219 200.523438 C 179.949219 207.640625 171.804688 212.695312 161.777344 212.695312 C 151.75 212.695312 143.605469 207.640625 143.605469 200.523438 C 143.605469 193.386719 151.75 186.871094 161.777344 186.871094 C 171.804688 186.871094 179.949219 193.386719 179.949219 200.523438 Z M 179.949219 200.523438 " fill-opacity="1" fill-rule="nonzero"/><path fill="#ff614b" d="M 338.488281 142.292969 L 312.140625 128.6875 L 314.582031 123.964844 C 318.121094 117.101562 326.554688 114.414062 333.414062 117.957031 L 334.921875 118.734375 C 341.78125 122.277344 344.472656 130.707031 340.929688 137.570312 Z M 338.488281 142.292969 " fill-opacity="1" fill-rule="nonzero"/><path fill="#f7d01c" d="M 311.519531 129.894531 L 337.867188 143.496094 L 274.203125 266.792969 L 247.855469 253.1875 Z M 311.519531 129.894531 " fill-opacity="1" fill-rule="nonzero"/><path fill="#5ce1e6" d="M 165.601562 79.320312 C 165.34375 72.339844 167.359375 65.335938 171.113281 59.695312 C 184.632812 85.195312 212.925781 71.804688 208.550781 53.566406 C 205.585938 41.390625 189.609375 35.261719 174.253906 46.128906 C 174.230469 46.152344 174.207031 46.164062 174.183594 46.179688 C 172.746094 34.824219 178.574219 24.136719 187.300781 18.714844 C 188.984375 17.664062 189.5 15.457031 188.453125 13.777344 C 187.40625 12.085938 185.199219 11.582031 183.511719 12.621094 C 170.773438 20.546875 163.800781 36.480469 168.03125 51.917969 C 161.535156 59.371094 158.058594 69.328125 158.433594 79.585938 C 158.605469 84.355469 165.777344 84.09375 165.601562 79.320312 Z M 201.574219 55.253906 C 204.21875 66.253906 184.945312 74.660156 176.230469 53.738281 C 187.03125 43.917969 199.617188 47.183594 201.574219 55.253906 Z M 201.574219 55.253906 " fill-opacity="1" fill-rule="nonzero"/><path fill="#5ce1e6" d="M 176.796875 98.035156 L 264.398438 98.035156 C 273.101562 98.035156 280.183594 104.695312 280.183594 112.886719 L 280.183594 159.589844 C 280.183594 161.574219 281.785156 163.179688 283.769531 163.179688 C 285.75 163.179688 287.355469 161.574219 287.355469 159.589844 L 287.355469 112.886719 C 287.355469 100.738281 277.058594 90.859375 264.398438 90.859375 L 176.796875 90.859375 C 172.046875 90.859375 172.050781 98.035156 176.796875 98.035156 Z M 176.796875 98.035156 " fill-opacity="1" fill-rule="nonzero"/><g clip-path="url(#5c0bc17cc7)"><path fill="#5ce1e6" d="M 283.769531 280.261719 C 281.785156 280.261719 280.183594 281.867188 280.183594 283.847656 L 280.183594 341.679688 C 280.183594 349.828125 273.101562 356.453125 264.398438 356.453125 L 74.558594 356.453125 C 65.859375 356.453125 58.777344 349.828125 58.777344 341.679688 L 58.777344 112.886719 C 58.777344 104.695312 65.859375 98.035156 74.558594 98.035156 L 146.734375 98.035156 C 151.484375 98.035156 151.480469 90.859375 146.734375 90.859375 L 74.558594 90.859375 C 61.902344 90.859375 51.605469 100.738281 51.605469 112.886719 L 51.605469 341.679688 C 51.605469 353.785156 61.902344 363.628906 74.558594 363.628906 L 264.398438 363.628906 C 277.058594 363.628906 287.355469 353.785156 287.355469 341.679688 L 287.355469 283.847656 C 287.355469 281.867188 285.75 280.261719 283.769531 280.261719 Z M 283.769531 280.261719 " fill-opacity="1" fill-rule="nonzero"/></g><path fill="#5ce1e6" d="M 188.722656 263.976562 L 92.277344 263.976562 C 90.296875 263.976562 88.691406 265.582031 88.691406 267.566406 C 88.691406 269.546875 90.296875 271.152344 92.277344 271.152344 L 188.722656 271.152344 C 190.703125 271.152344 192.308594 269.546875 192.308594 267.566406 C 192.308594 265.582031 190.703125 263.976562 188.722656 263.976562 Z M 188.722656 263.976562 " fill-opacity="1" fill-rule="nonzero"/><path fill="#5ce1e6" d="M 188.722656 291.492188 L 92.277344 291.492188 C 90.296875 291.492188 88.691406 293.097656 88.691406 295.078125 C 88.691406 297.0625 90.296875 298.667969 92.277344 298.667969 L 188.722656 298.667969 C 190.703125 298.667969 192.308594 297.0625 192.308594 295.078125 C 192.308594 293.097656 190.703125 291.492188 188.722656 291.492188 Z M 188.722656 291.492188 " fill-opacity="1" fill-rule="nonzero"/><path fill="#5ce1e6" d="M 188.722656 319 L 92.277344 319 C 90.296875 319 88.691406 320.605469 88.691406 322.585938 C 88.691406 324.570312 90.296875 326.171875 92.277344 326.171875 L 188.722656 326.171875 C 190.703125 326.171875 192.308594 324.570312 192.308594 322.585938 C 192.308594 320.605469 190.703125 319 188.722656 319 Z M 188.722656 319 " fill-opacity="1" fill-rule="nonzero"/><path fill="#5ce1e6" d="M 211.664062 264.503906 L 208.292969 264.503906 C 206.3125 264.503906 204.707031 266.109375 204.707031 268.089844 C 204.707031 270.074219 206.3125 271.679688 208.292969 271.679688 L 211.664062 271.679688 C 213.644531 271.679688 215.25 270.074219 215.25 268.089844 C 215.25 266.109375 213.644531 264.503906 211.664062 264.503906 Z M 211.664062 264.503906 " fill-opacity="1" fill-rule="nonzero"/><path fill="#5ce1e6" d="M 211.664062 291.492188 L 208.292969 291.492188 C 206.3125 291.492188 204.707031 293.097656 204.707031 295.078125 C 204.707031 297.0625 206.3125 298.667969 208.292969 298.667969 L 211.664062 298.667969 C 213.644531 298.667969 215.25 297.0625 215.25 295.078125 C 215.25 293.097656 213.644531 291.492188 211.664062 291.492188 Z M 211.664062 291.492188 " fill-opacity="1" fill-rule="nonzero"/><path fill="#5ce1e6" d="M 211.664062 318.472656 L 208.292969 318.472656 C 206.3125 318.472656 204.707031 320.078125 204.707031 322.0625 C 204.707031 324.042969 206.3125 325.648438 208.292969 325.648438 L 211.664062 325.648438 C 213.644531 325.648438 215.25 324.042969 215.25 322.0625 C 215.25 320.078125 213.644531 318.472656 211.664062 318.472656 Z M 211.664062 318.472656 " fill-opacity="1" fill-rule="nonzero"/><path fill="#5ce1e6" d="M 336.570312 115.542969 L 335.058594 114.765625 C 326.460938 110.335938 315.839844 113.722656 311.390625 122.316406 C 302.628906 139.289062 246.683594 247.636719 244.671875 251.535156 C 244.519531 251.832031 244.355469 252.101562 244.234375 253.828125 C 243.585938 263.535156 243.578125 273.394531 244.214844 283.113281 C 244.398438 285.824219 247.402344 287.324219 249.664062 285.9375 L 274.90625 270.558594 C 276.976562 269.304688 276.976562 269.242188 277.394531 268.433594 C 281.929688 259.648438 264.164062 294.054688 344.117188 139.21875 C 348.558594 130.613281 345.175781 119.992188 336.570312 115.542969 Z M 317.765625 125.609375 C 324.136719 113.28125 344.128906 123.558594 337.742188 135.925781 L 336.945312 137.457031 L 316.976562 127.144531 Z M 251.066406 276.679688 C 250.855469 271.089844 250.867188 265.464844 251.09375 259.871094 L 265.800781 267.707031 Z M 272.664062 261.953125 L 252.691406 251.640625 L 313.0625 134.726562 L 333.035156 145.039062 Z M 272.664062 261.953125 " fill-opacity="1" fill-rule="nonzero"/><path fill="#5ce1e6" d="M 161.777344 128.734375 C 131.117188 128.734375 106.164062 153.683594 106.164062 184.34375 C 106.164062 215.003906 131.117188 239.953125 161.777344 239.953125 C 192.441406 239.953125 217.386719 215.003906 217.386719 184.34375 C 217.386719 153.683594 192.441406 128.734375 161.777344 128.734375 Z M 161.777344 232.78125 C 135.070312 232.78125 113.339844 211.050781 113.339844 184.34375 C 113.339844 157.636719 135.070312 135.910156 161.777344 135.910156 C 188.488281 135.910156 210.214844 157.636719 210.214844 184.34375 C 210.214844 211.050781 188.488281 232.78125 161.777344 232.78125 Z M 161.777344 232.78125 " fill-opacity="1" fill-rule="nonzero"/><path fill="#ff614b" d="M 176.835938 94.472656 C 176.835938 95.460938 176.738281 96.441406 176.546875 97.410156 C 176.351562 98.378906 176.066406 99.320312 175.6875 100.234375 C 175.308594 101.148438 174.847656 102.015625 174.296875 102.839844 C 173.746094 103.660156 173.121094 104.421875 172.421875 105.121094 C 171.722656 105.820312 170.964844 106.445312 170.140625 106.992188 C 169.320312 107.542969 168.453125 108.007812 167.539062 108.386719 C 166.625 108.765625 165.683594 109.050781 164.714844 109.242188 C 163.742188 109.433594 162.765625 109.53125 161.773438 109.53125 C 160.785156 109.53125 159.808594 109.433594 158.835938 109.242188 C 157.867188 109.050781 156.925781 108.765625 156.011719 108.386719 C 155.097656 108.007812 154.230469 107.542969 153.410156 106.992188 C 152.585938 106.445312 151.824219 105.820312 151.125 105.121094 C 150.425781 104.421875 149.804688 103.660156 149.253906 102.839844 C 148.703125 102.015625 148.242188 101.148438 147.863281 100.234375 C 147.484375 99.320312 147.199219 98.378906 147.003906 97.410156 C 146.8125 96.441406 146.714844 95.460938 146.714844 94.472656 C 146.714844 93.484375 146.8125 92.503906 147.003906 91.535156 C 147.199219 90.566406 147.484375 89.625 147.863281 88.710938 C 148.242188 87.796875 148.703125 86.929688 149.253906 86.105469 C 149.804688 85.285156 150.425781 84.523438 151.125 83.824219 C 151.824219 83.125 152.585938 82.5 153.410156 81.953125 C 154.230469 81.402344 155.097656 80.9375 156.011719 80.558594 C 156.925781 80.179688 157.867188 79.894531 158.835938 79.703125 C 159.808594 79.511719 160.785156 79.414062 161.773438 79.414062 C 162.765625 79.414062 163.742188 79.511719 164.714844 79.703125 C 165.683594 79.894531 166.625 80.179688 167.539062 80.558594 C 168.453125 80.9375 169.320312 81.402344 170.140625 81.953125 C 170.964844 82.5 171.722656 83.125 172.421875 83.824219 C 173.121094 84.523438 173.746094 85.285156 174.296875 86.105469 C 174.847656 86.929688 175.308594 87.796875 175.6875 88.710938 C 176.066406 89.625 176.351562 90.566406 176.546875 91.535156 C 176.738281 92.503906 176.835938 93.484375 176.835938 94.472656 Z M 176.835938 94.472656 " fill-opacity="1" fill-rule="nonzero"/></svg>