<svg xmlns="http://www.w3.org/2000/svg" xmlns:xlink="http://www.w3.org/1999/xlink" width="500" zoomAndPan="magnify" viewBox="0 0 375 374.999991" height="500" preserveAspectRatio="xMidYMid meet" version="1.0"><defs><clipPath id="c8e5a4aa3b"><path d="M 14.28125 37.5 L 360.71875 37.5 L 360.71875 355.273438 L 14.28125 355.273438 Z M 14.28125 37.5 " clip-rule="nonzero"/></clipPath></defs><g clip-path="url(#c8e5a4aa3b)"><path fill="#0cc0df" d="M 333.714844 273.125 L 39.128906 273.125 C 31.566406 272.601562 25.074219 265.558594 25.074219 257.46875 L 25.074219 248.273438 L 349.371094 248.273438 L 349.371094 257.46875 C 349.371094 266.113281 342.324219 273.125 333.683594 273.125 Z M 219.117188 313.136719 L 155.328125 313.136719 L 155.328125 283.949219 L 218.59375 283.949219 L 218.59375 313.136719 Z M 273.707031 334.207031 C 273.707031 340.140625 268.847656 344.476562 263.4375 344.476562 L 111.007812 344.476562 C 105.070312 344.476562 100.765625 339.617188 100.765625 334.207031 C 100.765625 328.792969 105.625 323.933594 111.007812 323.933594 L 263.4375 323.933594 C 269.371094 323.933594 273.707031 328.269531 273.707031 334.207031 Z M 74.808594 214.75 C 71.578125 214.75 69.394531 216.933594 69.394531 220.160156 L 69.394531 237.445312 L 56.96875 237.445312 L 56.96875 183.960938 C 56.96875 173.136719 65.089844 163.9375 75.363281 162.339844 L 82.375 181.777344 C 82.925781 183.960938 85.082031 185.5625 87.234375 185.5625 L 97.507812 185.5625 C 99.660156 185.5625 101.84375 183.960938 102.367188 181.777344 L 109.410156 162.339844 L 146.164062 162.339844 C 147.238281 162.339844 148.316406 161.785156 148.871094 161.261719 L 203.460938 126.109375 C 203.984375 126.664062 209.398438 134.78125 208.84375 134.226562 L 166.675781 166.121094 C 162.371094 169.351562 156.957031 170.980469 151.546875 170.980469 C 145.054688 170.980469 139.121094 173.6875 134.261719 177.996094 C 129.402344 182.886719 127.214844 188.820312 127.214844 195.832031 L 128.324219 237.445312 L 79.144531 237.445312 L 79.144531 220.160156 C 80.222656 216.933594 77.515625 214.75 74.808594 214.75 Z M 40.761719 48.296875 L 334.238281 48.296875 C 342.878906 48.296875 349.921875 55.339844 349.921875 63.980469 L 349.921875 237.445312 L 139.671875 237.445312 L 138.597656 195.832031 C 138.597656 192.050781 139.671875 188.820312 142.378906 186.113281 C 145.085938 183.40625 148.316406 182.332031 152.097656 182.332031 C 159.664062 182.332031 167.785156 179.625 173.71875 175.320312 L 219.671875 140.164062 C 221.824219 138.566406 222.347656 135.304688 220.746094 132.597656 L 218.039062 128.816406 L 267.773438 95.84375 C 270.449219 94.246094 271.003906 90.984375 269.371094 88.277344 C 268.847656 87.203125 267.773438 86.679688 266.664062 86.125 L 322.886719 86.125 C 326.117188 86.125 328.300781 83.972656 328.300781 80.710938 C 328.300781 77.484375 326.117188 75.332031 322.886719 75.332031 L 176.949219 75.332031 C 173.71875 75.332031 171.566406 77.484375 171.566406 80.710938 C 171.566406 83.972656 173.71875 86.125 176.949219 86.125 L 262.914062 86.125 C 262.359375 86.125 262.359375 86.125 261.835938 86.679688 L 211.550781 120.171875 L 208.84375 116.390625 C 207.246094 114.238281 203.984375 113.160156 201.277344 114.761719 L 143.980469 150.992188 L 105.070312 150.992188 C 102.917969 150.992188 100.765625 152.621094 100.210938 154.773438 L 93.199219 174.210938 L 91.015625 174.210938 L 84.003906 154.773438 C 83.449219 152.589844 81.296875 150.992188 79.144531 150.992188 C 60.753906 150.992188 46.175781 165.570312 46.175781 183.960938 L 46.175781 237.445312 L 25.105469 237.445312 L 25.105469 63.980469 C 25.105469 55.339844 32.117188 48.296875 40.761719 48.296875 Z M 333.714844 37.5 L 40.761719 37.5 C 26.183594 37.5 14.28125 49.371094 14.28125 63.980469 L 14.28125 257.992188 C 14.28125 271.492188 25.074219 283.394531 38.609375 283.949219 L 145.054688 283.949219 L 145.054688 313.105469 L 111.007812 313.105469 C 99.136719 313.105469 89.941406 322.855469 89.941406 334.207031 C 89.941406 346.078125 99.660156 355.273438 111.007812 355.273438 L 263.4375 355.273438 C 275.339844 355.273438 284.503906 345.554688 284.503906 334.207031 C 284.503906 322.304688 274.785156 313.105469 263.4375 313.105469 L 229.941406 313.105469 L 229.941406 283.949219 L 334.238281 283.949219 C 348.816406 283.949219 360.71875 272.046875 360.71875 257.46875 L 360.71875 63.980469 C 360.164062 49.371094 348.292969 37.5 333.683594 37.5 L 333.714844 37.5 " fill-opacity="1" fill-rule="nonzero"/></g><path fill="#0cc0df" d="M 322.886719 110.453125 L 254.238281 110.453125 C 251.011719 110.453125 248.828125 112.605469 248.828125 115.867188 C 248.828125 119.097656 251.011719 121.25 254.238281 121.25 L 322.886719 121.25 C 326.117188 121.25 328.300781 119.097656 328.300781 115.867188 C 328.300781 112.605469 326.117188 110.453125 322.886719 110.453125 " fill-opacity="1" fill-rule="nonzero"/><path fill="#0cc0df" d="M 322.886719 145.578125 L 227.757812 145.578125 C 224.53125 145.578125 222.347656 147.730469 222.347656 150.992188 C 222.347656 154.21875 224.53125 156.371094 227.757812 156.371094 L 323.441406 156.371094 C 326.671875 156.371094 328.824219 154.21875 328.824219 150.992188 C 328.300781 147.730469 326.117188 145.578125 322.886719 145.578125 " fill-opacity="1" fill-rule="nonzero"/><path fill="#0cc0df" d="M 322.886719 180.179688 L 185.621094 180.179688 C 182.363281 180.179688 180.210938 182.332031 180.210938 185.589844 C 180.210938 188.820312 182.363281 190.972656 185.621094 190.972656 L 322.886719 190.972656 C 326.117188 190.972656 328.300781 188.820312 328.300781 185.589844 C 328.300781 182.332031 326.117188 180.179688 322.886719 180.179688 " fill-opacity="1" fill-rule="nonzero"/><path fill="#0cc0df" d="M 92.648438 95.320312 C 102.394531 95.320312 109.960938 102.886719 109.960938 112.605469 C 109.960938 122.324219 102.394531 129.890625 92.648438 129.890625 C 82.925781 129.890625 75.363281 122.324219 75.363281 112.605469 C 75.363281 103.410156 82.925781 95.320312 92.648438 95.320312 Z M 92.648438 141.242188 C 108.332031 141.242188 120.757812 128.816406 120.757812 113.160156 C 120.757812 97.476562 108.332031 85.050781 92.648438 85.050781 C 76.992188 85.050781 64.535156 97.476562 64.535156 113.160156 C 64.535156 128.292969 76.992188 141.242188 92.648438 141.242188 " fill-opacity="1" fill-rule="nonzero"/></svg>