<svg xmlns="http://www.w3.org/2000/svg" xmlns:xlink="http://www.w3.org/1999/xlink"  zoomAndPan="magnify" viewBox="0 0 375 374.999991"  preserveAspectRatio="xMidYMid meet" version="1.0"><defs><clipPath id="080c126a53"><path d="M 10.136719 76.648438 L 310 76.648438 L 310 298.648438 L 10.136719 298.648438 Z M 10.136719 76.648438 " clip-rule="nonzero"/></clipPath><clipPath id="58e126b3f8"><path d="M 249 132 L 364.886719 132 L 364.886719 248 L 249 248 Z M 249 132 " clip-rule="nonzero"/></clipPath></defs><path fill="#004aad" d="M 137.617188 242.917969 C 134.570312 242.917969 132.074219 245.414062 132.074219 248.460938 C 132.074219 251.511719 134.570312 254.003906 137.617188 254.003906 L 181.957031 254.003906 C 185.003906 254.003906 187.5 251.511719 187.5 248.460938 C 187.5 245.414062 185.003906 242.917969 181.957031 242.917969 Z M 137.617188 242.917969 " fill-opacity="1" fill-rule="nonzero"/><path fill="#004aad" d="M 60.300781 246.800781 C 60.300781 247.109375 60.273438 247.414062 60.210938 247.71875 C 60.152344 248.019531 60.0625 248.316406 59.941406 248.601562 C 59.824219 248.886719 59.679688 249.160156 59.507812 249.417969 C 59.335938 249.671875 59.140625 249.910156 58.921875 250.128906 C 58.703125 250.347656 58.464844 250.542969 58.207031 250.714844 C 57.949219 250.886719 57.679688 251.03125 57.394531 251.152344 C 57.109375 251.269531 56.8125 251.359375 56.511719 251.417969 C 56.207031 251.480469 55.898438 251.511719 55.589844 251.511719 C 55.28125 251.511719 54.976562 251.480469 54.671875 251.417969 C 54.367188 251.359375 54.074219 251.269531 53.789062 251.152344 C 53.503906 251.03125 53.230469 250.886719 52.972656 250.714844 C 52.714844 250.542969 52.476562 250.347656 52.257812 250.128906 C 52.039062 249.910156 51.84375 249.671875 51.671875 249.417969 C 51.5 249.160156 51.355469 248.886719 51.238281 248.601562 C 51.121094 248.316406 51.03125 248.019531 50.96875 247.71875 C 50.910156 247.414062 50.878906 247.109375 50.878906 246.800781 C 50.878906 246.488281 50.910156 246.183594 50.96875 245.878906 C 51.03125 245.578125 51.121094 245.28125 51.238281 244.996094 C 51.355469 244.710938 51.5 244.4375 51.671875 244.179688 C 51.84375 243.925781 52.039062 243.6875 52.257812 243.46875 C 52.476562 243.25 52.714844 243.054688 52.972656 242.882812 C 53.230469 242.710938 53.503906 242.566406 53.789062 242.445312 C 54.074219 242.328125 54.367188 242.238281 54.671875 242.179688 C 54.976562 242.117188 55.28125 242.085938 55.589844 242.085938 C 55.898438 242.085938 56.207031 242.117188 56.511719 242.179688 C 56.8125 242.238281 57.109375 242.328125 57.394531 242.445312 C 57.679688 242.566406 57.949219 242.710938 58.207031 242.882812 C 58.464844 243.054688 58.703125 243.25 58.921875 243.46875 C 59.140625 243.6875 59.335938 243.925781 59.507812 244.179688 C 59.679688 244.4375 59.824219 244.710938 59.941406 244.996094 C 60.0625 245.28125 60.152344 245.578125 60.210938 245.878906 C 60.273438 246.183594 60.300781 246.488281 60.300781 246.800781 Z M 60.300781 246.800781 " fill-opacity="1" fill-rule="nonzero"/><path fill="#004aad" d="M 41.734375 246.800781 C 41.734375 247.109375 41.703125 247.414062 41.644531 247.71875 C 41.585938 248.019531 41.496094 248.316406 41.375 248.601562 C 41.257812 248.886719 41.113281 249.160156 40.941406 249.417969 C 40.769531 249.671875 40.574219 249.910156 40.355469 250.128906 C 40.136719 250.347656 39.898438 250.542969 39.640625 250.714844 C 39.382812 250.886719 39.113281 251.03125 38.828125 251.152344 C 38.539062 251.269531 38.246094 251.359375 37.941406 251.417969 C 37.640625 251.480469 37.332031 251.511719 37.023438 251.511719 C 36.714844 251.511719 36.410156 251.480469 36.105469 251.417969 C 35.800781 251.359375 35.507812 251.269531 35.222656 251.152344 C 34.933594 251.03125 34.664062 250.886719 34.40625 250.714844 C 34.148438 250.542969 33.910156 250.347656 33.691406 250.128906 C 33.472656 249.910156 33.277344 249.671875 33.105469 249.417969 C 32.933594 249.160156 32.789062 248.886719 32.671875 248.601562 C 32.554688 248.316406 32.464844 248.019531 32.402344 247.71875 C 32.34375 247.414062 32.3125 247.109375 32.3125 246.800781 C 32.3125 246.488281 32.34375 246.183594 32.402344 245.878906 C 32.464844 245.578125 32.554688 245.28125 32.671875 244.996094 C 32.789062 244.710938 32.933594 244.4375 33.105469 244.179688 C 33.277344 243.925781 33.472656 243.6875 33.691406 243.46875 C 33.910156 243.25 34.148438 243.054688 34.40625 242.882812 C 34.664062 242.710938 34.933594 242.566406 35.222656 242.445312 C 35.507812 242.328125 35.800781 242.238281 36.105469 242.179688 C 36.410156 242.117188 36.714844 242.085938 37.023438 242.085938 C 37.332031 242.085938 37.640625 242.117188 37.941406 242.179688 C 38.246094 242.238281 38.539062 242.328125 38.828125 242.445312 C 39.113281 242.566406 39.382812 242.710938 39.640625 242.882812 C 39.898438 243.054688 40.136719 243.25 40.355469 243.46875 C 40.574219 243.6875 40.769531 243.925781 40.941406 244.179688 C 41.113281 244.4375 41.257812 244.710938 41.375 244.996094 C 41.496094 245.28125 41.585938 245.578125 41.644531 245.878906 C 41.703125 246.183594 41.734375 246.488281 41.734375 246.800781 Z M 41.734375 246.800781 " fill-opacity="1" fill-rule="nonzero"/><path fill="#004aad" d="M 134.015625 120.710938 C 132.351562 118.214844 128.75 117.382812 126.257812 119.046875 L 76.375 152.300781 C 74.710938 153.410156 73.878906 155.074219 73.878906 157.011719 C 73.878906 158.953125 74.710938 160.613281 76.375 161.722656 C 76.375 161.722656 126.257812 194.976562 126.257812 194.976562 C 128.75 196.640625 132.351562 196.085938 134.015625 193.316406 C 135.679688 190.820312 135.125 187.21875 132.351562 185.554688 L 89.398438 157.011719 L 132.351562 128.46875 C 134.847656 126.804688 135.679688 123.203125 134.015625 120.710938 Z M 134.015625 120.710938 " fill-opacity="1" fill-rule="nonzero"/><path fill="#004aad" d="M 185.558594 193.316406 C 187.222656 195.808594 190.824219 196.640625 193.320312 194.976562 L 243.199219 161.722656 C 244.863281 160.613281 245.695312 158.953125 245.695312 157.011719 C 245.695312 155.074219 244.863281 153.410156 243.199219 152.300781 L 193.320312 119.046875 C 190.824219 117.382812 187.222656 117.9375 185.558594 120.710938 C 183.898438 123.203125 184.453125 126.804688 187.222656 128.46875 L 230.175781 157.011719 L 187.222656 185.554688 C 184.726562 187.21875 183.898438 190.820312 185.558594 193.316406 Z M 185.558594 193.316406 " fill-opacity="1" fill-rule="nonzero"/><path fill="#004aad" d="M 165.605469 114.058594 L 143.4375 197.195312 C 142.605469 200.242188 144.546875 203.292969 147.316406 203.84375 C 147.871094 203.84375 148.148438 204.121094 148.703125 204.121094 C 151.195312 204.121094 153.414062 202.460938 153.96875 199.964844 L 176.136719 116.828125 C 176.96875 113.78125 175.027344 110.734375 172.257812 110.179688 C 169.488281 109.347656 166.4375 111.011719 165.605469 114.058594 Z M 165.605469 114.058594 " fill-opacity="1" fill-rule="nonzero"/><g clipPath="url(#080c126a53)"><path fill="#004aad" d="M 137.617188 287.257812 L 120.992188 287.257812 C 117.941406 287.257812 115.449219 289.753906 115.449219 292.800781 C 115.449219 295.847656 117.941406 298.34375 120.992188 298.34375 L 198.585938 298.34375 C 201.632812 298.34375 204.125 295.847656 204.125 292.800781 C 204.125 289.753906 201.632812 287.257812 198.585938 287.257812 L 181.957031 287.257812 L 181.957031 270.632812 L 292.804688 270.632812 C 300.011719 270.632812 306.105469 265.921875 308.324219 259.546875 L 302.503906 259.546875 C 300.011719 259.546875 297.792969 259.269531 295.574219 258.4375 C 294.746094 258.992188 293.636719 259.546875 292.527344 259.546875 L 26.769531 259.546875 C 23.722656 259.546875 21.226562 257.050781 21.226562 254.003906 L 21.226562 237.375 L 255.671875 237.375 L 254.839844 236.546875 C 252.066406 233.773438 249.851562 230.171875 248.742188 226.292969 L 21.226562 226.292969 L 21.226562 93.273438 C 21.226562 90.226562 23.722656 87.734375 26.769531 87.734375 L 292.804688 87.734375 C 295.851562 87.734375 298.347656 90.226562 298.347656 93.273438 L 298.347656 121.539062 C 299.734375 121.265625 301.117188 120.988281 302.78125 120.988281 L 309.433594 120.988281 L 309.433594 93.273438 C 309.433594 84.128906 301.949219 76.648438 292.804688 76.648438 L 26.769531 76.648438 C 17.625 76.648438 10.144531 84.128906 10.144531 93.273438 L 10.144531 254.003906 C 10.144531 263.148438 17.625 270.632812 26.769531 270.632812 L 137.617188 270.632812 Z M 148.703125 270.632812 L 170.871094 270.632812 L 170.871094 287.257812 L 148.703125 287.257812 Z M 148.703125 270.632812 " fill-opacity="1" fill-rule="nonzero"/></g><g clipPath="url(#58e126b3f8)"><path fill="#004aad" d="M 354.046875 172.808594 C 353.492188 171.421875 352.941406 170.3125 352.386719 168.929688 C 355.988281 163.664062 355.433594 156.457031 350.722656 151.746094 L 345.179688 146.203125 C 342.6875 143.710938 339.082031 142.324219 335.480469 142.324219 C 332.710938 142.324219 330.214844 143.15625 328 144.542969 C 326.890625 143.988281 325.503906 143.433594 324.121094 142.878906 C 322.734375 136.503906 317.191406 132.070312 310.816406 132.070312 L 303.058594 132.070312 C 296.40625 132.070312 290.863281 136.78125 289.757812 142.878906 C 288.371094 143.433594 287.261719 143.988281 285.875 144.542969 C 283.660156 143.15625 281.164062 142.324219 278.394531 142.324219 C 274.792969 142.324219 271.191406 143.710938 268.695312 146.203125 L 263.152344 151.746094 C 258.441406 156.457031 257.886719 163.664062 261.492188 168.929688 C 260.9375 170.035156 260.382812 171.421875 259.828125 172.808594 C 253.453125 174.195312 249.019531 179.734375 249.019531 186.109375 L 249.019531 193.867188 C 249.019531 200.519531 253.730469 206.0625 259.828125 207.171875 C 260.382812 208.554688 260.9375 209.664062 261.492188 211.050781 C 260.105469 213.265625 259.273438 215.761719 259.273438 218.53125 C 259.273438 222.136719 260.660156 225.738281 263.152344 228.230469 L 268.695312 233.773438 C 271.191406 236.269531 274.792969 237.652344 278.394531 237.652344 C 281.164062 237.652344 283.660156 236.824219 285.875 235.4375 C 286.984375 235.992188 288.371094 236.546875 289.757812 237.101562 C 291.140625 243.472656 296.683594 247.90625 303.058594 247.90625 L 310.816406 247.90625 C 317.46875 247.90625 323.011719 243.195312 324.121094 237.101562 C 325.503906 236.546875 326.613281 235.992188 328 235.4375 C 330.214844 236.824219 332.710938 237.652344 335.480469 237.652344 C 339.082031 237.652344 342.6875 236.269531 345.179688 233.773438 L 350.722656 228.230469 C 353.21875 225.738281 354.601562 222.136719 354.601562 218.53125 C 354.601562 215.761719 353.769531 213.265625 352.386719 211.050781 C 352.941406 209.941406 353.492188 208.554688 354.046875 207.171875 C 360.421875 205.785156 364.855469 200.242188 364.855469 193.867188 L 364.855469 186.109375 C 364.855469 179.734375 360.144531 174.195312 354.046875 172.808594 Z M 353.769531 194.144531 C 353.769531 195.53125 352.664062 196.640625 351.277344 196.640625 L 345.457031 196.640625 C 344.347656 202.738281 342.132812 208.003906 338.804688 212.714844 L 342.964844 216.871094 C 344.070312 217.976562 344.070312 219.640625 342.964844 220.472656 L 337.421875 226.015625 C 336.867188 226.570312 336.3125 226.847656 335.480469 226.847656 C 334.648438 226.847656 334.09375 226.570312 333.542969 226.015625 L 329.382812 221.859375 C 324.671875 225.183594 319.132812 227.675781 313.3125 228.507812 L 313.3125 234.328125 C 313.3125 235.714844 312.203125 236.824219 310.816406 236.824219 L 303.058594 236.824219 C 301.671875 236.824219 300.5625 235.714844 300.5625 234.328125 L 300.5625 229.0625 C 294.46875 227.953125 289.203125 225.738281 284.492188 222.414062 L 279.78125 226.292969 C 279.226562 226.847656 278.671875 227.125 277.839844 227.125 C 277.007812 227.125 276.730469 226.847656 276.175781 226.292969 L 270.636719 220.75 C 269.527344 219.640625 269.527344 217.976562 270.636719 217.148438 L 274.792969 212.992188 C 271.464844 208.277344 268.972656 202.738281 268.140625 196.917969 L 262.320312 196.917969 C 260.9375 196.917969 259.828125 195.808594 259.828125 194.421875 L 259.828125 186.664062 C 259.828125 185.277344 260.9375 184.167969 262.320312 184.167969 L 267.863281 184.167969 C 268.972656 178.074219 271.191406 172.808594 274.515625 168.097656 L 270.636719 163.386719 C 269.527344 162.277344 269.527344 160.613281 270.636719 159.785156 L 276.175781 154.242188 C 276.730469 153.6875 277.285156 153.410156 278.117188 153.410156 C 278.949219 153.410156 279.503906 153.6875 280.058594 154.242188 L 284.214844 158.398438 C 288.925781 155.074219 294.46875 152.578125 300.285156 151.746094 L 300.285156 145.925781 C 300.285156 144.542969 301.394531 143.433594 302.78125 143.433594 L 310.539062 143.433594 C 311.925781 143.433594 313.035156 144.542969 313.035156 145.925781 L 313.035156 151.46875 C 319.132812 152.578125 324.394531 154.796875 329.109375 158.121094 L 333.265625 153.964844 C 333.820312 153.410156 334.371094 153.132812 335.203125 153.132812 C 336.035156 153.132812 336.589844 153.410156 337.144531 153.964844 L 342.6875 159.507812 C 343.792969 160.613281 343.792969 162.277344 342.6875 163.109375 L 338.53125 167.265625 C 341.855469 171.976562 344.347656 177.519531 345.179688 183.339844 L 351 183.339844 C 352.386719 183.339844 353.492188 184.445312 353.492188 185.832031 L 353.492188 194.144531 Z M 353.769531 194.144531 " fill-opacity="1" fill-rule="nonzero"/></g><path fill="#004aad" d="M 306.660156 168.097656 C 294.46875 168.097656 284.492188 178.074219 284.492188 190.265625 C 284.492188 202.460938 294.46875 212.4375 306.660156 212.4375 C 318.855469 212.4375 328.832031 202.460938 328.832031 190.265625 C 328.832031 178.074219 318.855469 168.097656 306.660156 168.097656 Z M 306.660156 201.351562 C 300.5625 201.351562 295.574219 196.363281 295.574219 190.265625 C 295.574219 184.171875 300.5625 179.183594 306.660156 179.183594 C 312.757812 179.183594 317.746094 184.167969 317.746094 190.265625 C 317.746094 196.363281 312.757812 201.351562 306.660156 201.351562 Z M 306.660156 201.351562 " fill-opacity="1" fill-rule="nonzero"/></svg>