<svg xmlns="http://www.w3.org/2000/svg" xmlns:xlink="http://www.w3.org/1999/xlink" width="500" zoomAndPan="magnify" viewBox="0 0 375 374.999991" height="500" preserveAspectRatio="xMidYMid meet" version="1.0"><defs><clipPath id="c86b1bf681"><path d="M 97 77.925781 L 275 77.925781 L 275 253 L 97 253 Z M 97 77.925781 " clip-rule="nonzero"/></clipPath><clipPath id="5d9bfda905"><path d="M 8.117188 270 L 366.617188 270 L 366.617188 296.925781 L 8.117188 296.925781 Z M 8.117188 270 " clip-rule="nonzero"/></clipPath></defs><g clipPath="url(#c86b1bf681)"><path fill="#00bf63" d="M 252.316406 168.066406 L 274.144531 158.648438 C 273.128906 151.585938 273.238281 152.347656 272.222656 145.28125 L 248.628906 142.398438 C 246.464844 137.648438 245.84375 136.300781 243.675781 131.542969 L 256.945312 111.820312 C 252.265625 106.421875 252.777344 107.003906 248.097656 101.617188 L 226.695312 111.949219 C 222.300781 109.121094 221.050781 108.324219 216.65625 105.496094 L 217.160156 81.738281 C 210.3125 79.730469 211.050781 79.945312 204.195312 77.9375 L 191.773438 98.199219 C 186.554688 98.199219 185.066406 98.199219 179.847656 98.199219 L 167.425781 77.9375 C 160.578125 79.945312 161.316406 79.730469 154.460938 81.738281 L 154.964844 105.496094 C 150.570312 108.324219 149.320312 109.121094 144.925781 111.949219 L 123.523438 101.617188 C 118.84375 107.015625 119.355469 106.433594 114.675781 111.820312 L 127.945312 131.542969 C 125.777344 136.289062 125.15625 137.640625 122.992188 142.398438 L 99.398438 145.28125 C 98.382812 152.347656 98.492188 151.585938 97.476562 158.648438 L 119.304688 168.066406 C 120.046875 173.238281 120.261719 174.707031 121 179.878906 L 102.707031 195.058594 C 105.671875 201.546875 105.359375 200.847656 108.324219 207.339844 L 131.777344 203.460938 C 135.195312 207.410156 136.171875 208.53125 139.589844 212.472656 L 132.40625 235.128906 C 138.414062 238.988281 137.765625 238.574219 143.773438 242.425781 L 161.40625 226.488281 C 166.421875 227.957031 167.839844 228.378906 172.851562 229.847656 L 179.066406 252.789062 C 186.210938 252.789062 185.441406 252.789062 192.574219 252.789062 L 198.789062 229.847656 C 203.800781 228.378906 205.21875 227.957031 210.234375 226.488281 L 227.867188 242.425781 C 233.875 238.566406 233.226562 238.980469 239.234375 235.128906 L 232.054688 212.472656 C 235.472656 208.523438 236.445312 207.398438 239.863281 203.460938 L 263.316406 207.339844 C 266.28125 200.847656 265.96875 201.546875 268.933594 195.058594 L 250.640625 179.878906 C 251.359375 174.707031 251.574219 173.226562 252.316406 168.066406 Z M 217.296875 208.570312 C 217.265625 210.582031 215.632812 212.1875 213.632812 212.1875 C 213.613281 212.1875 213.59375 212.1875 213.582031 212.1875 C 211.5625 212.15625 209.949219 210.492188 209.96875 208.472656 L 210.027344 204.582031 C 202.816406 209.035156 194.582031 211.367188 185.984375 211.367188 C 179.789062 211.367188 173.769531 210.15625 168.105469 207.753906 C 162.636719 205.4375 157.722656 202.128906 153.507812 197.914062 C 149.289062 193.699219 145.980469 188.78125 143.667969 183.316406 C 141.273438 177.652344 140.050781 171.632812 140.050781 165.4375 C 140.050781 157.230469 142.246094 149.175781 146.394531 142.140625 C 147.417969 140.398438 149.664062 139.816406 151.410156 140.851562 C 153.152344 141.875 153.734375 144.121094 152.707031 145.863281 C 149.222656 151.773438 147.390625 158.542969 147.390625 165.445312 C 147.390625 186.734375 164.714844 204.058594 186.003906 204.058594 C 192.082031 204.058594 197.941406 202.671875 203.261719 200 L 201.722656 199.980469 C 199.703125 199.953125 198.089844 198.289062 198.109375 196.269531 C 198.136719 194.257812 199.773438 192.652344 201.773438 192.652344 C 201.792969 192.652344 201.8125 192.652344 201.820312 192.652344 L 217.535156 192.878906 Z M 161.160156 165.359375 C 161.160156 151.746094 172.191406 140.710938 185.804688 140.710938 C 199.417969 140.710938 210.449219 151.746094 210.449219 165.359375 C 210.449219 178.972656 199.417969 190.003906 185.804688 190.003906 C 172.191406 190.003906 161.160156 178.972656 161.160156 165.359375 Z M 229.738281 179.464844 C 229.234375 181.019531 227.796875 182.003906 226.25 182.003906 C 225.875 182.003906 225.503906 181.945312 225.128906 181.828125 C 223.199219 181.207031 222.144531 179.148438 222.753906 177.21875 C 223.976562 173.414062 224.585938 169.445312 224.585938 165.417969 C 224.585938 144.128906 207.257812 126.804688 185.972656 126.804688 C 181.867188 126.804688 177.886719 127.433594 174.0625 128.675781 L 176.636719 130.015625 C 178.429688 130.949219 179.128906 133.167969 178.191406 134.960938 C 177.542969 136.210938 176.261719 136.929688 174.941406 136.929688 C 174.371094 136.929688 173.789062 136.792969 173.246094 136.515625 L 160.460938 129.847656 L 167.128906 117.0625 C 168.066406 115.269531 170.28125 114.570312 172.074219 115.503906 C 173.867188 116.441406 174.566406 118.65625 173.628906 120.449219 L 173.195312 121.289062 C 177.316406 120.097656 181.597656 119.496094 185.984375 119.496094 C 192.179688 119.496094 198.199219 120.707031 203.859375 123.109375 C 209.328125 125.425781 214.242188 128.734375 218.460938 132.949219 C 222.675781 137.167969 225.984375 142.082031 228.300781 147.546875 C 230.695312 153.210938 231.914062 159.230469 231.914062 165.425781 C 231.925781 170.214844 231.195312 174.941406 229.738281 179.464844 Z M 229.738281 179.464844 " fill-opacity="1" fill-rule="nonzero"/></g><g clipPath="url(#5d9bfda905)"><path fill="#00bf63" d="M 353.347656 297.054688 L 21.628906 297.054688 C 14.183594 297.054688 8.117188 291 8.117188 283.542969 C 8.117188 276.085938 14.175781 270.039062 21.628906 270.039062 L 353.359375 270.039062 C 360.804688 270.039062 366.875 276.09375 366.875 283.550781 C 366.875 291.007812 360.804688 297.054688 353.347656 297.054688 Z M 21.628906 274.714844 C 16.765625 274.714844 12.804688 278.675781 12.804688 283.542969 C 12.804688 288.40625 16.765625 292.367188 21.628906 292.367188 L 353.359375 292.367188 C 358.226562 292.367188 362.183594 288.40625 362.183594 283.542969 C 362.183594 278.675781 358.226562 274.714844 353.359375 274.714844 Z M 21.628906 274.714844 " fill-opacity="1" fill-rule="nonzero"/></g><path fill="#00bf63" d="M 20.300781 287.984375 C 18.585938 287.984375 17.1875 285.996094 17.1875 283.542969 C 17.1875 281.089844 18.585938 279.097656 20.300781 279.097656 L 252.71875 279.097656 C 254.433594 279.097656 255.832031 281.089844 255.832031 283.542969 C 255.832031 285.996094 254.433594 287.984375 252.71875 287.984375 Z M 20.300781 287.984375 " fill-opacity="1" fill-rule="nonzero"/></svg>