<svg xmlns="http://www.w3.org/2000/svg" xmlns:xlink="http://www.w3.org/1999/xlink" width="500" zoomAndPan="magnify" viewBox="0 0 375 374.999991" height="500" preserveAspectRatio="xMidYMid meet" version="1.0"><defs><clipPath id="a1a048e329"><path d="M 5.398438 12.359375 L 369.898438 12.359375 L 369.898438 296.609375 L 5.398438 296.609375 Z M 5.398438 12.359375 " clip-rule="nonzero"/></clipPath></defs><path fill="#eb1e26" d="M 169.894531 77.75 C 169.894531 76.3125 171.445312 75.414062 172.691406 76.132812 L 206.691406 95.761719 C 207.933594 96.480469 207.933594 98.28125 206.691406 98.988281 L 172.691406 118.617188 C 171.445312 119.335938 169.894531 118.4375 169.894531 117.011719 Z M 175.929688 135.609375 C 179.683594 135.664062 187.320312 135.722656 187.382812 135.722656 C 187.441406 135.722656 195.074219 135.664062 198.832031 135.609375 C 205.359375 135.503906 211.886719 135.277344 218.402344 134.851562 C 221.972656 134.617188 225.546875 134.398438 229.046875 133.601562 C 235.261719 132.195312 239.101562 128.125 240.230469 121.835938 C 241.675781 113.726562 242.0625 105.5625 242.015625 97.378906 C 242.0625 89.1875 241.675781 81.023438 240.230469 72.925781 C 239.101562 66.636719 235.261719 62.558594 229.046875 61.148438 C 225.546875 60.355469 221.972656 60.136719 218.402344 59.910156 C 211.886719 59.472656 205.359375 59.246094 198.832031 59.144531 C 195.074219 59.085938 187.441406 59.03125 187.382812 59.03125 C 187.320312 59.03125 179.683594 59.085938 175.929688 59.144531 C 169.402344 59.246094 162.875 59.472656 156.355469 59.910156 C 152.789062 60.136719 149.214844 60.355469 145.714844 61.148438 C 139.496094 62.558594 135.65625 66.636719 134.53125 72.925781 C 133.085938 81.023438 132.695312 89.1875 132.742188 97.378906 C 132.695312 105.5625 133.085938 113.726562 134.53125 121.835938 C 135.65625 128.125 139.496094 132.195312 145.714844 133.601562 C 149.214844 134.398438 152.789062 134.617188 156.355469 134.851562 C 162.875 135.277344 169.402344 135.503906 175.929688 135.609375 " fill-opacity="1" fill-rule="nonzero"/><path fill="#004aad" d="M 89.484375 161.386719 C 86.304688 161.386719 83.703125 163.886719 83.703125 166.96875 C 83.703125 170.042969 86.304688 172.570312 89.484375 172.570312 L 115.675781 172.570312 C 115.421875 170.789062 115.300781 168.898438 115.300781 166.96875 C 115.300781 165.03125 115.421875 163.175781 115.675781 161.386719 L 89.484375 161.386719 " fill-opacity="1" fill-rule="nonzero"/><path fill="#004aad" d="M 285.296875 161.386719 L 151.125 161.386719 C 151.378906 163.175781 151.503906 165.03125 151.503906 166.96875 C 151.503906 168.898438 151.378906 170.789062 151.125 172.570312 L 285.296875 172.570312 C 288.476562 172.570312 291.046875 170.042969 291.046875 166.96875 C 291.046875 163.886719 288.476562 161.386719 285.296875 161.386719 " fill-opacity="1" fill-rule="nonzero"/><path fill="#004aad" d="M 133.414062 149.761719 C 128.335938 149.761719 124.21875 157.472656 124.21875 166.96875 C 124.21875 176.476562 128.335938 184.175781 133.414062 184.175781 C 138.484375 184.175781 142.601562 176.476562 142.601562 166.96875 C 142.601562 157.472656 138.484375 149.761719 133.414062 149.761719 " fill-opacity="1" fill-rule="nonzero"/><g clip-path="url(#a1a048e329)"><path fill="#004aad" d="M 358.46875 284.347656 C 358.46875 285.230469 357.75 285.949219 356.878906 285.949219 L 17.871094 285.949219 C 17 285.949219 16.28125 285.230469 16.28125 284.347656 L 16.28125 276.175781 L 358.46875 276.175781 Z M 209.132812 265.523438 L 165.617188 265.523438 C 163.175781 265.523438 161.40625 263.195312 162.050781 260.839844 L 164.984375 250.234375 C 165.417969 248.628906 166.886719 247.519531 168.550781 247.519531 L 206.210938 247.519531 C 207.875 247.519531 209.332031 248.628906 209.777344 250.234375 L 212.699219 260.839844 C 213.351562 263.195312 211.574219 265.523438 209.132812 265.523438 Z M 55.617188 34.347656 L 319.136719 34.347656 L 319.136719 201.6875 L 55.617188 201.6875 Z M 369.101562 270.507812 C 369.101562 270.460938 369.101562 270.414062 369.09375 270.359375 C 369.074219 270.140625 369.046875 269.941406 369 269.742188 C 369 269.714844 368.988281 269.695312 368.988281 269.695312 C 368.953125 269.488281 368.894531 269.308594 368.839844 269.128906 C 368.820312 269.082031 368.800781 269.035156 368.78125 268.984375 C 368.722656 268.824219 368.648438 268.675781 368.574219 268.511719 C 368.5625 268.496094 368.554688 268.457031 368.542969 268.4375 L 340.070312 212.261719 L 340.070312 22.75 C 340.070312 17.066406 335.445312 12.4375 329.757812 12.4375 L 44.992188 12.4375 C 39.304688 12.4375 34.691406 17.066406 34.691406 22.75 L 34.691406 212.261719 L 6.207031 268.4375 C 6.195312 268.457031 6.1875 268.496094 6.167969 268.511719 C 6.101562 268.675781 6.035156 268.824219 5.96875 268.984375 C 5.949219 269.035156 5.929688 269.082031 5.921875 269.128906 C 5.855469 269.308594 5.808594 269.488281 5.769531 269.675781 C 5.769531 269.675781 5.761719 269.714844 5.75 269.734375 C 5.703125 269.941406 5.675781 270.140625 5.65625 270.359375 C 5.65625 270.40625 5.65625 270.460938 5.648438 270.507812 C 5.648438 270.621094 5.628906 270.734375 5.628906 270.839844 L 5.628906 284.347656 C 5.628906 291.105469 11.125 296.601562 17.871094 296.601562 L 356.878906 296.601562 C 363.625 296.601562 369.121094 291.105469 369.121094 284.347656 L 369.121094 270.839844 C 369.121094 270.734375 369.113281 270.621094 369.101562 270.507812 " fill-opacity="1" fill-rule="nonzero"/></g></svg>